<svg width="25" height="28" viewBox="63 7 24.82 27.58" fill="none" xmlns="http://www.w3.org/2000/svg">
  <defs>
    <linearGradient id="paint_gradient_3" x1="63.4447" y1="9.14511" x2="89.1561" y2="9.13178" gradientUnits="userSpaceOnUse">
      <stop stop-color="#AE67FA"/>
      <stop offset="0.973958" stop-color="#F49867"/>
    </linearGradient>
  </defs>
  <path fill-rule="evenodd" clip-rule="evenodd" d="M67.137 9.758C66.3754 9.758 65.758 10.3754 65.758 11.137V30.443C65.758 31.2046 66.3754 31.822 67.137 31.822H83.685C84.4466 31.822 85.064 31.2046 85.064 30.443V20.79C85.064 20.0284 85.6814 19.411 86.443 19.411C87.2046 19.411 87.822 20.0284 87.822 20.79V30.443C87.822 32.7278 85.9698 34.58 83.685 34.58H67.137C64.8522 34.58 63 32.7278 63 30.443V11.137C63 8.8522 64.8522 7 67.137 7H75.411C76.1726 7 76.79 7.6174 76.79 8.379C76.79 9.1406 76.1726 9.758 75.411 9.758H67.137Z" fill="url(#paint_gradient_3)"/>
  <path fill-rule="evenodd" clip-rule="evenodd" d="M69.9835 20.3264C69.7726 20.5374 69.6357 20.8111 69.5935 21.1065L68.9434 25.6569C68.8134 26.567 69.5935 27.3471 70.5036 27.2171L75.0541 26.567C75.3494 26.5248 75.6232 26.388 75.8341 26.177L86.2352 15.7759C87.8508 14.1603 87.8508 11.5409 86.2352 9.92532C84.6196 8.30972 82.0002 8.30972 80.3846 9.92532L69.9835 20.3264ZM81.3597 16.751L74.209 23.9018L71.9337 24.2268L72.2588 21.9516L79.4095 14.8008L81.3597 16.751ZM83.3099 14.8008L81.3597 12.8506L82.3348 11.8755C82.8733 11.337 83.7465 11.337 84.285 11.8755C84.8235 12.4141 84.8235 13.2872 84.285 13.8257L83.3099 14.8008Z" fill="url(#paint_gradient_3)"/>
</svg>
