<svg xmlns="http://www.w3.org/2000/svg" width="698" height="390" fill="none" viewBox="0 0 698 390"><path fill="url(#a)" d="m24.533 53.6 5.44-13.92h24.88l5.44 13.92h9.36L48.773 0h-12.4l-20.88 53.6zm14.08-35.84 3.52-9.92h.64l3.44 9.92 5.6 14.16h-18.8zm63.261 35.84V32.16h28.16v-7.84h-28.16V7.76h29.36V0h-38v53.6zm47.506.8c7.52 0 12.08-3.28 14.4-7.04h.4v6.24h8V29.44c0-9.68-5.6-16.4-16.72-16.4-10.64 0-17.6 6.4-17.6 15.28v.8h8.32v-1.2c0-5.28 2.48-7.28 8.8-7.28 6.24 0 8.96 1.76 8.96 7.68v2.16l-13.92 2.08c-8.48 1.2-13.28 4.64-13.28 11.2 0 6.96 5.52 10.64 12.64 10.64m-4.24-11.28c0-2.96 1.6-4 6.16-4.64l12.64-1.92v.72c0 8-6.16 10.24-11.76 10.24-5.04 0-7.04-1.28-7.04-4.4m53.399 11.28c10.08 0 15.92-4.32 15.92-11.68 0-6.56-4-10-11.68-11.52l-6.72-1.28c-5.6-1.12-7.04-2-7.04-5.04s1.52-4.72 7.84-4.72c7.12 0 8.4 2.64 8.4 6.32v.96h8.24v-.72c0-9.04-7.04-13.68-16.4-13.68-10.4 0-16.32 4.8-16.32 12s4.48 10.4 11.6 11.68l6.16 1.04c5.84 1.04 7.76 2 7.76 5.2 0 2.96-1.2 4.4-7.6 4.4-7.6 0-9.52-1.6-9.52-5.92V40h-8.32v.16c0 9.68 6.08 14.24 17.68 14.24m40.661-.8c2.72 0 5.44-.32 7.12-.72v-7.04h-4.88c-5.36 0-7.12-.72-7.12-4.88V21.04h12v-7.2h-12V4h-6.64l-1.84 9.84h-6.8v7.2h6.64v20.32c0 8.96 4.64 12.24 13.52 12.24m57.165 0c11.28 0 17.76-5.6 17.76-14.72 0-7.04-4.16-12.32-12.32-13.36v-.64c6.88-1.04 10.4-5.28 10.4-11.52 0-9.04-6.32-13.36-16.8-13.36h-24.64v53.6zm-16.96-45.84h15.44c6.48 0 8.8 1.76 8.8 7.28 0 5.44-2.56 7.2-9.04 7.2h-15.2zm0 21.68h16.72c6.48 0 9.28 1.84 9.28 8.24 0 6.32-2.8 8.16-9.28 8.16h-16.72zm51.829 24.16V0h-8.64v53.6zm27.997.8c12.16 0 19.52-8.32 19.52-20.72 0-12.32-7.36-20.64-19.52-20.64-12.24 0-19.84 8.32-19.84 20.64 0 12.4 7.6 20.72 19.84 20.72m0-7.68c-8.4 0-11.36-4.08-11.36-13.04 0-8.88 2.96-12.96 11.36-12.96 8.32 0 11.2 4.08 11.2 12.96 0 8.96-2.88 13.04-11.2 13.04m45.809 7.76c10.72 0 18-6.56 18-16v-.72h-8.56v.48c0 5.84-3.04 8.4-9.68 8.4-7.68 0-10.64-4.24-10.64-12.88s2.96-12.96 10.64-12.96c6.64 0 9.68 2.64 9.68 8.48v.48h8.56v-.72c0-9.52-7.2-16-17.68-16-12.48 0-19.76 8.32-19.76 20.72 0 12.32 7.04 20.72 19.44 20.72m34.822-.88V37.36h7.92l10.4 16.24h10.08l-13.6-20.96 13.84-18.8h-10.16l-10.64 15.76h-7.84V0h-8.64v53.6zm50.41.88c10.72 0 18-6.56 18-16v-.72h-8.56v.48c0 5.84-3.04 8.4-9.68 8.4-7.68 0-10.64-4.24-10.64-12.88s2.96-12.96 10.64-12.96c6.64 0 9.68 2.64 9.68 8.48v.48h8.56v-.72c0-9.52-7.2-16-17.68-16-12.48 0-19.76 8.32-19.76 20.72 0 12.32 7.04 20.72 19.44 20.72m34.821-.88V30.72c0-7.52 3.2-10.24 10.24-10.24 7.28 0 9.52 2.96 9.52 10.08V53.6h8.64V28.56c0-8.72-4.4-15.52-14.8-15.52-7.2 0-11.44 3.84-13.28 7.44h-.32V0h-8.64v53.6zm49.231.8c7.52 0 12.08-3.28 14.4-7.04h.4v6.24h8V29.44c0-9.68-5.6-16.4-16.72-16.4-10.64 0-17.6 6.4-17.6 15.28v.8h8.32v-1.2c0-5.28 2.48-7.28 8.8-7.28 6.24 0 8.96 1.76 8.96 7.68v2.16l-13.92 2.08c-8.48 1.2-13.28 4.64-13.28 11.2 0 6.96 5.52 10.64 12.64 10.64m-4.24-11.28c0-2.96 1.6-4 6.16-4.64l12.64-1.92v.72c0 8-6.16 10.24-11.76 10.24-5.04 0-7.04-1.28-7.04-4.4M615.077 8.8V0h-8.64l.08 8.8zm.08 44.8v-40h-8.64v40zm18.174 0V30.64c0-7.44 3.2-10.16 10.24-10.16 7.28 0 9.52 2.96 9.52 10.08V53.6h8.64V28.64c0-9.04-4.64-15.6-14.96-15.6-7.76 0-12 4-13.84 8.24h-.32v-7.44h-7.92V53.6zm47.472 0V41.2h-10.96v12.4z"/><path fill="#fff" d="M166.933 148.4c13.68 0 19.76-6.96 19.76-15.36 0-8.08-4.4-13.12-14.48-15.2l-9.12-1.92c-7.36-1.6-9.52-2.96-9.52-7.84 0-4.72 3.2-6.96 11.12-6.96 9.6 0 12.48 3.44 12.48 10v.88h8.48v-.96c0-9.52-5.92-17.84-20.72-17.84-13.84 0-20 7.36-20 15.28 0 8.48 4.96 12.96 14.16 14.72l9.12 1.84c8.24 1.68 9.84 3.44 9.84 8.32 0 4.96-2.88 7.12-10.8 7.12-11.2 0-14-3.36-14-10v-.88h-8.48v1.36c0 10.32 6.72 17.44 22.16 17.44m45.332.08c10.72 0 18-6.56 18-16v-.72h-8.56v.48c0 5.84-3.04 8.4-9.68 8.4-7.68 0-10.64-4.24-10.64-12.88s2.96-12.96 10.64-12.96c6.64 0 9.68 2.64 9.68 8.48v.48h8.56v-.72c0-9.52-7.2-16-17.68-16-12.48 0-19.76 8.32-19.76 20.72 0 12.32 7.04 20.72 19.44 20.72m37.297-.08c7.52 0 12.08-3.28 14.4-7.04h.4v6.24h8v-24.16c0-9.68-5.6-16.4-16.72-16.4-10.64 0-17.6 6.4-17.6 15.28v.8h8.32v-1.2c0-5.28 2.48-7.28 8.8-7.28 6.24 0 8.96 1.76 8.96 7.68v2.16l-13.92 2.08c-8.48 1.2-13.28 4.64-13.28 11.2 0 6.96 5.52 10.64 12.64 10.64m-4.24-11.28c0-2.96 1.6-4 6.16-4.64l12.64-1.92v.72c0 8-6.16 10.24-11.76 10.24-5.04 0-7.04-1.28-7.04-4.4m45.553 10.48V94h-8.64v53.6zm20.558.8c7.52 0 12.08-3.28 14.4-7.04h.4v6.24h8v-24.16c0-9.68-5.6-16.4-16.72-16.4-10.64 0-17.6 6.4-17.6 15.28v.8h8.32v-1.2c0-5.28 2.48-7.28 8.8-7.28 6.24 0 8.96 1.76 8.96 7.68v2.16l-13.92 2.08c-8.48 1.2-13.28 4.64-13.28 11.2 0 6.96 5.52 10.64 12.64 10.64m-4.24-11.28c0-2.96 1.6-4 6.16-4.64l12.64-1.92v.72c0 8-6.16 10.24-11.76 10.24-5.04 0-7.04-1.28-7.04-4.4m44.834 10.48v-6.56h.32c1.92 4.64 6.56 7.36 13.44 7.36 11.12 0 17.2-8.08 17.2-20.72 0-12.56-5.76-20.64-16.72-20.64-7.04 0-11.6 3.52-13.36 7.12h-.16V94h-8.64v53.6zm.72-16.32v-7.12c0-6.64 3.84-9.76 10.8-9.76 7.6 0 10.88 3.52 10.88 13.28 0 9.84-3.2 13.36-10.88 13.36-6.96 0-10.8-3.12-10.8-9.76m47.068 16.32V94h-8.64v53.6zm27.437.8c10.72 0 17.84-5.28 17.84-13.44v-.72h-8.56v.64c0 3.6-2.56 5.84-9.2 5.84-8.32 0-10.96-3.68-11.28-10.96h28.88c.24-1.2.48-3.36.48-5.44 0-10.88-7.52-17.28-18.24-17.28-11.84 0-19.2 8.32-19.2 20.64 0 12.4 6.16 20.72 19.28 20.72m-.24-34.08c6.8 0 10.48 2.88 10.16 9.68h-21.04c.48-6.16 3.36-9.68 10.88-9.68m49.483 33.28 5.44-13.92h24.88l5.44 13.92h9.36L500.735 94h-12.4l-20.88 53.6zm14.08-35.84 3.52-9.92h.64l3.44 9.92 5.6 14.16h-18.8zm44.865 35.84V94h-8.64v53.6zm19.498 0v-12.4h-10.96v12.4zM6.36 210.8c3.8 0 6.36-3.02 6.36-6.92 0-3.86-2.56-6.88-6.36-6.88S0 200.02 0 203.88c0 3.9 2.56 6.92 6.36 6.92m.02-1.24c-3.18 0-5-2.4-5-5.68 0-3.24 1.82-5.66 5-5.66 3.16 0 4.98 2.42 4.98 5.66 0 3.28-1.82 5.68-4.98 5.68m12.664 1.24c1.98 0 3.06-1.34 3.4-2.94v2.74h1.3V201h-1.3v5.54c0 1.68-.8 3.14-2.88 3.14-1.64 0-2.36-.96-2.36-2.5V201h-1.3v6.46c0 2.22 1.26 3.34 3.14 3.34m9.546-.2v-5.56c0-1.66 1.14-3.26 2.58-3.26.88 0 1.24.56 1.24 1.18 0 .58-.24 1.2-.5 1.5h1.42c.18-.32.36-.92.36-1.64 0-1.32-.92-2.04-2.04-2.04-1.64 0-2.7 1.32-3.06 2.84V201h-1.32v9.6zm15.877.22c1.24 0 2.18-.58 2.6-1.28l-.46-1.28c-.32.68-1.02 1.3-1.88 1.3-.84 0-1.56-.38-1.56-1.76v-5.78h3.22V201h-3.22v-2.36l-1.3.98V201h-1.56v1.02h1.56v6.14c0 1.74 1.14 2.66 2.6 2.66m8.377-.02c2.04 0 3.32-.98 4-2.16l-.8-.94c-.42.94-1.26 2-3.2 2-1.9 0-3.2-1.2-3.28-3.6h7.32c.02-.16.06-.4.06-.64 0-2.9-1.64-4.66-4.26-4.66-2.6 0-4.38 1.88-4.38 5 0 3.18 1.86 5 4.54 5m-.16-8.92c1.76 0 2.94 1.1 3.06 3.26h-6.16c.18-2.16 1.34-3.26 3.1-3.26m11.405 8.92c2.4 0 3.9-1.4 4.28-3.34l-1.26-.54c-.2 1.62-1.16 2.78-3 2.78-1.9 0-3.16-1.36-3.16-3.9 0-2.56 1.26-3.92 3.16-3.92 1.84 0 2.8 1.18 3 2.8l1.26-.54c-.38-1.94-1.88-3.34-4.26-3.34-2.72 0-4.5 1.88-4.5 5s1.78 5 4.48 5m8.51-.2v-5.56c0-1.66.84-3.14 2.9-3.14 1.64 0 2.32.96 2.32 2.52v6.18h1.32v-6.48c0-2.2-1.24-3.32-3.1-3.32-1.96 0-3.1 1.32-3.44 2.88v-6.48h-1.32v13.4zm11.307 0v-5.56c0-1.66.82-3.14 2.84-3.14 1.66 0 2.38.96 2.38 2.52v6.18h1.32v-6.48c0-2.2-1.28-3.32-3.18-3.32-1.92 0-3.02 1.32-3.36 2.88V201h-1.32v9.6zm13.787.2c2.64 0 4.5-1.96 4.5-5s-1.86-5-4.5-5-4.48 1.96-4.48 5 1.84 5 4.48 5m0-1.12c-1.88 0-3.16-1.34-3.16-3.88 0-2.56 1.28-3.92 3.16-3.92 1.9 0 3.18 1.36 3.18 3.92 0 2.54-1.28 3.88-3.18 3.88m8.883.92v-13.4h-1.32v13.4zm7.361.2c2.64 0 4.5-1.96 4.5-5s-1.86-5-4.5-5-4.48 1.96-4.48 5 1.84 5 4.48 5m0-1.12c-1.88 0-3.16-1.34-3.16-3.88 0-2.56 1.28-3.92 3.16-3.92 1.9 0 3.18 1.36 3.18 3.92 0 2.54-1.28 3.88-3.18 3.88m11.186-2.04c2.24 0 3.72-1.42 3.72-3.42 0-1.18-.52-2.16-1.42-2.78l1.72-2.06-1.38-.52-.78 2.32c-.54-.24-1.16-.38-1.86-.38-2.22 0-3.72 1.42-3.72 3.42 0 1.22.56 2.22 1.48 2.82-.8.62-1.4 1.42-1.4 2.2 0 .58.32 1.04.98 1.22-.76.3-1.72.92-1.72 1.92 0 1.32 1.52 2.14 3.96 2.14 3.08 0 4.92-1.28 4.92-3.06 0-1.4-1.04-2.08-2.72-2.08h-2.98c-1.04 0-1.36-.32-1.36-.86 0-.46.3-.96.6-1.32.56.28 1.22.44 1.96.44m0-1.02c-1.42 0-2.44-.94-2.44-2.4s1.02-2.4 2.44-2.4c1.44 0 2.46.94 2.46 2.4s-1.02 2.4-2.46 2.4m-.42 6.86c-1.82 0-2.88-.54-2.88-1.48 0-.62.52-1.18 1-1.48h3.9c1.14 0 1.68.34 1.68 1.1 0 1.1-1.38 1.86-3.7 1.86m8.442.5c1.3 0 2.24-.7 2.8-2.24l4.06-10.74h-1.38l-2.4 6.58-.7 1.98-.68-1.98-2.42-6.58h-1.4l3.52 9.28.74-.02-.36.96c-.42 1.18-.98 1.6-1.76 1.6-.88 0-1.42-.54-1.82-1.32l-.74.96c.36.72 1.24 1.52 2.54 1.52m15.508.34v-6.26c.32 1.48 1.36 2.74 3.2 2.74 2.5 0 4-1.98 4-5.02 0-3.02-1.5-5.02-4-5.02-1.84 0-2.88 1.26-3.2 2.76V201h-1.32v13.32zm0-7.64v-1.8c0-1.6.86-3 2.8-3 1.74 0 3.06 1.2 3.06 3.9s-1.32 3.9-3.06 3.9c-1.94 0-2.8-1.4-2.8-3m14.338 4.12c2.04 0 3.32-.98 4-2.16l-.8-.94c-.42.94-1.26 2-3.2 2-1.9 0-3.2-1.2-3.28-3.6h7.32c.02-.16.06-.4.06-.64 0-2.9-1.64-4.66-4.26-4.66-2.6 0-4.38 1.88-4.38 5 0 3.18 1.86 5 4.54 5m-.16-8.92c1.76 0 2.94 1.1 3.06 3.26h-6.16c.18-2.16 1.34-3.26 3.1-3.26m8.609 8.72v-5.56c0-1.66 1.14-3.26 2.58-3.26.88 0 1.24.56 1.24 1.18 0 .58-.24 1.2-.5 1.5h1.42c.18-.32.36-.92.36-1.64 0-1.32-.92-2.04-2.04-2.04-1.64 0-2.7 1.32-3.06 2.84V201h-1.32v9.6zm9.525 0v-8.58h3.2V201h-3.2v-1.22c0-1.16.58-1.68 1.52-1.68.88 0 1.6.52 2 1.24l.7-.96c-.4-.66-1.32-1.38-2.68-1.38-1.64 0-2.84.94-2.84 2.88V201h-1.58v1.02h1.58v8.58zm8.967.2c2.64 0 4.5-1.96 4.5-5s-1.86-5-4.5-5-4.48 1.96-4.48 5 1.84 5 4.48 5m0-1.12c-1.88 0-3.16-1.34-3.16-3.88 0-2.56 1.28-3.92 3.16-3.92 1.9 0 3.18 1.36 3.18 3.92 0 2.54-1.28 3.88-3.18 3.88m8.844.92v-5.56c0-1.66 1.14-3.26 2.58-3.26.88 0 1.24.56 1.24 1.18 0 .58-.24 1.2-.5 1.5h1.42c.18-.32.36-.92.36-1.64 0-1.32-.92-2.04-2.04-2.04-1.64 0-2.7 1.32-3.06 2.84V201h-1.32v9.6zm8.826 0v-5.56c0-1.66.82-3.14 2.52-3.14 1.5 0 2.24.82 2.24 2.5v6.2h1.3v-5.56c0-1.66.82-3.14 2.54-3.14 1.48 0 2.22.82 2.22 2.5v6.2h1.32v-6.5c0-2.2-1.04-3.3-2.88-3.3-1.8 0-2.9 1.34-3.22 2.92-.1-1.94-1.12-2.92-2.86-2.92-1.78 0-2.84 1.3-3.18 2.88V201h-1.32v9.6zm16.892-11.32v-2.08h-1.32v2.08zm0 11.32V201h-1.32v9.6zm4.841 0v-5.56c0-1.66.82-3.14 2.84-3.14 1.66 0 2.38.96 2.38 2.52v6.18h1.32v-6.48c0-2.2-1.28-3.32-3.18-3.32-1.92 0-3.02 1.32-3.36 2.88V201h-1.32v9.6zm13.608-2.96c2.24 0 3.72-1.42 3.72-3.42 0-1.18-.52-2.16-1.42-2.78l1.72-2.06-1.38-.52-.78 2.32c-.54-.24-1.16-.38-1.86-.38-2.22 0-3.72 1.42-3.72 3.42 0 1.22.56 2.22 1.48 2.82-.8.62-1.4 1.42-1.4 2.2 0 .58.32 1.04.98 1.22-.76.3-1.72.92-1.72 1.92 0 1.32 1.52 2.14 3.96 2.14 3.08 0 4.92-1.28 4.92-3.06 0-1.4-1.04-2.08-2.72-2.08h-2.98c-1.04 0-1.36-.32-1.36-.86 0-.46.3-.96.6-1.32.56.28 1.22.44 1.96.44m0-1.02c-1.42 0-2.44-.94-2.44-2.4s1.02-2.4 2.44-2.4c1.44 0 2.46.94 2.46 2.4s-1.02 2.4-2.46 2.4m-.42 6.86c-1.82 0-2.88-.54-2.88-1.48 0-.62.52-1.18 1-1.48h3.9c1.14 0 1.68.34 1.68 1.1 0 1.1-1.38 1.86-3.7 1.86m14.573-2.88v-8.58h3.2V201h-3.2v-1.22c0-1.16.58-1.68 1.52-1.68.88 0 1.6.52 2 1.24l.7-.96c-.4-.66-1.32-1.38-2.68-1.38-1.64 0-2.84.94-2.84 2.88V201h-1.58v1.02h1.58v8.58zm7.319.2c1.92 0 3.16-1.48 3.48-2.86v1.02c0 1.22.64 1.64 1.6 1.64h.9v-1.18h-.56c-.46 0-.68-.18-.68-.68v-4.5c0-2.14-1.16-3.44-3.4-3.44-2.04 0-3.44 1.14-4.04 2.14l.92.92c.5-1.06 1.54-1.88 2.98-1.88 1.56 0 2.24.84 2.24 2.28v.08l-3.64 1.66c-1.34.6-2.28 1.4-2.28 2.66 0 1.28.9 2.14 2.48 2.14m-1.16-2.32c0-.72.48-1.2 1.52-1.68l3.12-1.48v1.7c0 1.3-1.32 2.68-3.1 2.68-.94 0-1.54-.42-1.54-1.22m13.368 2.32c1.78 0 3.34-.82 3.34-2.66 0-1.36-.8-2.18-2.8-2.68l-1.28-.32c-1.4-.34-2.12-.7-2.12-1.7s.82-1.54 1.98-1.54c1.5 0 2.5.72 2.94 2.02l1-.74c-.48-1.36-1.82-2.38-3.86-2.38-1.98 0-3.3 1.04-3.3 2.7 0 1.72 1.42 2.36 2.8 2.7l1.3.3c1.3.3 2.16.66 2.16 1.66s-.84 1.52-2.12 1.52c-1.94 0-3.14-1.08-3.44-2.38l-.98.74c.58 1.88 2.42 2.76 4.38 2.76m9.184.02c1.24 0 2.18-.58 2.6-1.28l-.46-1.28c-.32.68-1.02 1.3-1.88 1.3-.84 0-1.56-.38-1.56-1.76v-5.78h3.22V201h-3.22v-2.36l-1.3.98V201h-1.56v1.02h1.56v6.14c0 1.74 1.14 2.66 2.6 2.66m11.358-.22v-2.52c.32 1.48 1.36 2.74 3.2 2.74 2.52 0 4.02-1.98 4.02-5.02 0-3.02-1.5-5-4.02-5-1.84 0-2.88 1.26-3.2 2.74v-6.34h-1.32v13.4zm0-3.9v-1.8c0-1.6.86-3 2.8-3 1.76 0 3.08 1.22 3.08 3.9 0 2.7-1.32 3.92-3.08 3.92-1.94 0-2.8-1.42-2.8-3.02m11.501 3.9v-13.4h-1.32v13.4zm7.361.2c2.64 0 4.5-1.96 4.5-5s-1.86-5-4.5-5-4.48 1.96-4.48 5 1.84 5 4.48 5m0-1.12c-1.88 0-3.16-1.34-3.16-3.88 0-2.56 1.28-3.92 3.16-3.92 1.9 0 3.18 1.36 3.18 3.92 0 2.54-1.28 3.88-3.18 3.88m11.64 1.12c2.4 0 3.9-1.4 4.28-3.34l-1.26-.54c-.2 1.62-1.16 2.78-3 2.78-1.9 0-3.16-1.36-3.16-3.9 0-2.56 1.26-3.92 3.16-3.92 1.84 0 2.8 1.18 3 2.8l1.26-.54c-.38-1.94-1.88-3.34-4.26-3.34-2.72 0-4.5 1.88-4.5 5s1.78 5 4.48 5m8.511-.2v-3.52l1.8-1.7 3.26 5.22h1.6l-3.96-6 3.88-3.6h-1.66l-3.72 3.44-1.26 1.24.06-1.2v-7.28h-1.32v13.4zm12.597.2c2.4 0 3.9-1.4 4.28-3.34l-1.26-.54c-.2 1.62-1.16 2.78-3 2.78-1.9 0-3.16-1.36-3.16-3.9 0-2.56 1.26-3.92 3.16-3.92 1.84 0 2.8 1.18 3 2.8l1.26-.54c-.38-1.94-1.88-3.34-4.26-3.34-2.72 0-4.5 1.88-4.5 5s1.78 5 4.48 5m8.511-.2v-5.56c0-1.66.84-3.14 2.9-3.14 1.64 0 2.32.96 2.32 2.52v6.18h1.32v-6.48c0-2.2-1.24-3.32-3.1-3.32-1.96 0-3.1 1.32-3.44 2.88v-6.48h-1.32v13.4zm11.924.2c1.92 0 3.16-1.48 3.48-2.86v1.02c0 1.22.64 1.64 1.6 1.64h.9v-1.18h-.56c-.46 0-.68-.18-.68-.68v-4.5c0-2.14-1.16-3.44-3.4-3.44-2.04 0-3.44 1.14-4.04 2.14l.92.92c.5-1.06 1.54-1.88 2.98-1.88 1.56 0 2.24.84 2.24 2.28v.08l-3.64 1.66c-1.34.6-2.28 1.4-2.28 2.66 0 1.28.9 2.14 2.48 2.14m-1.16-2.32c0-.72.48-1.2 1.52-1.68l3.12-1.48v1.7c0 1.3-1.32 2.68-3.1 2.68-.94 0-1.54-.42-1.54-1.22m11.301-9.2v-2.08h-1.32v2.08zm0 11.32V201h-1.32v9.6zm4.841 0v-5.56c0-1.66.82-3.14 2.84-3.14 1.66 0 2.38.96 2.38 2.52v6.18h1.32v-6.48c0-2.2-1.28-3.32-3.18-3.32-1.92 0-3.02 1.32-3.36 2.88V201h-1.32v9.6zm18.58.6c-.9-1.02-2.44-3.72-2.44-7.3s1.56-6.28 2.44-7.3h-.98c-1.04.88-2.76 3.44-2.76 7.3s1.78 6.42 2.76 7.3zm5.904-.6v-13.4h-1.12c-.44.96-1.18 1.2-2.6 1.2v.92h2.4v11.28zm12.328 0v-1.16h-5.7l-1.68.08 1.36-1.18 2.62-2.54c1.2-1.16 3.12-3.02 3.12-5.18 0-2.04-1.2-3.62-3.8-3.62-3.06 0-4.96 2.12-4.68 4.76l1.22.78c-.34-2.68.94-4.28 3.38-4.28 1.82 0 2.54 1.2 2.54 2.44 0 1.58-1.18 2.86-2.56 4.24l-4.66 4.64v1.02zm7.791.2c3.6 0 5.3-3.02 5.3-6.92 0-3.86-1.7-6.88-5.3-6.88s-5.28 3.02-5.28 6.88c0 3.9 1.68 6.92 5.28 6.92m.02-1.24c-2.84 0-3.94-2.42-3.94-5.68 0-3.22 1.1-5.66 3.94-5.66s3.92 2.44 3.92 5.66c0 3.26-1.08 5.68-3.92 5.68m9.975 1.04v-4.38l2.68-2.84 4.8 7.22h1.62l-5.48-8.16 5.02-5.24h-1.66l-5.32 5.62-1.72 1.84.06-2.22v-5.24h-1.32v13.4zm21.242 0v-12.24h4.36v-1.16h-10.04v1.16h4.36v12.24zm7.441 0v-4.66h3.8c2.62 0 4.7-1.44 4.7-4.28 0-3.02-2.08-4.46-4.7-4.46h-5.12v13.4zm3.6-12.24c1.88 0 3.56.82 3.56 3.3 0 2.3-1.68 3.12-3.56 3.12h-3.6v-6.42zm12.518 12.42c2.46 0 4.4-1.28 4.4-3.62 0-2.46-1.86-3.26-3.92-3.74l-1.58-.38c-1.74-.42-2.72-1.02-2.72-2.48s1.3-2.3 2.92-2.3c1.94 0 3.38.88 4 2.76l1.1-.88c-.78-2.02-2.62-3.12-5.08-3.12-2.26 0-4.32 1.26-4.32 3.64 0 2.34 1.8 3.16 3.68 3.6l1.46.32c2.04.48 3.14 1.04 3.14 2.62 0 1.7-1.44 2.36-3.08 2.36-1.76 0-3.94-.84-4.58-3.14l-1.02.88c.86 2.48 3.18 3.48 5.6 3.48m7.815.42c.98-.88 2.76-3.44 2.76-7.3s-1.72-6.42-2.76-7.3h-.98c.88 1.02 2.44 3.72 2.44 7.3s-1.54 6.28-2.44 7.3zm13.018-.4c1.92 0 3.16-1.48 3.48-2.86v1.02c0 1.22.64 1.64 1.6 1.64h.9v-1.18h-.56c-.46 0-.68-.18-.68-.68v-4.5c0-2.14-1.16-3.44-3.4-3.44-2.04 0-3.44 1.14-4.04 2.14l.92.92c.5-1.06 1.54-1.88 2.98-1.88 1.56 0 2.24.84 2.24 2.28v.08l-3.64 1.66c-1.34.6-2.28 1.4-2.28 2.66 0 1.28.9 2.14 2.48 2.14m-1.16-2.32c0-.72.48-1.2 1.52-1.68l3.12-1.48v1.7c0 1.3-1.32 2.68-3.1 2.68-.94 0-1.54-.42-1.54-1.22m11.301 2.12v-5.56c0-1.66.82-3.14 2.84-3.14 1.66 0 2.38.96 2.38 2.52v6.18h1.32v-6.48c0-2.2-1.28-3.32-3.18-3.32-1.92 0-3.02 1.32-3.36 2.88V201h-1.32v9.6zm13.387.22c1.9 0 2.92-1.32 3.22-2.84v2.62h1.3v-13.4h-1.3v6.44c-.3-1.52-1.32-2.84-3.22-2.84-2.5 0-4 1.98-4 5 0 3.04 1.5 5.02 4 5.02m-2.66-5.02c0-2.68 1.32-3.9 3.06-3.9 1.94 0 2.82 1.4 2.82 3v1.8c0 1.6-.88 3.02-2.82 3.02-1.74 0-3.06-1.22-3.06-3.92m17.136-6.52v-2.08h-1.32v2.08zm0 11.32V201h-1.32v9.6zm6.661.22c1.24 0 2.18-.58 2.6-1.28l-.46-1.28c-.32.68-1.02 1.3-1.88 1.3-.84 0-1.56-.38-1.56-1.76v-5.78h3.22V201h-3.22v-2.36l-1.3.98V201h-1.56v1.02h1.56v6.14c0 1.74 1.14 2.66 2.6 2.66m11.358-.22v-5.56c0-1.66.84-3.14 2.9-3.14 1.64 0 2.32.96 2.32 2.52v6.18h1.32v-6.48c0-2.2-1.24-3.32-3.1-3.32-1.96 0-3.1 1.32-3.44 2.88v-6.48h-1.32v13.4zm11.925.2c1.92 0 3.16-1.48 3.48-2.86v1.02c0 1.22.64 1.64 1.6 1.64h.9v-1.18h-.56c-.46 0-.68-.18-.68-.68v-4.5c0-2.14-1.16-3.44-3.4-3.44-2.04 0-3.44 1.14-4.04 2.14l.92.92c.5-1.06 1.54-1.88 2.98-1.88 1.56 0 2.24.84 2.24 2.28v.08l-3.64 1.66c-1.34.6-2.28 1.4-2.28 2.66 0 1.28.9 2.14 2.48 2.14m-1.16-2.32c0-.72.48-1.2 1.52-1.68l3.12-1.48v1.7c0 1.3-1.32 2.68-3.1 2.68-.94 0-1.54-.42-1.54-1.22m13.367 2.32c1.78 0 3.34-.82 3.34-2.66 0-1.36-.8-2.18-2.8-2.68l-1.28-.32c-1.4-.34-2.12-.7-2.12-1.7s.82-1.54 1.98-1.54c1.5 0 2.5.72 2.94 2.02l1-.74c-.48-1.36-1.82-2.38-3.86-2.38-1.98 0-3.3 1.04-3.3 2.7 0 1.72 1.42 2.36 2.8 2.7l1.3.3c1.3.3 2.16.66 2.16 1.66s-.84 1.52-2.12 1.52c-1.94 0-3.14-1.08-3.44-2.38l-.98.74c.58 1.88 2.42 2.76 4.38 2.76m15.113-3.16c2.24 0 3.72-1.42 3.72-3.42 0-1.18-.52-2.16-1.42-2.78l1.72-2.06-1.38-.52-.78 2.32c-.54-.24-1.16-.38-1.86-.38-2.22 0-3.72 1.42-3.72 3.42 0 1.22.56 2.22 1.48 2.82-.8.62-1.4 1.42-1.4 2.2 0 .58.32 1.04.98 1.22-.76.3-1.72.92-1.72 1.92 0 1.32 1.52 2.14 3.96 2.14 3.08 0 4.92-1.28 4.92-3.06 0-1.4-1.04-2.08-2.72-2.08h-2.98c-1.04 0-1.36-.32-1.36-.86 0-.46.3-.96.6-1.32.56.28 1.22.44 1.96.44m0-1.02c-1.42 0-2.44-.94-2.44-2.4s1.02-2.4 2.44-2.4c1.44 0 2.46.94 2.46 2.4s-1.02 2.4-2.46 2.4m-.42 6.86c-1.82 0-2.88-.54-2.88-1.48 0-.62.52-1.18 1-1.48h3.9c1.14 0 1.68.34 1.68 1.1 0 1.1-1.38 1.86-3.7 1.86m10.5-2.68c1.98 0 3.06-1.34 3.4-2.94v2.74h1.3V201h-1.3v5.54c0 1.68-.8 3.14-2.88 3.14-1.64 0-2.36-.96-2.36-2.5V201h-1.3v6.46c0 2.22 1.26 3.34 3.14 3.34m10.165 0c1.92 0 3.16-1.48 3.48-2.86v1.02c0 1.22.64 1.64 1.6 1.64h.9v-1.18h-.56c-.46 0-.68-.18-.68-.68v-4.5c0-2.14-1.16-3.44-3.4-3.44-2.04 0-3.44 1.14-4.04 2.14l.92.92c.5-1.06 1.54-1.88 2.98-1.88 1.56 0 2.24.84 2.24 2.28v.08l-3.64 1.66c-1.34.6-2.28 1.4-2.28 2.66 0 1.28.9 2.14 2.48 2.14m-1.16-2.32c0-.72.48-1.2 1.52-1.68l3.12-1.48v1.7c0 1.3-1.32 2.68-3.1 2.68-.94 0-1.54-.42-1.54-1.22m11.3 2.12v-5.56c0-1.66 1.14-3.26 2.58-3.26.88 0 1.24.56 1.24 1.18 0 .58-.24 1.2-.5 1.5h1.42c.18-.32.36-.92.36-1.64 0-1.32-.92-2.04-2.04-2.04-1.64 0-2.7 1.32-3.06 2.84V201h-1.32v9.6zm9.366.2c1.92 0 3.16-1.48 3.48-2.86v1.02c0 1.22.64 1.64 1.6 1.64h.9v-1.18h-.56c-.46 0-.68-.18-.68-.68v-4.5c0-2.14-1.16-3.44-3.4-3.44-2.04 0-3.44 1.14-4.04 2.14l.92.92c.5-1.06 1.54-1.88 2.98-1.88 1.56 0 2.24.84 2.24 2.28v.08l-3.64 1.66c-1.34.6-2.28 1.4-2.28 2.66 0 1.28.9 2.14 2.48 2.14m-1.16-2.32c0-.72.48-1.2 1.52-1.68l3.12-1.48v1.7c0 1.3-1.32 2.68-3.1 2.68-.94 0-1.54-.42-1.54-1.22m11.301 2.12v-5.56c0-1.66.82-3.14 2.84-3.14 1.66 0 2.38.96 2.38 2.52v6.18h1.32v-6.48c0-2.2-1.28-3.32-3.18-3.32-1.92 0-3.02 1.32-3.36 2.88V201h-1.32v9.6zm12.833.22c1.24 0 2.18-.58 2.6-1.28l-.46-1.28c-.32.68-1.02 1.3-1.88 1.3-.84 0-1.56-.38-1.56-1.76v-5.78h3.22V201h-3.22v-2.36l-1.3.98V201h-1.56v1.02h1.56v6.14c0 1.74 1.14 2.66 2.6 2.66m8.377-.02c2.04 0 3.32-.98 4-2.16l-.8-.94c-.42.94-1.26 2-3.2 2-1.9 0-3.2-1.2-3.28-3.6h7.32c.02-.16.06-.4.06-.64 0-2.9-1.64-4.66-4.26-4.66-2.6 0-4.38 1.88-4.38 5 0 3.18 1.86 5 4.54 5m-.16-8.92c1.76 0 2.94 1.1 3.06 3.26h-6.16c.18-2.16 1.34-3.26 3.1-3.26m11.505 8.92c2.04 0 3.32-.98 4-2.16l-.8-.94c-.42.94-1.26 2-3.2 2-1.9 0-3.2-1.2-3.28-3.6h7.32c.02-.16.06-.4.06-.64 0-2.9-1.64-4.66-4.26-4.66-2.6 0-4.38 1.88-4.38 5 0 3.18 1.86 5 4.54 5m-.16-8.92c1.76 0 2.94 1.1 3.06 3.26h-6.16c.18-2.16 1.34-3.26 3.1-3.26m10.925 8.94c1.9 0 2.92-1.32 3.22-2.84v2.62h1.3v-13.4h-1.3v6.44c-.3-1.52-1.32-2.84-3.22-2.84-2.5 0-4 1.98-4 5 0 3.04 1.5 5.02 4 5.02m-2.66-5.02c0-2.68 1.32-3.9 3.06-3.9 1.94 0 2.82 1.4 2.82 3v1.8c0 1.6-.88 3.02-2.82 3.02-1.74 0-3.06-1.22-3.06-3.92m-662.97 37.8 1.62-4.12h6.02l1.62 4.12h1.46l-5.38-13.4h-1.34l-5.38 13.4zm3.94-9.98.7-2.08.7 2.08 1.84 4.7h-5.1zm10.055 9.98v-13.4h-1.32v13.4zm7.613-5.38v-.94h-4.48v.94zm4.35 5.38v-2.52c.32 1.48 1.36 2.74 3.2 2.74 2.52 0 4.02-1.98 4.02-5.02 0-3.02-1.5-5-4.02-5-1.84 0-2.88 1.26-3.2 2.74v-6.34h-1.32v13.4zm0-3.9v-1.8c0-1.6.86-3 2.8-3 1.76 0 3.08 1.22 3.08 3.9 0 2.7-1.32 3.92-3.08 3.92-1.94 0-2.8-1.42-2.8-3.02m12.12 4.1c1.92 0 3.16-1.48 3.48-2.86v1.02c0 1.22.64 1.64 1.6 1.64h.9v-1.18h-.56c-.46 0-.68-.18-.68-.68v-4.5c0-2.14-1.16-3.44-3.4-3.44-2.04 0-3.44 1.14-4.04 2.14l.92.92c.5-1.06 1.54-1.88 2.98-1.88 1.56 0 2.24.84 2.24 2.28v.08l-3.64 1.66c-1.34.6-2.28 1.4-2.28 2.66 0 1.28.9 2.14 2.48 2.14m-1.16-2.32c0-.72.48-1.2 1.52-1.68l3.12-1.48v1.7c0 1.3-1.32 2.68-3.1 2.68-.94 0-1.54-.42-1.54-1.22m13.367 2.32c1.78 0 3.34-.82 3.34-2.66 0-1.36-.8-2.18-2.8-2.68l-1.28-.32c-1.4-.34-2.12-.7-2.12-1.7s.82-1.54 1.98-1.54c1.5 0 2.5.72 2.94 2.02l1-.74c-.48-1.36-1.82-2.38-3.86-2.38-1.98 0-3.3 1.04-3.3 2.7 0 1.72 1.42 2.36 2.8 2.7l1.3.3c1.3.3 2.16.66 2.16 1.66s-.84 1.52-2.12 1.52c-1.94 0-3.14-1.08-3.44-2.38l-.98.74c.58 1.88 2.42 2.76 4.38 2.76m10.083 0c2.04 0 3.32-.98 4-2.16l-.8-.94c-.42.94-1.26 2-3.2 2-1.9 0-3.2-1.2-3.28-3.6h7.32c.02-.16.06-.4.06-.64 0-2.9-1.64-4.66-4.26-4.66-2.6 0-4.38 1.88-4.38 5 0 3.18 1.86 5 4.54 5m-.16-8.92c1.76 0 2.94 1.1 3.06 3.26h-6.16c.18-2.16 1.34-3.26 3.1-3.26m10.925 8.94c1.9 0 2.92-1.32 3.22-2.84v2.62h1.3v-13.4h-1.3v6.44c-.3-1.52-1.32-2.84-3.22-2.84-2.5 0-4 1.98-4 5 0 3.04 1.5 5.02 4 5.02m-2.66-5.02c0-2.68 1.32-3.9 3.06-3.9 1.94 0 2.82 1.4 2.82 3v1.8c0 1.6-.88 3.02-2.82 3.02-1.74 0-3.06-1.22-3.06-3.92m19.257 5.02c1.9 0 2.92-1.32 3.22-2.84v2.62h1.3v-13.4h-1.3v6.44c-.3-1.52-1.32-2.84-3.22-2.84-2.5 0-4 1.98-4 5 0 3.04 1.5 5.02 4 5.02m-2.66-5.02c0-2.68 1.32-3.9 3.06-3.9 1.94 0 2.82 1.4 2.82 3v1.8c0 1.6-.88 3.02-2.82 3.02-1.74 0-3.06-1.22-3.06-3.92m12.581 5c1.92 0 3.16-1.48 3.48-2.86v1.02c0 1.22.64 1.64 1.6 1.64h.9v-1.18h-.56c-.46 0-.68-.18-.68-.68v-4.5c0-2.14-1.16-3.44-3.4-3.44-2.04 0-3.44 1.14-4.04 2.14l.92.92c.5-1.06 1.54-1.88 2.98-1.88 1.56 0 2.24.84 2.24 2.28v.08l-3.64 1.66c-1.34.6-2.28 1.4-2.28 2.66 0 1.28.9 2.14 2.48 2.14m-1.16-2.32c0-.72.48-1.2 1.52-1.68l3.12-1.48v1.7c0 1.3-1.32 2.68-3.1 2.68-.94 0-1.54-.42-1.54-1.22m12.828 2.34c1.24 0 2.18-.58 2.6-1.28l-.46-1.28c-.32.68-1.02 1.3-1.88 1.3-.84 0-1.56-.38-1.56-1.76v-5.78h3.22V234h-3.22v-2.36l-1.3.98V234h-1.56v1.02h1.56v6.14c0 1.74 1.14 2.66 2.6 2.66m6.667-.02c1.92 0 3.16-1.48 3.48-2.86v1.02c0 1.22.64 1.64 1.6 1.64h.9v-1.18h-.56c-.46 0-.68-.18-.68-.68v-4.5c0-2.14-1.16-3.44-3.4-3.44-2.04 0-3.44 1.14-4.04 2.14l.92.92c.5-1.06 1.54-1.88 2.98-1.88 1.56 0 2.24.84 2.24 2.28v.08l-3.64 1.66c-1.34.6-2.28 1.4-2.28 2.66 0 1.28.9 2.14 2.48 2.14m-1.16-2.32c0-.72.48-1.2 1.52-1.68l3.12-1.48v1.7c0 1.3-1.32 2.68-3.1 2.68-.94 0-1.54-.42-1.54-1.22m18.775 2.32c1.78 0 3.34-.82 3.34-2.66 0-1.36-.8-2.18-2.8-2.68l-1.28-.32c-1.4-.34-2.12-.7-2.12-1.7s.82-1.54 1.98-1.54c1.5 0 2.5.72 2.94 2.02l1-.74c-.48-1.36-1.82-2.38-3.86-2.38-1.98 0-3.3 1.04-3.3 2.7 0 1.72 1.42 2.36 2.8 2.7l1.3.3c1.3.3 2.16.66 2.16 1.66s-.84 1.52-2.12 1.52c-1.94 0-3.14-1.08-3.44-2.38l-.98.74c.58 1.88 2.42 2.76 4.38 2.76m10.083 0c2.04 0 3.32-.98 4-2.16l-.8-.94c-.42.94-1.26 2-3.2 2-1.9 0-3.2-1.2-3.28-3.6h7.32c.02-.16.06-.4.06-.64 0-2.9-1.64-4.66-4.26-4.66-2.6 0-4.38 1.88-4.38 5 0 3.18 1.86 5 4.54 5m-.16-8.92c1.76 0 2.94 1.1 3.06 3.26h-6.16c.18-2.16 1.34-3.26 3.1-3.26m11.405 8.92c2.4 0 3.9-1.4 4.28-3.34l-1.26-.54c-.2 1.62-1.16 2.78-3 2.78-1.9 0-3.16-1.36-3.16-3.9 0-2.56 1.26-3.92 3.16-3.92 1.84 0 2.8 1.18 3 2.8l1.26-.54c-.38-1.94-1.88-3.34-4.26-3.34-2.72 0-4.5 1.88-4.5 5s1.78 5 4.48 5m10.056 0c1.98 0 3.06-1.34 3.4-2.94v2.74h1.3V234h-1.3v5.54c0 1.68-.8 3.14-2.88 3.14-1.64 0-2.36-.96-2.36-2.5V234h-1.3v6.46c0 2.22 1.26 3.34 3.14 3.34m9.546-.2v-5.56c0-1.66 1.14-3.26 2.58-3.26.88 0 1.24.56 1.24 1.18 0 .58-.24 1.2-.5 1.5h1.42c.18-.32.36-.92.36-1.64 0-1.32-.92-2.04-2.04-2.04-1.64 0-2.7 1.32-3.06 2.84V234h-1.32v9.6zm8.943-11.32v-2.08h-1.32v2.08zm0 11.32V234h-1.32v9.6zm6.661.22c1.24 0 2.18-.58 2.6-1.28l-.46-1.28c-.32.68-1.02 1.3-1.88 1.3-.84 0-1.56-.38-1.56-1.76v-5.78h3.22V234h-3.22v-2.36l-1.3.98V234h-1.56v1.02h1.56v6.14c0 1.74 1.14 2.66 2.6 2.66m5.554 3.16c1.3 0 2.24-.7 2.8-2.24l4.06-10.74h-1.38l-2.4 6.58-.7 1.98-.68-1.98-2.42-6.58h-1.4l3.52 9.28.74-.02-.36.96c-.42 1.18-.98 1.6-1.76 1.6-.88 0-1.42-.54-1.82-1.32l-.74.96c.36.72 1.24 1.52 2.54 1.52m9.356-3.38v-2.36h-1.58v2.36zm9.768 0v-4.66h3.8c2.62 0 4.7-1.44 4.7-4.28 0-3.02-2.08-4.46-4.7-4.46h-5.12v13.4zm3.6-12.24c1.88 0 3.56.82 3.56 3.3 0 2.3-1.68 3.12-3.56 3.12h-3.6v-6.42zm8.599 12.24v-5.56c0-1.66 1.14-3.26 2.58-3.26.88 0 1.24.56 1.24 1.18 0 .58-.24 1.2-.5 1.5h1.42c.18-.32.36-.92.36-1.64 0-1.32-.92-2.04-2.04-2.04-1.64 0-2.7 1.32-3.06 2.84V234h-1.32v9.6zm11.151.2c2.64 0 4.5-1.96 4.5-5s-1.86-5-4.5-5-4.48 1.96-4.48 5 1.84 5 4.48 5m0-1.12c-1.88 0-3.16-1.34-3.16-3.88 0-2.56 1.28-3.92 3.16-3.92 1.9 0 3.18 1.36 3.18 3.92 0 2.54-1.28 3.88-3.18 3.88m11.559 1.12c2.64 0 4.5-1.96 4.5-5s-1.86-5-4.5-5-4.48 1.96-4.48 5 1.84 5 4.48 5m0-1.12c-1.88 0-3.16-1.34-3.16-3.88 0-2.56 1.28-3.92 3.16-3.92 1.9 0 3.18 1.36 3.18 3.92 0 2.54-1.28 3.88-3.18 3.88m9.368.92v-8.58h3.2V234h-3.2v-1.22c0-1.16.58-1.68 1.52-1.68.88 0 1.6.52 2 1.24l.7-.96c-.4-.66-1.32-1.38-2.68-1.38-1.64 0-2.84.94-2.84 2.88V234h-1.58v1.02h1.58v8.58zm14.316.2c2.64 0 4.5-1.96 4.5-5s-1.86-5-4.5-5-4.48 1.96-4.48 5 1.84 5 4.48 5m0-1.12c-1.88 0-3.16-1.34-3.16-3.88 0-2.56 1.28-3.92 3.16-3.92 1.9 0 3.18 1.36 3.18 3.92 0 2.54-1.28 3.88-3.18 3.88m9.368.92v-8.58h3.2V234h-3.2v-1.22c0-1.16.58-1.68 1.52-1.68.88 0 1.6.52 2 1.24l.7-.96c-.4-.66-1.32-1.38-2.68-1.38-1.64 0-2.84.94-2.84 2.88V234h-1.58v1.02h1.58v8.58zm15.635.18c2.46 0 4.4-1.28 4.4-3.62 0-2.46-1.86-3.26-3.92-3.74l-1.58-.38c-1.74-.42-2.72-1.02-2.72-2.48s1.3-2.3 2.92-2.3c1.94 0 3.38.88 4 2.76l1.1-.88c-.78-2.02-2.62-3.12-5.08-3.12-2.26 0-4.32 1.26-4.32 3.64 0 2.34 1.8 3.16 3.68 3.6l1.46.32c2.04.48 3.14 1.04 3.14 2.62 0 1.7-1.44 2.36-3.08 2.36-1.76 0-3.94-.84-4.58-3.14l-1.02.88c.86 2.48 3.18 3.48 5.6 3.48m10.282.04c1.24 0 2.18-.58 2.6-1.28l-.46-1.28c-.32.68-1.02 1.3-1.88 1.3-.84 0-1.56-.38-1.56-1.76v-5.78h3.22V234h-3.22v-2.36l-1.3.98V234h-1.56v1.02h1.56v6.14c0 1.74 1.14 2.66 2.6 2.66m6.667-.02c1.92 0 3.16-1.48 3.48-2.86v1.02c0 1.22.64 1.64 1.6 1.64h.9v-1.18h-.56c-.46 0-.68-.18-.68-.68v-4.5c0-2.14-1.16-3.44-3.4-3.44-2.04 0-3.44 1.14-4.04 2.14l.92.92c.5-1.06 1.54-1.88 2.98-1.88 1.56 0 2.24.84 2.24 2.28v.08l-3.64 1.66c-1.34.6-2.28 1.4-2.28 2.66 0 1.28.9 2.14 2.48 2.14m-1.16-2.32c0-.72.48-1.2 1.52-1.68l3.12-1.48v1.7c0 1.3-1.32 2.68-3.1 2.68-.94 0-1.54-.42-1.54-1.22m11.301 2.12v-3.52l1.8-1.7 3.26 5.22h1.6l-3.96-6 3.88-3.6h-1.66l-3.72 3.44-1.26 1.24.06-1.2v-7.28h-1.32v13.4zm12.697.2c2.04 0 3.32-.98 4-2.16l-.8-.94c-.42.94-1.26 2-3.2 2-1.9 0-3.2-1.2-3.28-3.6h7.32c.02-.16.06-.4.06-.64 0-2.9-1.64-4.66-4.26-4.66-2.6 0-4.38 1.88-4.38 5 0 3.18 1.86 5 4.54 5m-.16-8.92c1.76 0 2.94 1.1 3.06 3.26h-6.16c.18-2.16 1.34-3.26 3.1-3.26m6.993 10.42c1.04-.14 1.36-.64 1.36-1.62v-2.44h-1.58v2.36h.74v.26c0 .52-.26.64-.82.72zm10.928-13.02v-2.08h-1.32v2.08zm0 11.32V234h-1.32v9.6zm6.661.22c1.24 0 2.18-.58 2.6-1.28l-.46-1.28c-.32.68-1.02 1.3-1.88 1.3-.84 0-1.56-.38-1.56-1.76v-5.78h3.22V234h-3.22v-2.36l-1.3.98V234h-1.56v1.02h1.56v6.14c0 1.74 1.14 2.66 2.6 2.66m8.33-.02c1.78 0 3.34-.82 3.34-2.66 0-1.36-.8-2.18-2.8-2.68l-1.28-.32c-1.4-.34-2.12-.7-2.12-1.7s.82-1.54 1.98-1.54c1.5 0 2.5.72 2.94 2.02l1-.74c-.48-1.36-1.82-2.38-3.86-2.38-1.98 0-3.3 1.04-3.3 2.7 0 1.72 1.42 2.36 2.8 2.7l1.3.3c1.3.3 2.16.66 2.16 1.66s-.84 1.52-2.12 1.52c-1.94 0-3.14-1.08-3.44-2.38l-.98.74c.58 1.88 2.42 2.76 4.38 2.76m15.313 0c2.4 0 3.9-1.4 4.28-3.34l-1.26-.54c-.2 1.62-1.16 2.78-3 2.78-1.9 0-3.16-1.36-3.16-3.9 0-2.56 1.26-3.92 3.16-3.92 1.84 0 2.8 1.18 3 2.8l1.26-.54c-.38-1.94-1.88-3.34-4.26-3.34-2.72 0-4.5 1.88-4.5 5s1.78 5 4.48 5m10.972 0c2.64 0 4.5-1.96 4.5-5s-1.86-5-4.5-5-4.48 1.96-4.48 5 1.84 5 4.48 5m0-1.12c-1.88 0-3.16-1.34-3.16-3.88 0-2.56 1.28-3.92 3.16-3.92 1.9 0 3.18 1.36 3.18 3.92 0 2.54-1.28 3.88-3.18 3.88m8.845.92v-5.56c0-1.66.82-3.14 2.84-3.14 1.66 0 2.38.96 2.38 2.52v6.18h1.32v-6.48c0-2.2-1.28-3.32-3.18-3.32-1.92 0-3.02 1.32-3.36 2.88V234h-1.32v9.6zm13.373.2c1.78 0 3.34-.82 3.34-2.66 0-1.36-.8-2.18-2.8-2.68l-1.28-.32c-1.4-.34-2.12-.7-2.12-1.7s.82-1.54 1.98-1.54c1.5 0 2.5.72 2.94 2.02l1-.74c-.48-1.36-1.82-2.38-3.86-2.38-1.98 0-3.3 1.04-3.3 2.7 0 1.72 1.42 2.36 2.8 2.7l1.3.3c1.3.3 2.16.66 2.16 1.66s-.84 1.52-2.12 1.52c-1.94 0-3.14-1.08-3.44-2.38l-.98.74c.58 1.88 2.42 2.76 4.38 2.76m10.083 0c2.04 0 3.32-.98 4-2.16l-.8-.94c-.42.94-1.26 2-3.2 2-1.9 0-3.2-1.2-3.28-3.6h7.32c.02-.16.06-.4.06-.64 0-2.9-1.64-4.66-4.26-4.66-2.6 0-4.38 1.88-4.38 5 0 3.18 1.86 5 4.54 5m-.16-8.92c1.76 0 2.94 1.1 3.06 3.26h-6.16c.18-2.16 1.34-3.26 3.1-3.26m8.61 8.72v-5.56c0-1.66.82-3.14 2.84-3.14 1.66 0 2.38.96 2.38 2.52v6.18h1.32v-6.48c0-2.2-1.28-3.32-3.18-3.32-1.92 0-3.02 1.32-3.36 2.88V234h-1.32v9.6zm13.373.2c1.78 0 3.34-.82 3.34-2.66 0-1.36-.8-2.18-2.8-2.68l-1.28-.32c-1.4-.34-2.12-.7-2.12-1.7s.82-1.54 1.98-1.54c1.5 0 2.5.72 2.94 2.02l1-.74c-.48-1.36-1.82-2.38-3.86-2.38-1.98 0-3.3 1.04-3.3 2.7 0 1.72 1.42 2.36 2.8 2.7l1.3.3c1.3.3 2.16.66 2.16 1.66s-.84 1.52-2.12 1.52c-1.94 0-3.14-1.08-3.44-2.38l-.98.74c.58 1.88 2.42 2.76 4.38 2.76m9.143 0c1.98 0 3.06-1.34 3.4-2.94v2.74h1.3V234h-1.3v5.54c0 1.68-.8 3.14-2.88 3.14-1.64 0-2.36-.96-2.36-2.5V234h-1.3v6.46c0 2.22 1.26 3.34 3.14 3.34m11.613 0c1.78 0 3.34-.82 3.34-2.66 0-1.36-.8-2.18-2.8-2.68l-1.28-.32c-1.4-.34-2.12-.7-2.12-1.7s.82-1.54 1.98-1.54c1.5 0 2.5.72 2.94 2.02l1-.74c-.48-1.36-1.82-2.38-3.86-2.38-1.98 0-3.3 1.04-3.3 2.7 0 1.72 1.42 2.36 2.8 2.7l1.3.3c1.3.3 2.16.66 2.16 1.66s-.84 1.52-2.12 1.52c-1.94 0-3.14-1.08-3.44-2.38l-.98.74c.58 1.88 2.42 2.76 4.38 2.76m13.273 0c1.92 0 3.16-1.48 3.48-2.86v1.02c0 1.22.64 1.64 1.6 1.64h.9v-1.18h-.56c-.46 0-.68-.18-.68-.68v-4.5c0-2.14-1.16-3.44-3.4-3.44-2.04 0-3.44 1.14-4.04 2.14l.92.92c.5-1.06 1.54-1.88 2.98-1.88 1.56 0 2.24.84 2.24 2.28v.08l-3.64 1.66c-1.34.6-2.28 1.4-2.28 2.66 0 1.28.9 2.14 2.48 2.14m-1.16-2.32c0-.72.48-1.2 1.52-1.68l3.12-1.48v1.7c0 1.3-1.32 2.68-3.1 2.68-.94 0-1.54-.42-1.54-1.22m11.3 2.12v-13.4h-1.32v13.4zm7.242-2.96c2.24 0 3.72-1.42 3.72-3.42 0-1.18-.52-2.16-1.42-2.78l1.72-2.06-1.38-.52-.78 2.32c-.54-.24-1.16-.38-1.86-.38-2.22 0-3.72 1.42-3.72 3.42 0 1.22.56 2.22 1.48 2.82-.8.62-1.4 1.42-1.4 2.2 0 .58.32 1.04.98 1.22-.76.3-1.72.92-1.72 1.92 0 1.32 1.52 2.14 3.96 2.14 3.08 0 4.92-1.28 4.92-3.06 0-1.4-1.04-2.08-2.72-2.08h-2.98c-1.04 0-1.36-.32-1.36-.86 0-.46.3-.96.6-1.32.56.28 1.22.44 1.96.44m0-1.02c-1.42 0-2.44-.94-2.44-2.4s1.02-2.4 2.44-2.4c1.44 0 2.46.94 2.46 2.4s-1.02 2.4-2.46 2.4m-.42 6.86c-1.82 0-2.88-.54-2.88-1.48 0-.62.52-1.18 1-1.48h3.9c1.14 0 1.68.34 1.68 1.1 0 1.1-1.38 1.86-3.7 1.86m11.181-2.68c2.64 0 4.5-1.96 4.5-5s-1.86-5-4.5-5-4.48 1.96-4.48 5 1.84 5 4.48 5m0-1.12c-1.88 0-3.16-1.34-3.16-3.88 0-2.56 1.28-3.92 3.16-3.92 1.9 0 3.18 1.36 3.18 3.92 0 2.54-1.28 3.88-3.18 3.88m8.845.92v-5.56c0-1.66 1.14-3.26 2.58-3.26.88 0 1.24.56 1.24 1.18 0 .58-.24 1.2-.5 1.5h1.42c.18-.32.36-.92.36-1.64 0-1.32-.92-2.04-2.04-2.04-1.64 0-2.7 1.32-3.06 2.84V234h-1.32v9.6zm8.943-11.32v-2.08h-1.32v2.08zm0 11.32V234h-1.32v9.6zm6.661.22c1.24 0 2.18-.58 2.6-1.28l-.46-1.28c-.32.68-1.02 1.3-1.88 1.3-.84 0-1.56-.38-1.56-1.76v-5.78h3.22V234h-3.22v-2.36l-1.3.98V234h-1.56v1.02h1.56v6.14c0 1.74 1.14 2.66 2.6 2.66m6.419-.22v-5.56c0-1.66.84-3.14 2.9-3.14 1.64 0 2.32.96 2.32 2.52v6.18h1.32v-6.48c0-2.2-1.24-3.32-3.1-3.32-1.96 0-3.1 1.32-3.44 2.88v-6.48h-1.32v13.4zm11.306 0v-5.56c0-1.66.82-3.14 2.52-3.14 1.5 0 2.24.82 2.24 2.5v6.2h1.3v-5.56c0-1.66.82-3.14 2.54-3.14 1.48 0 2.22.82 2.22 2.5v6.2h1.32v-6.5c0-2.2-1.04-3.3-2.88-3.3-1.8 0-2.9 1.34-3.22 2.92-.1-1.94-1.12-2.92-2.86-2.92-1.78 0-2.84 1.3-3.18 2.88V234h-1.32v9.6zm24.707.2c2.04 0 3.32-.98 4-2.16l-.8-.94c-.42.94-1.26 2-3.2 2-1.9 0-3.2-1.2-3.28-3.6h7.32c.02-.16.06-.4.06-.64 0-2.9-1.64-4.66-4.26-4.66-2.6 0-4.38 1.88-4.38 5 0 3.18 1.86 5 4.54 5m-.16-8.92c1.76 0 2.94 1.1 3.06 3.26h-6.16c.18-2.16 1.34-3.26 3.1-3.26m8.609 8.72v-5.56c0-1.66.82-3.14 2.84-3.14 1.66 0 2.38.96 2.38 2.52v6.18h1.32v-6.48c0-2.2-1.28-3.32-3.18-3.32-1.92 0-3.02 1.32-3.36 2.88V234h-1.32v9.6zm11.925.2c1.92 0 3.16-1.48 3.48-2.86v1.02c0 1.22.64 1.64 1.6 1.64h.9v-1.18h-.56c-.46 0-.68-.18-.68-.68v-4.5c0-2.14-1.16-3.44-3.4-3.44-2.04 0-3.44 1.14-4.04 2.14l.92.92c.5-1.06 1.54-1.88 2.98-1.88 1.56 0 2.24.84 2.24 2.28v.08l-3.64 1.66c-1.34.6-2.28 1.4-2.28 2.66 0 1.28.9 2.14 2.48 2.14m-1.16-2.32c0-.72.48-1.2 1.52-1.68l3.12-1.48v1.7c0 1.3-1.32 2.68-3.1 2.68-.94 0-1.54-.42-1.54-1.22m11.3 2.12v-2.52c.32 1.48 1.36 2.74 3.2 2.74 2.52 0 4.02-1.98 4.02-5.02 0-3.02-1.5-5-4.02-5-1.84 0-2.88 1.26-3.2 2.74v-6.34h-1.32v13.4zm0-3.9v-1.8c0-1.6.86-3 2.8-3 1.76 0 3.08 1.22 3.08 3.9 0 2.7-1.32 3.92-3.08 3.92-1.94 0-2.8-1.42-2.8-3.02m11.501 3.9v-13.4h-1.32v13.4zm7.542.2c2.04 0 3.32-.98 4-2.16l-.8-.94c-.42.94-1.26 2-3.2 2-1.9 0-3.2-1.2-3.28-3.6h7.32c.02-.16.06-.4.06-.64 0-2.9-1.64-4.66-4.26-4.66-2.6 0-4.38 1.88-4.38 5 0 3.18 1.86 5 4.54 5m-.16-8.92c1.76 0 2.94 1.1 3.06 3.26h-6.16c.18-2.16 1.34-3.26 3.1-3.26m10.833 8.92c1.78 0 3.34-.82 3.34-2.66 0-1.36-.8-2.18-2.8-2.68l-1.28-.32c-1.4-.34-2.12-.7-2.12-1.7s.82-1.54 1.98-1.54c1.5 0 2.5.72 2.94 2.02l1-.74c-.48-1.36-1.82-2.38-3.86-2.38-1.98 0-3.3 1.04-3.3 2.7 0 1.72 1.42 2.36 2.8 2.7l1.3.3c1.3.3 2.16.66 2.16 1.66s-.84 1.52-2.12 1.52c-1.94 0-3.14-1.08-3.44-2.38l-.98.74c.58 1.88 2.42 2.76 4.38 2.76m-393.603 33c1.98 0 3.06-1.34 3.4-2.94v2.74h1.3V267h-1.3v5.54c0 1.68-.8 3.14-2.88 3.14-1.64 0-2.36-.96-2.36-2.5V267h-1.3v6.46c0 2.22 1.26 3.34 3.14 3.34m9.546-.2v-5.56c0-1.66.82-3.14 2.84-3.14 1.66 0 2.38.96 2.38 2.52v6.18h1.32v-6.48c0-2.2-1.28-3.32-3.18-3.32-1.92 0-3.02 1.32-3.36 2.88V267h-1.32v9.6zm11.306 0v-13.4h-1.32v13.4zm4.841-11.32v-2.08h-1.32v2.08zm0 11.32V267h-1.32v9.6zm4.841 0v-5.56c0-1.66.82-3.14 2.52-3.14 1.5 0 2.24.82 2.24 2.5v6.2h1.3v-5.56c0-1.66.82-3.14 2.54-3.14 1.48 0 2.22.82 2.22 2.5v6.2h1.32v-6.5c0-2.2-1.04-3.3-2.88-3.3-1.8 0-2.9 1.34-3.22 2.92-.1-1.94-1.12-2.92-2.86-2.92-1.78 0-2.84 1.3-3.18 2.88V267h-1.32v9.6zm16.892-11.32v-2.08h-1.32v2.08zm0 11.32V267h-1.32v9.6zm6.661.22c1.24 0 2.18-.58 2.6-1.28l-.46-1.28c-.32.68-1.02 1.3-1.88 1.3-.84 0-1.56-.38-1.56-1.76v-5.78h3.22V267h-3.22v-2.36l-1.3.98V267h-1.56v1.02h1.56v6.14c0 1.74 1.14 2.66 2.6 2.66m8.378-.02c2.04 0 3.32-.98 4-2.16l-.8-.94c-.42.94-1.26 2-3.2 2-1.9 0-3.2-1.2-3.28-3.6h7.32c.02-.16.06-.4.06-.64 0-2.9-1.64-4.66-4.26-4.66-2.6 0-4.38 1.88-4.38 5 0 3.18 1.86 5 4.54 5m-.16-8.92c1.76 0 2.94 1.1 3.06 3.26h-6.16c.18-2.16 1.34-3.26 3.1-3.26m10.925 8.94c1.9 0 2.92-1.32 3.22-2.84v2.62h1.3v-13.4h-1.3v6.44c-.3-1.52-1.32-2.84-3.22-2.84-2.5 0-4 1.98-4 5 0 3.04 1.5 5.02 4 5.02m-2.66-5.02c0-2.68 1.32-3.9 3.06-3.9 1.94 0 2.82 1.4 2.82 3v1.8c0 1.6-.88 3.02-2.82 3.02-1.74 0-3.06-1.22-3.06-3.92m19.496 5c1.78 0 3.34-.82 3.34-2.66 0-1.36-.8-2.18-2.8-2.68l-1.28-.32c-1.4-.34-2.12-.7-2.12-1.7s.82-1.54 1.98-1.54c1.5 0 2.5.72 2.94 2.02l1-.74c-.48-1.36-1.82-2.38-3.86-2.38-1.98 0-3.3 1.04-3.3 2.7 0 1.72 1.42 2.36 2.8 2.7l1.3.3c1.3.3 2.16.66 2.16 1.66s-.84 1.52-2.12 1.52c-1.94 0-3.14-1.08-3.44-2.38l-.98.74c.58 1.88 2.42 2.76 4.38 2.76m7.598 3.52v-6.26c.32 1.48 1.36 2.74 3.2 2.74 2.5 0 4-1.98 4-5.02 0-3.02-1.5-5.02-4-5.02-1.84 0-2.88 1.26-3.2 2.76V267h-1.32v13.32zm0-7.64v-1.8c0-1.6.86-3 2.8-3 1.74 0 3.06 1.2 3.06 3.9s-1.32 3.9-3.06 3.9c-1.94 0-2.8-1.4-2.8-3m14.338 4.12c2.04 0 3.32-.98 4-2.16l-.8-.94c-.42.94-1.26 2-3.2 2-1.9 0-3.2-1.2-3.28-3.6h7.32c.02-.16.06-.4.06-.64 0-2.9-1.64-4.66-4.26-4.66-2.6 0-4.38 1.88-4.38 5 0 3.18 1.86 5 4.54 5m-.16-8.92c1.76 0 2.94 1.1 3.06 3.26h-6.16c.18-2.16 1.34-3.26 3.1-3.26m11.505 8.92c2.04 0 3.32-.98 4-2.16l-.8-.94c-.42.94-1.26 2-3.2 2-1.9 0-3.2-1.2-3.28-3.6h7.32c.02-.16.06-.4.06-.64 0-2.9-1.64-4.66-4.26-4.66-2.6 0-4.38 1.88-4.38 5 0 3.18 1.86 5 4.54 5m-.16-8.92c1.76 0 2.94 1.1 3.06 3.26h-6.16c.18-2.16 1.34-3.26 3.1-3.26m10.925 8.94c1.9 0 2.92-1.32 3.22-2.84v2.62h1.3v-13.4h-1.3v6.44c-.3-1.52-1.32-2.84-3.22-2.84-2.5 0-4 1.98-4 5 0 3.04 1.5 5.02 4 5.02m-2.66-5.02c0-2.68 1.32-3.9 3.06-3.9 1.94 0 2.82 1.4 2.82 3v1.8c0 1.6-.88 3.02-2.82 3.02-1.74 0-3.06-1.22-3.06-3.92m14.382 5c1.78 0 3.34-.82 3.34-2.66 0-1.36-.8-2.18-2.8-2.68l-1.28-.32c-1.4-.34-2.12-.7-2.12-1.7s.82-1.54 1.98-1.54c1.5 0 2.5.72 2.94 2.02l1-.74c-.48-1.36-1.82-2.38-3.86-2.38-1.98 0-3.3 1.04-3.3 2.7 0 1.72 1.42 2.36 2.8 2.7l1.3.3c1.3.3 2.16.66 2.16 1.66s-.84 1.52-2.12 1.52c-1.94 0-3.14-1.08-3.44-2.38l-.98.74c.58 1.88 2.42 2.76 4.38 2.76m7.556-.2v-2.36h-1.58v2.36z"/><rect width="174" height="68" x="165.773" y="320.6" fill="#000" rx="34"/><rect width="174" height="68" x="165.773" y="320.6" stroke="url(#b)" stroke-width="2" rx="34"/><path fill="#fff" d="M203.725 361.88q-1.56 0-2.76-.64-1.179-.66-1.86-1.92-.66-1.26-.66-3.12V353q0-2.78 1.48-4.22 1.48-1.46 3.98-1.46 2.481 0 3.78 1.36 1.3 1.36 1.3 3.64v.1h-1.66v-.14q0-1-.36-1.78a2.68 2.68 0 0 0-1.12-1.22q-.76-.46-1.94-.46-1.78 0-2.78 1.1-1 1.08-1 3.04v3.28q0 1.96 1 3.06 1 1.08 2.8 1.08 1.761 0 2.58-1 .84-1 .84-2.66v-.34h-4.24v-1.44h5.88v6.66h-1.52v-1.52h-.28q-.22.44-.62.86-.399.42-1.08.68-.68.26-1.76.26m12.864 0q-1.48 0-2.6-.62a4.47 4.47 0 0 1-1.74-1.78q-.62-1.14-.62-2.64v-.24q0-1.52.62-2.66a4.36 4.36 0 0 1 1.72-1.76q1.1-.64 2.52-.64 1.38 0 2.44.6a4.1 4.1 0 0 1 1.66 1.68q.6 1.1.6 2.58v.72h-7.98q.06 1.58 1.02 2.48.96.88 2.4.88 1.26 0 1.94-.58t1.04-1.38l1.36.66q-.3.62-.84 1.24-.52.62-1.38 1.04-.84.42-2.16.42m-3.36-6.06h6.36q-.08-1.36-.94-2.12-.84-.76-2.16-.76-1.34 0-2.2.76t-1.06 2.12m13.925 5.78q-.84 0-1.3-.46-.44-.46-.44-1.26v-6.68h-2.94v-1.38h2.94v-3.48h1.58v3.48h3.2v1.38h-3.2v6.44q0 .6.58.6h2.18v1.36zm14.676.28q-1.82 0-3.08-.84-1.24-.84-1.5-2.66l1.5-.34q.16.96.6 1.52.44.54 1.08.78.66.22 1.4.22 1.1 0 1.74-.44t.64-1.18q0-.76-.62-1.06-.6-.32-1.66-.52l-.82-.14a7.4 7.4 0 0 1-1.72-.5q-.78-.34-1.24-.92t-.46-1.46q0-1.32 1.02-2.06t2.7-.74q1.66 0 2.68.76 1.04.74 1.34 2.1l-1.48.38q-.18-1.06-.86-1.48-.68-.44-1.68-.44t-1.58.38q-.58.36-.58 1.08 0 .7.54 1.04.56.32 1.48.48l.82.14q1.04.18 1.86.5.84.3 1.32.88.5.58.5 1.52 0 1.44-1.08 2.22-1.06.78-2.86.78m9.992-.28q-.84 0-1.3-.46-.44-.46-.44-1.26v-6.68h-2.94v-1.38h2.94v-3.48h1.58v3.48h3.2v1.38h-3.2v6.44q0 .6.58.6h2.18v1.36zm8.541.28q-1.02 0-1.86-.36t-1.32-1.04-.48-1.66q0-1 .48-1.64.48-.66 1.32-.98.84-.34 1.88-.34h3.3v-.72q0-1.04-.62-1.64-.6-.6-1.8-.6-1.18 0-1.84.58-.66.56-.9 1.52l-1.48-.48q.24-.82.76-1.48.519-.68 1.38-1.08.879-.42 2.1-.42 1.88 0 2.92.98 1.04.96 1.04 2.72v4.42q0 .6.56.6h.9v1.34h-1.38q-.66 0-1.06-.36-.4-.38-.4-1v-.1h-.24q-.22.38-.6.8-.36.4-1 .66-.64.28-1.66.28m.18-1.36q1.4 0 2.26-.82.88-.84.88-2.34v-.22h-3.24q-.94 0-1.56.42-.6.4-.6 1.22t.62 1.28q.64.46 1.64.46m8.323 1.08v-9.78h1.54v1.2h.28q.26-.64.8-.94t1.42-.3h1.16v1.44h-1.26q-1.06 0-1.72.6-.64.58-.64 1.82v5.96zm11.139 0q-.84 0-1.3-.46-.44-.46-.44-1.26v-6.68h-2.94v-1.38h2.94v-3.48h1.58v3.48h3.2v1.38h-3.2v6.44q0 .6.58.6h2.18v1.36zm9.728.28q-1.48 0-2.6-.62a4.47 4.47 0 0 1-1.74-1.78q-.62-1.14-.62-2.64v-.24q0-1.52.62-2.66a4.37 4.37 0 0 1 1.72-1.76q1.1-.64 2.52-.64 1.38 0 2.44.6 1.06.58 1.66 1.68t.6 2.58v.72h-7.98q.06 1.58 1.02 2.48.96.88 2.4.88 1.26 0 1.94-.58t1.04-1.38l1.36.66q-.3.62-.84 1.24-.52.62-1.38 1.04-.84.42-2.16.42m-3.36-6.06h6.36q-.08-1.36-.94-2.12-.84-.76-2.16-.76-1.34 0-2.2.76t-1.06 2.12m14.856 6.06q-1.26 0-2.32-.6t-1.68-1.74-.62-2.7v-.26q0-1.56.62-2.68.62-1.14 1.66-1.74a4.56 4.56 0 0 1 2.34-.62q1.02 0 1.72.28.72.26 1.16.68.44.4.68.86h.28v-5.76h1.58v14h-1.54v-1.62h-.28q-.4.74-1.24 1.32t-2.36.58m.42-1.4q1.52 0 2.46-.96.96-.98.96-2.72v-.18q0-1.74-.96-2.7-.94-.98-2.46-.98-1.5 0-2.48.98-.96.96-.96 2.7v.18q0 1.74.96 2.72.98.96 2.48.96"/><rect width="180" height="68" x="353.773" y="320.6" fill="#000" rx="34"/><rect width="180" height="68" x="353.773" y="320.6" stroke="#fff" stroke-width="2" rx="34"/><path fill="#fff" d="M386.799 361.6v-14h8.62v1.52h-6.94v4.68h6.38v1.52h-6.38v4.76h7.04v1.52zm15.829.28q-1.42 0-2.56-.6-1.12-.62-1.78-1.76-.64-1.14-.64-2.7v-.22q0-1.58.64-2.7a4.46 4.46 0 0 1 1.78-1.74q1.14-.62 2.56-.62 1.4 0 2.38.52 1 .52 1.56 1.38a4.6 4.6 0 0 1 .74 1.84l-1.54.32a3.3 3.3 0 0 0-.48-1.32q-.36-.6-1.02-.96t-1.62-.36q-.98 0-1.76.44a3.26 3.26 0 0 0-1.22 1.26q-.44.82-.44 1.96v.18q0 1.14.44 1.96a3.26 3.26 0 0 0 1.22 1.26q.78.44 1.76.44 1.46 0 2.22-.76.78-.76.96-1.88l1.56.34a5.4 5.4 0 0 1-.8 1.82q-.58.86-1.58 1.38-.98.52-2.38.52m11.973 0q-1.48 0-2.62-.62a4.5 4.5 0 0 1-1.76-1.74q-.62-1.14-.62-2.68v-.26q0-1.52.62-2.66a4.47 4.47 0 0 1 1.76-1.76q1.14-.62 2.62-.62t2.6.62a4.3 4.3 0 0 1 1.76 1.76q.64 1.14.64 2.66v.26q0 1.54-.64 2.68a4.33 4.33 0 0 1-1.76 1.74q-1.12.62-2.6.62m0-1.42q1.56 0 2.48-.98.94-1 .94-2.68v-.18q0-1.68-.94-2.66-.92-1-2.48-1-1.54 0-2.48 1-.94.98-.94 2.66v.18q0 1.68.94 2.68.94.98 2.48.98m11.784 1.42q-1.82 0-3.08-.84-1.24-.84-1.5-2.66l1.5-.34q.159.96.6 1.52.44.54 1.08.78.66.22 1.4.22 1.1 0 1.74-.44t.64-1.18q0-.76-.62-1.06-.6-.32-1.66-.52l-.82-.14a7.4 7.4 0 0 1-1.72-.5q-.78-.34-1.24-.92t-.46-1.46q0-1.32 1.02-2.06t2.7-.74q1.66 0 2.68.76 1.04.74 1.34 2.1l-1.48.38q-.18-1.06-.86-1.48-.681-.44-1.68-.44-1 0-1.58.38-.58.36-.58 1.08 0 .7.54 1.04.56.32 1.48.48l.82.14q1.04.18 1.86.5.84.3 1.32.88.5.58.5 1.52 0 1.44-1.08 2.22-1.06.78-2.86.78m7.786 3.72v-1.4h5.6q.58 0 .58-.6v-3.56h-.28q-.2.42-.62.84-.4.4-1.06.66-.66.24-1.66.24-1.06 0-1.96-.46a3.44 3.44 0 0 1-1.4-1.36q-.5-.9-.5-2.2v-5.94h1.58v5.82q0 1.44.72 2.1.741.66 1.98.66 1.4 0 2.3-.92t.9-2.74v-4.92h1.58v12.06q0 .8-.46 1.26-.44.46-1.3.46zm15.007-3.72q-1.82 0-3.08-.84-1.24-.84-1.5-2.66l1.5-.34q.159.96.6 1.52.44.54 1.08.78.66.22 1.4.22 1.1 0 1.74-.44t.64-1.18q0-.76-.62-1.06-.6-.32-1.66-.52l-.82-.14a7.4 7.4 0 0 1-1.72-.5q-.78-.34-1.24-.92t-.46-1.46q0-1.32 1.02-2.06t2.7-.74q1.66 0 2.68.76 1.04.74 1.34 2.1l-1.48.38q-.18-1.06-.86-1.48-.681-.44-1.68-.44-1 0-1.58.38-.58.36-.58 1.08 0 .7.54 1.04.56.32 1.48.48l.82.14q1.04.18 1.86.5.84.3 1.32.88.5.58.5 1.52 0 1.44-1.08 2.22-1.06.78-2.86.78m9.992-.28q-.84 0-1.3-.46-.44-.46-.44-1.26v-6.68h-2.94v-1.38h2.94v-3.48h1.58v3.48h3.2v1.38h-3.2v6.44q0 .6.58.6h2.18v1.36zm9.727.28q-1.48 0-2.6-.62a4.5 4.5 0 0 1-1.74-1.78q-.62-1.14-.62-2.64v-.24q0-1.52.62-2.66a4.4 4.4 0 0 1 1.72-1.76q1.101-.64 2.52-.64 1.38 0 2.44.6 1.06.58 1.66 1.68t.6 2.58v.72h-7.98q.06 1.58 1.02 2.48.96.88 2.4.88 1.26 0 1.94-.58t1.04-1.38l1.36.66q-.3.62-.84 1.24-.519.62-1.38 1.04-.84.42-2.16.42m-3.36-6.06h6.36q-.08-1.36-.94-2.12-.84-.76-2.16-.76-1.34 0-2.2.76t-1.06 2.12m10.716 5.78v-9.78h1.54v1.22h.28q.28-.52.92-.96t1.8-.44q1.14 0 1.84.5.72.5 1.04 1.22h.28q.34-.72 1.02-1.22.7-.5 1.94-.5.98 0 1.72.4t1.16 1.16q.44.74.44 1.78v6.62h-1.58v-6.48q0-.98-.58-1.54-.56-.58-1.58-.58-1.08 0-1.78.7-.68.7-.68 2.02v5.88h-1.58v-6.48q0-.98-.58-1.54-.56-.58-1.58-.58-1.08 0-1.78.7-.68.7-.68 2.02v5.88zm21.147.28q-1.82 0-3.08-.84-1.239-.84-1.5-2.66l1.5-.34q.16.96.6 1.52.441.54 1.08.78.66.22 1.4.22 1.101 0 1.74-.44.64-.44.64-1.18 0-.76-.62-1.06-.6-.32-1.66-.52l-.82-.14a7.4 7.4 0 0 1-1.72-.5q-.78-.34-1.24-.92t-.46-1.46q0-1.32 1.02-2.06t2.7-.74q1.66 0 2.68.76 1.04.74 1.34 2.1l-1.48.38q-.18-1.06-.86-1.48-.68-.44-1.68-.44t-1.58.38q-.58.36-.58 1.08 0 .7.54 1.04.56.32 1.48.48l.82.14q1.041.18 1.86.5.84.3 1.32.88.5.58.5 1.52 0 1.44-1.08 2.22-1.06.78-2.86.78"/><defs><linearGradient id="a" x1="14.773" x2="683.773" y1="27.6" y2="27.6" gradientUnits="userSpaceOnUse"><stop stop-color="#ff3bff"/><stop offset=".38" stop-color="#ecbfbf"/><stop offset=".758" stop-color="#5c24ff"/><stop offset="1" stop-color="#d94fd5"/></linearGradient><linearGradient id="b" x1="164.773" x2="340.773" y1="354.6" y2="354.6" gradientUnits="userSpaceOnUse"><stop stop-color="#ff3bff"/><stop offset=".38" stop-color="#ecbfbf"/><stop offset=".758" stop-color="#5c24ff"/><stop offset="1" stop-color="#d94fd5"/></linearGradient></defs></svg>