<svg width="698" height="390" viewBox="0 0 698 390" fill="none" xmlns="http://www.w3.org/2000/svg">
<path d="M24.5328 53.6L29.9728 39.68H54.8528L60.2928 53.6H69.6528L48.7728 4.76837e-06H36.3728L15.4928 53.6H24.5328ZM38.6128 17.76L42.1328 7.84H42.7728L46.2128 17.76L51.8128 31.92H33.0128L38.6128 17.76ZM101.874 53.6V32.16H130.034V24.32H101.874V7.76H131.234V4.76837e-06H93.2341V53.6H101.874ZM149.38 54.4C156.9 54.4 161.46 51.12 163.78 47.36H164.18V53.6H172.18V29.44C172.18 19.76 166.58 13.04 155.46 13.04C144.82 13.04 137.86 19.44 137.86 28.32V29.12H146.18V27.92C146.18 22.64 148.66 20.64 154.98 20.64C161.22 20.64 163.94 22.4 163.94 28.32V30.48L150.02 32.56C141.54 33.76 136.74 37.2 136.74 43.76C136.74 50.72 142.26 54.4 149.38 54.4ZM145.14 43.12C145.14 40.16 146.74 39.12 151.3 38.48L163.94 36.56V37.28C163.94 45.28 157.78 47.52 152.18 47.52C147.14 47.52 145.14 46.24 145.14 43.12ZM198.539 54.4C208.619 54.4 214.459 50.08 214.459 42.72C214.459 36.16 210.459 32.72 202.779 31.2L196.059 29.92C190.459 28.8 189.019 27.92 189.019 24.88C189.019 21.84 190.539 20.16 196.859 20.16C203.979 20.16 205.259 22.8 205.259 26.48V27.44H213.499V26.72C213.499 17.68 206.459 13.04 197.099 13.04C186.699 13.04 180.779 17.84 180.779 25.04C180.779 32.24 185.259 35.44 192.379 36.72L198.539 37.76C204.379 38.8 206.299 39.76 206.299 42.96C206.299 45.92 205.099 47.36 198.699 47.36C191.099 47.36 189.179 45.76 189.179 41.44V40H180.859V40.16C180.859 49.84 186.939 54.4 198.539 54.4ZM239.2 53.6C241.92 53.6 244.64 53.28 246.32 52.88V45.84H241.44C236.08 45.84 234.32 45.12 234.32 40.96V21.04H246.32V13.84H234.32V4.00001H227.68L225.84 13.84H219.04V21.04H225.68V41.36C225.68 50.32 230.32 53.6 239.2 53.6ZM296.365 53.6C307.645 53.6 314.125 48 314.125 38.88C314.125 31.84 309.965 26.56 301.805 25.52V24.88C308.685 23.84 312.205 19.6 312.205 13.36C312.205 4.32 305.885 4.76837e-06 295.405 4.76837e-06H270.765V53.6H296.365ZM279.405 7.76H294.845C301.325 7.76 303.645 9.52001 303.645 15.04C303.645 20.48 301.085 22.24 294.605 22.24H279.405V7.76ZM279.405 29.44H296.125C302.605 29.44 305.405 31.28 305.405 37.68C305.405 44 302.605 45.84 296.125 45.84H279.405V29.44ZM331.234 53.6V4.76837e-06H322.594V53.6H331.234ZM359.231 54.4C371.391 54.4 378.751 46.08 378.751 33.68C378.751 21.36 371.391 13.04 359.231 13.04C346.991 13.04 339.391 21.36 339.391 33.68C339.391 46.08 346.991 54.4 359.231 54.4ZM359.231 46.72C350.831 46.72 347.871 42.64 347.871 33.68C347.871 24.8 350.831 20.72 359.231 20.72C367.551 20.72 370.431 24.8 370.431 33.68C370.431 42.64 367.551 46.72 359.231 46.72ZM405.04 54.48C415.76 54.48 423.04 47.92 423.04 38.48V37.76H414.48V38.24C414.48 44.08 411.44 46.64 404.8 46.64C397.12 46.64 394.16 42.4 394.16 33.76C394.16 25.12 397.12 20.8 404.8 20.8C411.44 20.8 414.48 23.44 414.48 29.28V29.76H423.04V29.04C423.04 19.52 415.84 13.04 405.36 13.04C392.88 13.04 385.6 21.36 385.6 33.76C385.6 46.08 392.64 54.48 405.04 54.48ZM439.862 53.6V37.36H447.782L458.182 53.6H468.262L454.662 32.64L468.502 13.84H458.342L447.702 29.6H439.862V4.76837e-06H431.222V53.6H439.862ZM490.272 54.48C500.992 54.48 508.272 47.92 508.272 38.48V37.76H499.712V38.24C499.712 44.08 496.672 46.64 490.032 46.64C482.352 46.64 479.392 42.4 479.392 33.76C479.392 25.12 482.352 20.8 490.032 20.8C496.672 20.8 499.712 23.44 499.712 29.28V29.76H508.272V29.04C508.272 19.52 501.072 13.04 490.592 13.04C478.112 13.04 470.832 21.36 470.832 33.76C470.832 46.08 477.872 54.48 490.272 54.48ZM525.093 53.6V30.72C525.093 23.2 528.293 20.48 535.333 20.48C542.613 20.48 544.853 23.44 544.853 30.56V53.6H553.493V28.56C553.493 19.84 549.093 13.04 538.693 13.04C531.493 13.04 527.253 16.88 525.413 20.48H525.093V4.76837e-06H516.453V53.6H525.093ZM574.324 54.4C581.844 54.4 586.404 51.12 588.724 47.36H589.124V53.6H597.124V29.44C597.124 19.76 591.524 13.04 580.404 13.04C569.764 13.04 562.804 19.44 562.804 28.32V29.12H571.124V27.92C571.124 22.64 573.604 20.64 579.924 20.64C586.164 20.64 588.884 22.4 588.884 28.32V30.48L574.964 32.56C566.484 33.76 561.684 37.2 561.684 43.76C561.684 50.72 567.204 54.4 574.324 54.4ZM570.084 43.12C570.084 40.16 571.684 39.12 576.244 38.48L588.884 36.56V37.28C588.884 45.28 582.724 47.52 577.124 47.52C572.084 47.52 570.084 46.24 570.084 43.12ZM615.077 8.80001V4.76837e-06H606.437L606.517 8.80001H615.077ZM615.157 53.6V13.6H606.517V53.6H615.157ZM633.331 53.6V30.64C633.331 23.2 636.531 20.48 643.571 20.48C650.851 20.48 653.091 23.44 653.091 30.56V53.6H661.731V28.64C661.731 19.6 657.091 13.04 646.771 13.04C639.011 13.04 634.771 17.04 632.931 21.28H632.611V13.84H624.691V53.6H633.331ZM680.803 53.6V41.2H669.843V53.6H680.803Z" fill="url(#paint0_linear_0_1)"/>
<path d="M166.933 148.4C180.613 148.4 186.693 141.44 186.693 133.04C186.693 124.96 182.293 119.92 172.213 117.84L163.093 115.92C155.733 114.32 153.573 112.96 153.573 108.08C153.573 103.36 156.773 101.12 164.693 101.12C174.293 101.12 177.173 104.56 177.173 111.12V112H185.653V111.04C185.653 101.52 179.733 93.2 164.933 93.2C151.093 93.2 144.933 100.56 144.933 108.48C144.933 116.96 149.893 121.44 159.093 123.2L168.213 125.04C176.453 126.72 178.053 128.48 178.053 133.36C178.053 138.32 175.173 140.48 167.253 140.48C156.053 140.48 153.253 137.12 153.253 130.48V129.6H144.773V130.96C144.773 141.28 151.493 148.4 166.933 148.4ZM212.265 148.48C222.985 148.48 230.265 141.92 230.265 132.48V131.76H221.705V132.24C221.705 138.08 218.665 140.64 212.025 140.64C204.345 140.64 201.385 136.4 201.385 127.76C201.385 119.12 204.345 114.8 212.025 114.8C218.665 114.8 221.705 117.44 221.705 123.28V123.76H230.265V123.04C230.265 113.52 223.065 107.04 212.585 107.04C200.105 107.04 192.825 115.36 192.825 127.76C192.825 140.08 199.865 148.48 212.265 148.48ZM249.562 148.4C257.082 148.4 261.642 145.12 263.962 141.36H264.362V147.6H272.362V123.44C272.362 113.76 266.762 107.04 255.642 107.04C245.002 107.04 238.042 113.44 238.042 122.32V123.12H246.362V121.92C246.362 116.64 248.842 114.64 255.162 114.64C261.402 114.64 264.122 116.4 264.122 122.32V124.48L250.202 126.56C241.722 127.76 236.922 131.2 236.922 137.76C236.922 144.72 242.442 148.4 249.562 148.4ZM245.322 137.12C245.322 134.16 246.922 133.12 251.482 132.48L264.122 130.56V131.28C264.122 139.28 257.962 141.52 252.362 141.52C247.322 141.52 245.322 140.24 245.322 137.12ZM290.875 147.6V94H282.235V147.6H290.875ZM311.433 148.4C318.953 148.4 323.513 145.12 325.833 141.36H326.233V147.6H334.233V123.44C334.233 113.76 328.633 107.04 317.513 107.04C306.873 107.04 299.913 113.44 299.913 122.32V123.12H308.233V121.92C308.233 116.64 310.713 114.64 317.033 114.64C323.273 114.64 325.993 116.4 325.993 122.32V124.48L312.073 126.56C303.593 127.76 298.793 131.2 298.793 137.76C298.793 144.72 304.313 148.4 311.433 148.4ZM307.193 137.12C307.193 134.16 308.793 133.12 313.353 132.48L325.993 130.56V131.28C325.993 139.28 319.833 141.52 314.233 141.52C309.193 141.52 307.193 140.24 307.193 137.12ZM352.027 147.6V141.04H352.347C354.267 145.68 358.907 148.4 365.787 148.4C376.907 148.4 382.987 140.32 382.987 127.68C382.987 115.12 377.227 107.04 366.267 107.04C359.227 107.04 354.667 110.56 352.907 114.16H352.747V94H344.107V147.6H352.027ZM352.747 131.28V124.16C352.747 117.52 356.587 114.4 363.547 114.4C371.147 114.4 374.427 117.92 374.427 127.68C374.427 137.52 371.227 141.04 363.547 141.04C356.587 141.04 352.747 137.92 352.747 131.28ZM399.815 147.6V94H391.175V147.6H399.815ZM427.252 148.4C437.972 148.4 445.092 143.12 445.092 134.96V134.24H436.532V134.88C436.532 138.48 433.972 140.72 427.332 140.72C419.012 140.72 416.372 137.04 416.052 129.76H444.932C445.172 128.56 445.412 126.4 445.412 124.32C445.412 113.44 437.892 107.04 427.172 107.04C415.332 107.04 407.972 115.36 407.972 127.68C407.972 140.08 414.132 148.4 427.252 148.4ZM427.012 114.32C433.812 114.32 437.492 117.2 437.172 124H416.132C416.612 117.84 419.492 114.32 427.012 114.32ZM476.495 147.6L481.935 133.68H506.815L512.255 147.6H521.615L500.735 94H488.335L467.455 147.6H476.495ZM490.575 111.76L494.095 101.84H494.735L498.175 111.76L503.775 125.92H484.975L490.575 111.76ZM535.44 147.6V94H526.8V147.6H535.44ZM554.938 147.6V135.2H543.978V147.6H554.938Z" fill="white"/>
<path d="M6.36 210.8C10.16 210.8 12.72 207.78 12.72 203.88C12.72 200.02 10.16 197 6.36 197C2.56 197 1.49012e-08 200.02 1.49012e-08 203.88C1.49012e-08 207.78 2.56 210.8 6.36 210.8ZM6.38 209.56C3.2 209.56 1.38 207.16 1.38 203.88C1.38 200.64 3.2 198.22 6.38 198.22C9.54 198.22 11.36 200.64 11.36 203.88C11.36 207.16 9.54 209.56 6.38 209.56ZM19.0438 210.8C21.0238 210.8 22.1038 209.46 22.4438 207.86V210.6H23.7438V201H22.4438V206.54C22.4438 208.22 21.6438 209.68 19.5638 209.68C17.9238 209.68 17.2038 208.72 17.2038 207.18V201H15.9038V207.46C15.9038 209.68 17.1638 210.8 19.0438 210.8ZM28.5897 210.6V205.04C28.5897 203.38 29.7297 201.78 31.1697 201.78C32.0497 201.78 32.4097 202.34 32.4097 202.96C32.4097 203.54 32.1697 204.16 31.9097 204.46H33.3297C33.5097 204.14 33.6897 203.54 33.6897 202.82C33.6897 201.5 32.7697 200.78 31.6497 200.78C30.0097 200.78 28.9497 202.1 28.5897 203.62V201H27.2697V210.6H28.5897ZM44.4669 210.82C45.7069 210.82 46.6469 210.24 47.0669 209.54L46.6069 208.26C46.2869 208.94 45.5869 209.56 44.7269 209.56C43.8869 209.56 43.1669 209.18 43.1669 207.8V202.02H46.3869V201H43.1669V198.64L41.8669 199.62V201H40.3069V202.02H41.8669V208.16C41.8669 209.9 43.0069 210.82 44.4669 210.82ZM52.8442 210.8C54.8842 210.8 56.1642 209.82 56.8442 208.64L56.0442 207.7C55.6242 208.64 54.7842 209.7 52.8442 209.7C50.9442 209.7 49.6442 208.5 49.5642 206.1H56.8842C56.9042 205.94 56.9442 205.7 56.9442 205.46C56.9442 202.56 55.3042 200.8 52.6842 200.8C50.0842 200.8 48.3042 202.68 48.3042 205.8C48.3042 208.98 50.1642 210.8 52.8442 210.8ZM52.6842 201.88C54.4442 201.88 55.6242 202.98 55.7442 205.14H49.5842C49.7642 202.98 50.9242 201.88 52.6842 201.88ZM64.0892 210.8C66.4892 210.8 67.9892 209.4 68.3692 207.46L67.1092 206.92C66.9092 208.54 65.9492 209.7 64.1092 209.7C62.2092 209.7 60.9492 208.34 60.9492 205.8C60.9492 203.24 62.2092 201.88 64.1092 201.88C65.9492 201.88 66.9092 203.06 67.1092 204.68L68.3692 204.14C67.9892 202.2 66.4892 200.8 64.1092 200.8C61.3892 200.8 59.6092 202.68 59.6092 205.8C59.6092 208.92 61.3892 210.8 64.0892 210.8ZM72.5998 210.6V205.04C72.5998 203.38 73.4398 201.9 75.4998 201.9C77.1398 201.9 77.8198 202.86 77.8198 204.42V210.6H79.1398V204.12C79.1398 201.92 77.8998 200.8 76.0398 200.8C74.0798 200.8 72.9398 202.12 72.5998 203.68V197.2H71.2798V210.6H72.5998ZM83.9058 210.6V205.04C83.9058 203.38 84.7258 201.9 86.7458 201.9C88.4058 201.9 89.1258 202.86 89.1258 204.42V210.6H90.4458V204.12C90.4458 201.92 89.1658 200.8 87.2658 200.8C85.3458 200.8 84.2458 202.12 83.9058 203.68V201H82.5858V210.6H83.9058ZM97.6927 210.8C100.333 210.8 102.193 208.84 102.193 205.8C102.193 202.76 100.333 200.8 97.6927 200.8C95.0527 200.8 93.2127 202.76 93.2127 205.8C93.2127 208.84 95.0527 210.8 97.6927 210.8ZM97.6927 209.68C95.8127 209.68 94.5327 208.34 94.5327 205.8C94.5327 203.24 95.8127 201.88 97.6927 201.88C99.5927 201.88 100.873 203.24 100.873 205.8C100.873 208.34 99.5927 209.68 97.6927 209.68ZM106.576 210.6V197.2H105.256V210.6H106.576ZM113.937 210.8C116.577 210.8 118.437 208.84 118.437 205.8C118.437 202.76 116.577 200.8 113.937 200.8C111.297 200.8 109.457 202.76 109.457 205.8C109.457 208.84 111.297 210.8 113.937 210.8ZM113.937 209.68C112.057 209.68 110.777 208.34 110.777 205.8C110.777 203.24 112.057 201.88 113.937 201.88C115.837 201.88 117.117 203.24 117.117 205.8C117.117 208.34 115.837 209.68 113.937 209.68ZM125.123 207.64C127.363 207.64 128.843 206.22 128.843 204.22C128.843 203.04 128.323 202.06 127.423 201.44L129.143 199.38L127.763 198.86L126.983 201.18C126.443 200.94 125.823 200.8 125.123 200.8C122.903 200.8 121.403 202.22 121.403 204.22C121.403 205.44 121.963 206.44 122.883 207.04C122.083 207.66 121.483 208.46 121.483 209.24C121.483 209.82 121.803 210.28 122.463 210.46C121.703 210.76 120.743 211.38 120.743 212.38C120.743 213.7 122.263 214.52 124.703 214.52C127.783 214.52 129.623 213.24 129.623 211.46C129.623 210.06 128.583 209.38 126.903 209.38H123.923C122.883 209.38 122.563 209.06 122.563 208.52C122.563 208.06 122.863 207.56 123.163 207.2C123.723 207.48 124.383 207.64 125.123 207.64ZM125.123 206.62C123.703 206.62 122.683 205.68 122.683 204.22C122.683 202.76 123.703 201.82 125.123 201.82C126.563 201.82 127.583 202.76 127.583 204.22C127.583 205.68 126.563 206.62 125.123 206.62ZM124.703 213.48C122.883 213.48 121.823 212.94 121.823 212C121.823 211.38 122.343 210.82 122.823 210.52H126.723C127.863 210.52 128.403 210.86 128.403 211.62C128.403 212.72 127.023 213.48 124.703 213.48ZM133.145 213.98C134.445 213.98 135.385 213.28 135.945 211.74L140.005 201H138.625L136.225 207.58L135.525 209.56L134.845 207.58L132.425 201H131.025L134.545 210.28L135.285 210.26L134.925 211.22C134.505 212.4 133.945 212.82 133.165 212.82C132.285 212.82 131.745 212.28 131.345 211.5L130.605 212.46C130.965 213.18 131.845 213.98 133.145 213.98ZM148.653 214.32V208.06C148.973 209.54 150.013 210.8 151.853 210.8C154.353 210.8 155.853 208.82 155.853 205.78C155.853 202.76 154.353 200.76 151.853 200.76C150.013 200.76 148.973 202.02 148.653 203.52V201H147.333V214.32H148.653ZM148.653 206.68V204.88C148.653 203.28 149.513 201.88 151.453 201.88C153.193 201.88 154.513 203.08 154.513 205.78C154.513 208.48 153.193 209.68 151.453 209.68C149.513 209.68 148.653 208.28 148.653 206.68ZM162.991 210.8C165.031 210.8 166.311 209.82 166.991 208.64L166.191 207.7C165.771 208.64 164.931 209.7 162.991 209.7C161.091 209.7 159.791 208.5 159.711 206.1H167.031C167.051 205.94 167.091 205.7 167.091 205.46C167.091 202.56 165.451 200.8 162.831 200.8C160.231 200.8 158.451 202.68 158.451 205.8C158.451 208.98 160.311 210.8 162.991 210.8ZM162.831 201.88C164.591 201.88 165.771 202.98 165.891 205.14H159.731C159.911 202.98 161.071 201.88 162.831 201.88ZM171.44 210.6V205.04C171.44 203.38 172.58 201.78 174.02 201.78C174.9 201.78 175.26 202.34 175.26 202.96C175.26 203.54 175.02 204.16 174.76 204.46H176.18C176.36 204.14 176.54 203.54 176.54 202.82C176.54 201.5 175.62 200.78 174.5 200.78C172.86 200.78 171.8 202.1 171.44 203.62V201H170.12V210.6H171.44ZM180.965 210.6V202.02H184.165V201H180.965V199.78C180.965 198.62 181.545 198.1 182.485 198.1C183.365 198.1 184.085 198.62 184.485 199.34L185.185 198.38C184.785 197.72 183.865 197 182.505 197C180.865 197 179.665 197.94 179.665 199.88V201H178.085V202.02H179.665V210.6H180.965ZM189.932 210.8C192.572 210.8 194.432 208.84 194.432 205.8C194.432 202.76 192.572 200.8 189.932 200.8C187.292 200.8 185.452 202.76 185.452 205.8C185.452 208.84 187.292 210.8 189.932 210.8ZM189.932 209.68C188.052 209.68 186.772 208.34 186.772 205.8C186.772 203.24 188.052 201.88 189.932 201.88C191.832 201.88 193.112 203.24 193.112 205.8C193.112 208.34 191.832 209.68 189.932 209.68ZM198.776 210.6V205.04C198.776 203.38 199.916 201.78 201.356 201.78C202.236 201.78 202.596 202.34 202.596 202.96C202.596 203.54 202.356 204.16 202.096 204.46H203.516C203.696 204.14 203.876 203.54 203.876 202.82C203.876 201.5 202.956 200.78 201.836 200.78C200.196 200.78 199.136 202.1 198.776 203.62V201H197.456V210.6H198.776ZM207.602 210.6V205.04C207.602 203.38 208.422 201.9 210.122 201.9C211.622 201.9 212.362 202.72 212.362 204.4V210.6H213.662V205.04C213.662 203.38 214.482 201.9 216.202 201.9C217.682 201.9 218.422 202.72 218.422 204.4V210.6H219.742V204.1C219.742 201.9 218.702 200.8 216.862 200.8C215.062 200.8 213.962 202.14 213.642 203.72C213.542 201.78 212.522 200.8 210.782 200.8C209.002 200.8 207.942 202.1 207.602 203.68V201H206.282V210.6H207.602ZM224.494 199.28V197.2H223.174V199.28H224.494ZM224.494 210.6V201H223.174V210.6H224.494ZM229.335 210.6V205.04C229.335 203.38 230.155 201.9 232.175 201.9C233.835 201.9 234.555 202.86 234.555 204.42V210.6H235.875V204.12C235.875 201.92 234.595 200.8 232.695 200.8C230.775 200.8 229.675 202.12 229.335 203.68V201H228.015V210.6H229.335ZM242.943 207.64C245.183 207.64 246.663 206.22 246.663 204.22C246.663 203.04 246.143 202.06 245.243 201.44L246.963 199.38L245.583 198.86L244.803 201.18C244.263 200.94 243.643 200.8 242.943 200.8C240.723 200.8 239.223 202.22 239.223 204.22C239.223 205.44 239.783 206.44 240.703 207.04C239.903 207.66 239.303 208.46 239.303 209.24C239.303 209.82 239.623 210.28 240.283 210.46C239.523 210.76 238.563 211.38 238.563 212.38C238.563 213.7 240.083 214.52 242.523 214.52C245.603 214.52 247.443 213.24 247.443 211.46C247.443 210.06 246.403 209.38 244.723 209.38H241.743C240.703 209.38 240.383 209.06 240.383 208.52C240.383 208.06 240.683 207.56 240.983 207.2C241.543 207.48 242.203 207.64 242.943 207.64ZM242.943 206.62C241.523 206.62 240.503 205.68 240.503 204.22C240.503 202.76 241.523 201.82 242.943 201.82C244.383 201.82 245.403 202.76 245.403 204.22C245.403 205.68 244.383 206.62 242.943 206.62ZM242.523 213.48C240.703 213.48 239.643 212.94 239.643 212C239.643 211.38 240.163 210.82 240.643 210.52H244.543C245.683 210.52 246.223 210.86 246.223 211.62C246.223 212.72 244.843 213.48 242.523 213.48ZM257.096 210.6V202.02H260.296V201H257.096V199.78C257.096 198.62 257.676 198.1 258.616 198.1C259.496 198.1 260.216 198.62 260.616 199.34L261.316 198.38C260.916 197.72 259.996 197 258.636 197C256.996 197 255.796 197.94 255.796 199.88V201H254.216V202.02H255.796V210.6H257.096ZM264.415 210.8C266.335 210.8 267.575 209.32 267.895 207.94V208.96C267.895 210.18 268.535 210.6 269.495 210.6H270.395V209.42H269.835C269.375 209.42 269.155 209.24 269.155 208.74V204.24C269.155 202.1 267.995 200.8 265.755 200.8C263.715 200.8 262.315 201.94 261.715 202.94L262.635 203.86C263.135 202.8 264.175 201.98 265.615 201.98C267.175 201.98 267.855 202.82 267.855 204.26V204.34L264.215 206C262.875 206.6 261.935 207.4 261.935 208.66C261.935 209.94 262.835 210.8 264.415 210.8ZM263.255 208.48C263.255 207.76 263.735 207.28 264.775 206.8L267.895 205.32V207.02C267.895 208.32 266.575 209.7 264.795 209.7C263.855 209.7 263.255 209.28 263.255 208.48ZM276.623 210.8C278.403 210.8 279.963 209.98 279.963 208.14C279.963 206.78 279.163 205.96 277.163 205.46L275.883 205.14C274.483 204.8 273.763 204.44 273.763 203.44C273.763 202.44 274.583 201.9 275.743 201.9C277.243 201.9 278.243 202.62 278.683 203.92L279.683 203.18C279.203 201.82 277.863 200.8 275.823 200.8C273.843 200.8 272.523 201.84 272.523 203.5C272.523 205.22 273.943 205.86 275.323 206.2L276.623 206.5C277.923 206.8 278.783 207.16 278.783 208.16C278.783 209.16 277.943 209.68 276.663 209.68C274.723 209.68 273.523 208.6 273.223 207.3L272.243 208.04C272.823 209.92 274.663 210.8 276.623 210.8ZM285.807 210.82C287.047 210.82 287.987 210.24 288.407 209.54L287.947 208.26C287.627 208.94 286.927 209.56 286.067 209.56C285.227 209.56 284.507 209.18 284.507 207.8V202.02H287.727V201H284.507V198.64L283.207 199.62V201H281.647V202.02H283.207V208.16C283.207 209.9 284.347 210.82 285.807 210.82ZM297.165 210.6V208.08C297.485 209.56 298.525 210.82 300.365 210.82C302.885 210.82 304.385 208.84 304.385 205.8C304.385 202.78 302.885 200.8 300.365 200.8C298.525 200.8 297.485 202.06 297.165 203.54V197.2H295.845V210.6H297.165ZM297.165 206.7V204.9C297.165 203.3 298.025 201.9 299.965 201.9C301.725 201.9 303.045 203.12 303.045 205.8C303.045 208.5 301.725 209.72 299.965 209.72C298.025 209.72 297.165 208.3 297.165 206.7ZM308.666 210.6V197.2H307.346V210.6H308.666ZM316.027 210.8C318.667 210.8 320.527 208.84 320.527 205.8C320.527 202.76 318.667 200.8 316.027 200.8C313.387 200.8 311.547 202.76 311.547 205.8C311.547 208.84 313.387 210.8 316.027 210.8ZM316.027 209.68C314.147 209.68 312.867 208.34 312.867 205.8C312.867 203.24 314.147 201.88 316.027 201.88C317.927 201.88 319.207 203.24 319.207 205.8C319.207 208.34 317.927 209.68 316.027 209.68ZM327.667 210.8C330.067 210.8 331.567 209.4 331.947 207.46L330.687 206.92C330.487 208.54 329.527 209.7 327.687 209.7C325.787 209.7 324.527 208.34 324.527 205.8C324.527 203.24 325.787 201.88 327.687 201.88C329.527 201.88 330.487 203.06 330.687 204.68L331.947 204.14C331.567 202.2 330.067 200.8 327.687 200.8C324.967 200.8 323.187 202.68 323.187 205.8C323.187 208.92 324.967 210.8 327.667 210.8ZM336.178 210.6V207.08L337.978 205.38L341.238 210.6H342.838L338.878 204.6L342.758 201H341.098L337.378 204.44L336.118 205.68L336.178 204.48V197.2H334.858V210.6H336.178ZM348.775 210.8C351.175 210.8 352.675 209.4 353.055 207.46L351.795 206.92C351.595 208.54 350.635 209.7 348.795 209.7C346.895 209.7 345.635 208.34 345.635 205.8C345.635 203.24 346.895 201.88 348.795 201.88C350.635 201.88 351.595 203.06 351.795 204.68L353.055 204.14C352.675 202.2 351.175 200.8 348.795 200.8C346.075 200.8 344.295 202.68 344.295 205.8C344.295 208.92 346.075 210.8 348.775 210.8ZM357.286 210.6V205.04C357.286 203.38 358.126 201.9 360.186 201.9C361.826 201.9 362.506 202.86 362.506 204.42V210.6H363.826V204.12C363.826 201.92 362.586 200.8 360.726 200.8C358.766 200.8 357.626 202.12 357.286 203.68V197.2H355.966V210.6H357.286ZM369.21 210.8C371.13 210.8 372.37 209.32 372.69 207.94V208.96C372.69 210.18 373.33 210.6 374.29 210.6H375.19V209.42H374.63C374.17 209.42 373.95 209.24 373.95 208.74V204.24C373.95 202.1 372.79 200.8 370.55 200.8C368.51 200.8 367.11 201.94 366.51 202.94L367.43 203.86C367.93 202.8 368.97 201.98 370.41 201.98C371.97 201.98 372.65 202.82 372.65 204.26V204.34L369.01 206C367.67 206.6 366.73 207.4 366.73 208.66C366.73 209.94 367.63 210.8 369.21 210.8ZM368.05 208.48C368.05 207.76 368.53 207.28 369.57 206.8L372.69 205.32V207.02C372.69 208.32 371.37 209.7 369.59 209.7C368.65 209.7 368.05 209.28 368.05 208.48ZM379.351 199.28V197.2H378.031V199.28H379.351ZM379.351 210.6V201H378.031V210.6H379.351ZM384.192 210.6V205.04C384.192 203.38 385.012 201.9 387.032 201.9C388.692 201.9 389.412 202.86 389.412 204.42V210.6H390.732V204.12C390.732 201.92 389.452 200.8 387.552 200.8C385.632 200.8 384.532 202.12 384.192 203.68V201H382.872V210.6H384.192ZM402.772 211.2C401.872 210.18 400.332 207.48 400.332 203.9C400.332 200.32 401.892 197.62 402.772 196.6H401.792C400.752 197.48 399.032 200.04 399.032 203.9C399.032 207.76 400.812 210.32 401.792 211.2H402.772ZM408.676 210.6V197.2H407.556C407.116 198.16 406.376 198.4 404.956 198.4V199.32H407.356V210.6H408.676ZM421.004 210.6V209.44H415.304L413.624 209.52L414.984 208.34L417.604 205.8C418.804 204.64 420.724 202.78 420.724 200.62C420.724 198.58 419.524 197 416.924 197C413.864 197 411.964 199.12 412.244 201.76L413.464 202.54C413.124 199.86 414.404 198.26 416.844 198.26C418.664 198.26 419.384 199.46 419.384 200.7C419.384 202.28 418.204 203.56 416.824 204.94L412.164 209.58V210.6H421.004ZM428.795 210.8C432.395 210.8 434.095 207.78 434.095 203.88C434.095 200.02 432.395 197 428.795 197C425.195 197 423.515 200.02 423.515 203.88C423.515 207.78 425.195 210.8 428.795 210.8ZM428.815 209.56C425.975 209.56 424.875 207.14 424.875 203.88C424.875 200.66 425.975 198.22 428.815 198.22C431.655 198.22 432.735 200.66 432.735 203.88C432.735 207.14 431.655 209.56 428.815 209.56ZM438.79 210.6V206.22L441.47 203.38L446.27 210.6H447.89L442.41 202.44L447.43 197.2H445.77L440.45 202.82L438.73 204.66L438.79 202.44V197.2H437.47V210.6H438.79ZM460.032 210.6V198.36H464.392V197.2H454.352V198.36H458.712V210.6H460.032ZM467.473 210.6V205.94H471.273C473.893 205.94 475.973 204.5 475.973 201.66C475.973 198.64 473.893 197.2 471.273 197.2H466.153V210.6H467.473ZM471.073 198.36C472.953 198.36 474.633 199.18 474.633 201.66C474.633 203.96 472.953 204.78 471.073 204.78H467.473V198.36H471.073ZM483.591 210.78C486.051 210.78 487.991 209.5 487.991 207.16C487.991 204.7 486.131 203.9 484.071 203.42L482.491 203.04C480.751 202.62 479.771 202.02 479.771 200.56C479.771 199.1 481.071 198.26 482.691 198.26C484.631 198.26 486.071 199.14 486.691 201.02L487.791 200.14C487.011 198.12 485.171 197.02 482.711 197.02C480.451 197.02 478.391 198.28 478.391 200.66C478.391 203 480.191 203.82 482.071 204.26L483.531 204.58C485.571 205.06 486.671 205.62 486.671 207.2C486.671 208.9 485.231 209.56 483.591 209.56C481.831 209.56 479.651 208.72 479.011 206.42L477.991 207.3C478.851 209.78 481.171 210.78 483.591 210.78ZM491.406 211.2C492.386 210.32 494.166 207.76 494.166 203.9C494.166 200.04 492.446 197.48 491.406 196.6H490.426C491.306 197.62 492.866 200.32 492.866 203.9C492.866 207.48 491.326 210.18 490.426 211.2H491.406ZM504.424 210.8C506.344 210.8 507.584 209.32 507.904 207.94V208.96C507.904 210.18 508.544 210.6 509.504 210.6H510.404V209.42H509.844C509.384 209.42 509.164 209.24 509.164 208.74V204.24C509.164 202.1 508.004 200.8 505.764 200.8C503.724 200.8 502.324 201.94 501.724 202.94L502.644 203.86C503.144 202.8 504.184 201.98 505.624 201.98C507.184 201.98 507.864 202.82 507.864 204.26V204.34L504.224 206C502.884 206.6 501.944 207.4 501.944 208.66C501.944 209.94 502.844 210.8 504.424 210.8ZM503.264 208.48C503.264 207.76 503.744 207.28 504.784 206.8L507.904 205.32V207.02C507.904 208.32 506.584 209.7 504.804 209.7C503.864 209.7 503.264 209.28 503.264 208.48ZM514.565 210.6V205.04C514.565 203.38 515.385 201.9 517.405 201.9C519.065 201.9 519.785 202.86 519.785 204.42V210.6H521.105V204.12C521.105 201.92 519.825 200.8 517.925 200.8C516.005 200.8 514.905 202.12 514.565 203.68V201H513.245V210.6H514.565ZM527.952 210.82C529.852 210.82 530.872 209.5 531.172 207.98V210.6H532.472V197.2H531.172V203.64C530.872 202.12 529.852 200.8 527.952 200.8C525.452 200.8 523.952 202.78 523.952 205.8C523.952 208.84 525.452 210.82 527.952 210.82ZM525.292 205.8C525.292 203.12 526.612 201.9 528.352 201.9C530.292 201.9 531.172 203.3 531.172 204.9V206.7C531.172 208.3 530.292 209.72 528.352 209.72C526.612 209.72 525.292 208.5 525.292 205.8ZM542.428 199.28V197.2H541.108V199.28H542.428ZM542.428 210.6V201H541.108V210.6H542.428ZM549.089 210.82C550.329 210.82 551.269 210.24 551.689 209.54L551.229 208.26C550.909 208.94 550.209 209.56 549.349 209.56C548.509 209.56 547.789 209.18 547.789 207.8V202.02H551.009V201H547.789V198.64L546.489 199.62V201H544.929V202.02H546.489V208.16C546.489 209.9 547.629 210.82 549.089 210.82ZM560.447 210.6V205.04C560.447 203.38 561.287 201.9 563.347 201.9C564.987 201.9 565.667 202.86 565.667 204.42V210.6H566.987V204.12C566.987 201.92 565.747 200.8 563.887 200.8C561.927 200.8 560.787 202.12 560.447 203.68V197.2H559.127V210.6H560.447ZM572.372 210.8C574.292 210.8 575.532 209.32 575.852 207.94V208.96C575.852 210.18 576.492 210.6 577.452 210.6H578.352V209.42H577.792C577.332 209.42 577.112 209.24 577.112 208.74V204.24C577.112 202.1 575.952 200.8 573.712 200.8C571.672 200.8 570.272 201.94 569.672 202.94L570.592 203.86C571.092 202.8 572.132 201.98 573.572 201.98C575.132 201.98 575.812 202.82 575.812 204.26V204.34L572.172 206C570.832 206.6 569.892 207.4 569.892 208.66C569.892 209.94 570.792 210.8 572.372 210.8ZM571.212 208.48C571.212 207.76 571.692 207.28 572.732 206.8L575.852 205.32V207.02C575.852 208.32 574.532 209.7 572.752 209.7C571.812 209.7 571.212 209.28 571.212 208.48ZM584.579 210.8C586.359 210.8 587.919 209.98 587.919 208.14C587.919 206.78 587.119 205.96 585.119 205.46L583.839 205.14C582.439 204.8 581.719 204.44 581.719 203.44C581.719 202.44 582.539 201.9 583.699 201.9C585.199 201.9 586.199 202.62 586.639 203.92L587.639 203.18C587.159 201.82 585.819 200.8 583.779 200.8C581.799 200.8 580.479 201.84 580.479 203.5C580.479 205.22 581.899 205.86 583.279 206.2L584.579 206.5C585.879 206.8 586.739 207.16 586.739 208.16C586.739 209.16 585.899 209.68 584.619 209.68C582.679 209.68 581.479 208.6 581.179 207.3L580.199 208.04C580.779 209.92 582.619 210.8 584.579 210.8ZM599.692 207.64C601.932 207.64 603.412 206.22 603.412 204.22C603.412 203.04 602.892 202.06 601.992 201.44L603.712 199.38L602.332 198.86L601.552 201.18C601.012 200.94 600.392 200.8 599.692 200.8C597.472 200.8 595.972 202.22 595.972 204.22C595.972 205.44 596.532 206.44 597.452 207.04C596.652 207.66 596.052 208.46 596.052 209.24C596.052 209.82 596.372 210.28 597.032 210.46C596.272 210.76 595.312 211.38 595.312 212.38C595.312 213.7 596.832 214.52 599.272 214.52C602.352 214.52 604.192 213.24 604.192 211.46C604.192 210.06 603.152 209.38 601.472 209.38H598.492C597.452 209.38 597.132 209.06 597.132 208.52C597.132 208.06 597.432 207.56 597.732 207.2C598.292 207.48 598.952 207.64 599.692 207.64ZM599.692 206.62C598.272 206.62 597.252 205.68 597.252 204.22C597.252 202.76 598.272 201.82 599.692 201.82C601.132 201.82 602.152 202.76 602.152 204.22C602.152 205.68 601.132 206.62 599.692 206.62ZM599.272 213.48C597.452 213.48 596.392 212.94 596.392 212C596.392 211.38 596.912 210.82 597.392 210.52H601.292C602.432 210.52 602.972 210.86 602.972 211.62C602.972 212.72 601.592 213.48 599.272 213.48ZM609.772 210.8C611.752 210.8 612.832 209.46 613.172 207.86V210.6H614.472V201H613.172V206.54C613.172 208.22 612.372 209.68 610.292 209.68C608.652 209.68 607.932 208.72 607.932 207.18V201H606.632V207.46C606.632 209.68 607.892 210.8 609.772 210.8ZM619.937 210.8C621.857 210.8 623.097 209.32 623.417 207.94V208.96C623.417 210.18 624.057 210.6 625.017 210.6H625.917V209.42H625.357C624.897 209.42 624.677 209.24 624.677 208.74V204.24C624.677 202.1 623.517 200.8 621.277 200.8C619.237 200.8 617.837 201.94 617.237 202.94L618.157 203.86C618.657 202.8 619.697 201.98 621.137 201.98C622.697 201.98 623.377 202.82 623.377 204.26V204.34L619.737 206C618.397 206.6 617.457 207.4 617.457 208.66C617.457 209.94 618.357 210.8 619.937 210.8ZM618.777 208.48C618.777 207.76 619.257 207.28 620.297 206.8L623.417 205.32V207.02C623.417 208.32 622.097 209.7 620.317 209.7C619.377 209.7 618.777 209.28 618.777 208.48ZM630.077 210.6V205.04C630.077 203.38 631.217 201.78 632.657 201.78C633.537 201.78 633.897 202.34 633.897 202.96C633.897 203.54 633.657 204.16 633.397 204.46H634.817C634.997 204.14 635.177 203.54 635.177 202.82C635.177 201.5 634.257 200.78 633.137 200.78C631.497 200.78 630.437 202.1 630.077 203.62V201H628.757V210.6H630.077ZM639.443 210.8C641.363 210.8 642.603 209.32 642.923 207.94V208.96C642.923 210.18 643.563 210.6 644.523 210.6H645.423V209.42H644.863C644.403 209.42 644.183 209.24 644.183 208.74V204.24C644.183 202.1 643.023 200.8 640.783 200.8C638.743 200.8 637.343 201.94 636.743 202.94L637.663 203.86C638.163 202.8 639.203 201.98 640.643 201.98C642.203 201.98 642.883 202.82 642.883 204.26V204.34L639.243 206C637.903 206.6 636.963 207.4 636.963 208.66C636.963 209.94 637.863 210.8 639.443 210.8ZM638.283 208.48C638.283 207.76 638.763 207.28 639.803 206.8L642.923 205.32V207.02C642.923 208.32 641.603 209.7 639.823 209.7C638.883 209.7 638.283 209.28 638.283 208.48ZM649.584 210.6V205.04C649.584 203.38 650.404 201.9 652.424 201.9C654.084 201.9 654.804 202.86 654.804 204.42V210.6H656.124V204.12C656.124 201.92 654.844 200.8 652.944 200.8C651.024 200.8 649.924 202.12 649.584 203.68V201H648.264V210.6H649.584ZM662.417 210.82C663.657 210.82 664.597 210.24 665.017 209.54L664.557 208.26C664.237 208.94 663.537 209.56 662.677 209.56C661.837 209.56 661.117 209.18 661.117 207.8V202.02H664.337V201H661.117V198.64L659.817 199.62V201H658.257V202.02H659.817V208.16C659.817 209.9 660.957 210.82 662.417 210.82ZM670.794 210.8C672.834 210.8 674.114 209.82 674.794 208.64L673.994 207.7C673.574 208.64 672.734 209.7 670.794 209.7C668.894 209.7 667.594 208.5 667.514 206.1H674.834C674.854 205.94 674.894 205.7 674.894 205.46C674.894 202.56 673.254 200.8 670.634 200.8C668.034 200.8 666.254 202.68 666.254 205.8C666.254 208.98 668.114 210.8 670.794 210.8ZM670.634 201.88C672.394 201.88 673.574 202.98 673.694 205.14H667.534C667.714 202.98 668.874 201.88 670.634 201.88ZM682.139 210.8C684.179 210.8 685.459 209.82 686.139 208.64L685.339 207.7C684.919 208.64 684.079 209.7 682.139 209.7C680.239 209.7 678.939 208.5 678.859 206.1H686.179C686.199 205.94 686.239 205.7 686.239 205.46C686.239 202.56 684.599 200.8 681.979 200.8C679.379 200.8 677.599 202.68 677.599 205.8C677.599 208.98 679.459 210.8 682.139 210.8ZM681.979 201.88C683.739 201.88 684.919 202.98 685.039 205.14H678.879C679.059 202.98 680.219 201.88 681.979 201.88ZM692.904 210.82C694.804 210.82 695.824 209.5 696.124 207.98V210.6H697.424V197.2H696.124V203.64C695.824 202.12 694.804 200.8 692.904 200.8C690.404 200.8 688.904 202.78 688.904 205.8C688.904 208.84 690.404 210.82 692.904 210.82ZM690.244 205.8C690.244 203.12 691.564 201.9 693.304 201.9C695.244 201.9 696.124 203.3 696.124 204.9V206.7C696.124 208.3 695.244 209.72 693.304 209.72C691.564 209.72 690.244 208.5 690.244 205.8ZM27.2738 243.6L28.8938 239.48H34.9138L36.5338 243.6H37.9938L32.6138 230.2H31.2738L25.8938 243.6H27.2738ZM31.2138 233.62L31.9138 231.54L32.6138 233.62L34.4538 238.32H29.3538L31.2138 233.62ZM41.2688 243.6V230.2H39.9488V243.6H41.2688ZM48.8824 238.22V237.28H44.4024V238.22H48.8824ZM53.2315 243.6V241.08C53.5515 242.56 54.5915 243.82 56.4315 243.82C58.9515 243.82 60.4515 241.84 60.4515 238.8C60.4515 235.78 58.9515 233.8 56.4315 233.8C54.5915 233.8 53.5515 235.06 53.2315 236.54V230.2H51.9115V243.6H53.2315ZM53.2315 239.7V237.9C53.2315 236.3 54.0915 234.9 56.0315 234.9C57.7915 234.9 59.1115 236.12 59.1115 238.8C59.1115 241.5 57.7915 242.72 56.0315 242.72C54.0915 242.72 53.2315 241.3 53.2315 239.7ZM65.3514 243.8C67.2714 243.8 68.5114 242.32 68.8314 240.94V241.96C68.8314 243.18 69.4714 243.6 70.4314 243.6H71.3314V242.42H70.7714C70.3114 242.42 70.0914 242.24 70.0914 241.74V237.24C70.0914 235.1 68.9314 233.8 66.6914 233.8C64.6514 233.8 63.2514 234.94 62.6514 235.94L63.5714 236.86C64.0714 235.8 65.1114 234.98 66.5514 234.98C68.1114 234.98 68.7914 235.82 68.7914 237.26V237.34L65.1514 239C63.8114 239.6 62.8714 240.4 62.8714 241.66C62.8714 242.94 63.7714 243.8 65.3514 243.8ZM64.1914 241.48C64.1914 240.76 64.6714 240.28 65.7114 239.8L68.8314 238.32V240.02C68.8314 241.32 67.5114 242.7 65.7314 242.7C64.7914 242.7 64.1914 242.28 64.1914 241.48ZM77.5588 243.8C79.3388 243.8 80.8988 242.98 80.8988 241.14C80.8988 239.78 80.0988 238.96 78.0988 238.46L76.8188 238.14C75.4188 237.8 74.6988 237.44 74.6988 236.44C74.6988 235.44 75.5188 234.9 76.6788 234.9C78.1788 234.9 79.1788 235.62 79.6188 236.92L80.6188 236.18C80.1388 234.82 78.7988 233.8 76.7588 233.8C74.7788 233.8 73.4588 234.84 73.4588 236.5C73.4588 238.22 74.8788 238.86 76.2588 239.2L77.5588 239.5C78.8588 239.8 79.7188 240.16 79.7188 241.16C79.7188 242.16 78.8788 242.68 77.5988 242.68C75.6588 242.68 74.4588 241.6 74.1588 240.3L73.1788 241.04C73.7588 242.92 75.5988 243.8 77.5588 243.8ZM87.6423 243.8C89.6823 243.8 90.9623 242.82 91.6423 241.64L90.8423 240.7C90.4223 241.64 89.5823 242.7 87.6423 242.7C85.7423 242.7 84.4423 241.5 84.3623 239.1H91.6823C91.7023 238.94 91.7423 238.7 91.7423 238.46C91.7423 235.56 90.1023 233.8 87.4823 233.8C84.8823 233.8 83.1023 235.68 83.1023 238.8C83.1023 241.98 84.9623 243.8 87.6423 243.8ZM87.4823 234.88C89.2423 234.88 90.4223 235.98 90.5423 238.14H84.3823C84.5623 235.98 85.7223 234.88 87.4823 234.88ZM98.4073 243.82C100.307 243.82 101.327 242.5 101.627 240.98V243.6H102.927V230.2H101.627V236.64C101.327 235.12 100.307 233.8 98.4073 233.8C95.9073 233.8 94.4073 235.78 94.4073 238.8C94.4073 241.84 95.9073 243.82 98.4073 243.82ZM95.7473 238.8C95.7473 236.12 97.0673 234.9 98.8073 234.9C100.747 234.9 101.627 236.3 101.627 237.9V239.7C101.627 241.3 100.747 242.72 98.8073 242.72C97.0673 242.72 95.7473 241.5 95.7473 238.8ZM115.004 243.82C116.904 243.82 117.924 242.5 118.224 240.98V243.6H119.524V230.2H118.224V236.64C117.924 235.12 116.904 233.8 115.004 233.8C112.504 233.8 111.004 235.78 111.004 238.8C111.004 241.84 112.504 243.82 115.004 243.82ZM112.344 238.8C112.344 236.12 113.664 234.9 115.404 234.9C117.344 234.9 118.224 236.3 118.224 237.9V239.7C118.224 241.3 117.344 242.72 115.404 242.72C113.664 242.72 112.344 241.5 112.344 238.8ZM124.925 243.8C126.845 243.8 128.085 242.32 128.405 240.94V241.96C128.405 243.18 129.045 243.6 130.005 243.6H130.905V242.42H130.345C129.885 242.42 129.665 242.24 129.665 241.74V237.24C129.665 235.1 128.505 233.8 126.265 233.8C124.225 233.8 122.825 234.94 122.225 235.94L123.145 236.86C123.645 235.8 124.685 234.98 126.125 234.98C127.685 234.98 128.365 235.82 128.365 237.26V237.34L124.725 239C123.385 239.6 122.445 240.4 122.445 241.66C122.445 242.94 123.345 243.8 124.925 243.8ZM123.765 241.48C123.765 240.76 124.245 240.28 125.285 239.8L128.405 238.32V240.02C128.405 241.32 127.085 242.7 125.305 242.7C124.365 242.7 123.765 242.28 123.765 241.48ZM136.593 243.82C137.833 243.82 138.773 243.24 139.193 242.54L138.733 241.26C138.413 241.94 137.713 242.56 136.853 242.56C136.013 242.56 135.293 242.18 135.293 240.8V235.02H138.513V234H135.293V231.64L133.993 232.62V234H132.433V235.02H133.993V241.16C133.993 242.9 135.133 243.82 136.593 243.82ZM143.26 243.8C145.18 243.8 146.42 242.32 146.74 240.94V241.96C146.74 243.18 147.38 243.6 148.34 243.6H149.24V242.42H148.68C148.22 242.42 148 242.24 148 241.74V237.24C148 235.1 146.84 233.8 144.6 233.8C142.56 233.8 141.16 234.94 140.56 235.94L141.48 236.86C141.98 235.8 143.02 234.98 144.46 234.98C146.02 234.98 146.7 235.82 146.7 237.26V237.34L143.06 239C141.72 239.6 140.78 240.4 140.78 241.66C140.78 242.94 141.68 243.8 143.26 243.8ZM142.1 241.48C142.1 240.76 142.58 240.28 143.62 239.8L146.74 238.32V240.02C146.74 241.32 145.42 242.7 143.64 242.7C142.7 242.7 142.1 242.28 142.1 241.48ZM160.875 243.8C162.655 243.8 164.215 242.98 164.215 241.14C164.215 239.78 163.415 238.96 161.415 238.46L160.135 238.14C158.735 237.8 158.015 237.44 158.015 236.44C158.015 235.44 158.835 234.9 159.995 234.9C161.495 234.9 162.495 235.62 162.935 236.92L163.935 236.18C163.455 234.82 162.115 233.8 160.075 233.8C158.095 233.8 156.775 234.84 156.775 236.5C156.775 238.22 158.195 238.86 159.575 239.2L160.875 239.5C162.175 239.8 163.035 240.16 163.035 241.16C163.035 242.16 162.195 242.68 160.915 242.68C158.975 242.68 157.775 241.6 157.475 240.3L156.495 241.04C157.075 242.92 158.915 243.8 160.875 243.8ZM170.958 243.8C172.998 243.8 174.278 242.82 174.958 241.64L174.158 240.7C173.738 241.64 172.898 242.7 170.958 242.7C169.058 242.7 167.758 241.5 167.678 239.1H174.998C175.018 238.94 175.058 238.7 175.058 238.46C175.058 235.56 173.418 233.8 170.798 233.8C168.198 233.8 166.418 235.68 166.418 238.8C166.418 241.98 168.278 243.8 170.958 243.8ZM170.798 234.88C172.558 234.88 173.738 235.98 173.858 238.14H167.698C167.878 235.98 169.038 234.88 170.798 234.88ZM182.203 243.8C184.603 243.8 186.103 242.4 186.483 240.46L185.223 239.92C185.023 241.54 184.063 242.7 182.223 242.7C180.323 242.7 179.063 241.34 179.063 238.8C179.063 236.24 180.323 234.88 182.223 234.88C184.063 234.88 185.023 236.06 185.223 237.68L186.483 237.14C186.103 235.2 184.603 233.8 182.223 233.8C179.503 233.8 177.723 235.68 177.723 238.8C177.723 241.92 179.503 243.8 182.203 243.8ZM192.259 243.8C194.239 243.8 195.319 242.46 195.659 240.86V243.6H196.959V234H195.659V239.54C195.659 241.22 194.859 242.68 192.779 242.68C191.139 242.68 190.419 241.72 190.419 240.18V234H189.119V240.46C189.119 242.68 190.379 243.8 192.259 243.8ZM201.805 243.6V238.04C201.805 236.38 202.945 234.78 204.385 234.78C205.265 234.78 205.625 235.34 205.625 235.96C205.625 236.54 205.385 237.16 205.125 237.46H206.545C206.725 237.14 206.905 236.54 206.905 235.82C206.905 234.5 205.985 233.78 204.865 233.78C203.225 233.78 202.165 235.1 201.805 236.62V234H200.485V243.6H201.805ZM210.748 232.28V230.2H209.428V232.28H210.748ZM210.748 243.6V234H209.428V243.6H210.748ZM217.409 243.82C218.649 243.82 219.589 243.24 220.009 242.54L219.549 241.26C219.229 241.94 218.529 242.56 217.669 242.56C216.829 242.56 216.109 242.18 216.109 240.8V235.02H219.329V234H216.109V231.64L214.809 232.62V234H213.249V235.02H214.809V241.16C214.809 242.9 215.949 243.82 217.409 243.82ZM222.963 246.98C224.263 246.98 225.203 246.28 225.763 244.74L229.823 234H228.443L226.043 240.58L225.343 242.56L224.663 240.58L222.243 234H220.843L224.363 243.28L225.103 243.26L224.743 244.22C224.323 245.4 223.763 245.82 222.983 245.82C222.103 245.82 221.563 245.28 221.163 244.5L220.423 245.46C220.783 246.18 221.663 246.98 222.963 246.98ZM232.319 243.6V241.24H230.739V243.6H232.319ZM242.087 243.6V238.94H245.887C248.507 238.94 250.587 237.5 250.587 234.66C250.587 231.64 248.507 230.2 245.887 230.2H240.767V243.6H242.087ZM245.687 231.36C247.567 231.36 249.247 232.18 249.247 234.66C249.247 236.96 247.567 237.78 245.687 237.78H242.087V231.36H245.687ZM254.286 243.6V238.04C254.286 236.38 255.426 234.78 256.866 234.78C257.746 234.78 258.106 235.34 258.106 235.96C258.106 236.54 257.866 237.16 257.606 237.46H259.026C259.206 237.14 259.386 236.54 259.386 235.82C259.386 234.5 258.466 233.78 257.346 233.78C255.706 233.78 254.646 235.1 254.286 236.62V234H252.966V243.6H254.286ZM265.437 243.8C268.077 243.8 269.937 241.84 269.937 238.8C269.937 235.76 268.077 233.8 265.437 233.8C262.797 233.8 260.957 235.76 260.957 238.8C260.957 241.84 262.797 243.8 265.437 243.8ZM265.437 242.68C263.557 242.68 262.277 241.34 262.277 238.8C262.277 236.24 263.557 234.88 265.437 234.88C267.337 234.88 268.617 236.24 268.617 238.8C268.617 241.34 267.337 242.68 265.437 242.68ZM276.996 243.8C279.636 243.8 281.496 241.84 281.496 238.8C281.496 235.76 279.636 233.8 276.996 233.8C274.356 233.8 272.516 235.76 272.516 238.8C272.516 241.84 274.356 243.8 276.996 243.8ZM276.996 242.68C275.116 242.68 273.836 241.34 273.836 238.8C273.836 236.24 275.116 234.88 276.996 234.88C278.896 234.88 280.176 236.24 280.176 238.8C280.176 241.34 278.896 242.68 276.996 242.68ZM286.364 243.6V235.02H289.564V234H286.364V232.78C286.364 231.62 286.944 231.1 287.884 231.1C288.764 231.1 289.484 231.62 289.884 232.34L290.584 231.38C290.184 230.72 289.264 230 287.904 230C286.264 230 285.064 230.94 285.064 232.88V234H283.484V235.02H285.064V243.6H286.364ZM300.68 243.8C303.32 243.8 305.18 241.84 305.18 238.8C305.18 235.76 303.32 233.8 300.68 233.8C298.04 233.8 296.2 235.76 296.2 238.8C296.2 241.84 298.04 243.8 300.68 243.8ZM300.68 242.68C298.8 242.68 297.52 241.34 297.52 238.8C297.52 236.24 298.8 234.88 300.68 234.88C302.58 234.88 303.86 236.24 303.86 238.8C303.86 241.34 302.58 242.68 300.68 242.68ZM310.048 243.6V235.02H313.248V234H310.048V232.78C310.048 231.62 310.628 231.1 311.568 231.1C312.448 231.1 313.168 231.62 313.568 232.34L314.268 231.38C313.868 230.72 312.948 230 311.588 230C309.948 230 308.748 230.94 308.748 232.88V234H307.168V235.02H308.748V243.6H310.048ZM325.683 243.78C328.143 243.78 330.083 242.5 330.083 240.16C330.083 237.7 328.223 236.9 326.163 236.42L324.583 236.04C322.843 235.62 321.863 235.02 321.863 233.56C321.863 232.1 323.163 231.26 324.783 231.26C326.723 231.26 328.163 232.14 328.783 234.02L329.883 233.14C329.103 231.12 327.263 230.02 324.803 230.02C322.543 230.02 320.483 231.28 320.483 233.66C320.483 236 322.283 236.82 324.163 237.26L325.623 237.58C327.663 238.06 328.763 238.62 328.763 240.2C328.763 241.9 327.323 242.56 325.683 242.56C323.923 242.56 321.743 241.72 321.103 239.42L320.083 240.3C320.943 242.78 323.263 243.78 325.683 243.78ZM335.965 243.82C337.205 243.82 338.145 243.24 338.565 242.54L338.105 241.26C337.785 241.94 337.085 242.56 336.225 242.56C335.385 242.56 334.665 242.18 334.665 240.8V235.02H337.885V234H334.665V231.64L333.365 232.62V234H331.805V235.02H333.365V241.16C333.365 242.9 334.505 243.82 335.965 243.82ZM342.632 243.8C344.552 243.8 345.792 242.32 346.112 240.94V241.96C346.112 243.18 346.752 243.6 347.712 243.6H348.612V242.42H348.052C347.592 242.42 347.372 242.24 347.372 241.74V237.24C347.372 235.1 346.212 233.8 343.972 233.8C341.932 233.8 340.532 234.94 339.932 235.94L340.852 236.86C341.352 235.8 342.392 234.98 343.832 234.98C345.392 234.98 346.072 235.82 346.072 237.26V237.34L342.432 239C341.092 239.6 340.152 240.4 340.152 241.66C340.152 242.94 341.052 243.8 342.632 243.8ZM341.472 241.48C341.472 240.76 341.952 240.28 342.992 239.8L346.112 238.32V240.02C346.112 241.32 344.792 242.7 343.012 242.7C342.072 242.7 341.472 242.28 341.472 241.48ZM352.773 243.6V240.08L354.573 238.38L357.833 243.6H359.433L355.473 237.6L359.353 234H357.693L353.973 237.44L352.713 238.68L352.773 237.48V230.2H351.453V243.6H352.773ZM365.47 243.8C367.51 243.8 368.79 242.82 369.47 241.64L368.67 240.7C368.25 241.64 367.41 242.7 365.47 242.7C363.57 242.7 362.27 241.5 362.19 239.1H369.51C369.53 238.94 369.57 238.7 369.57 238.46C369.57 235.56 367.93 233.8 365.31 233.8C362.71 233.8 360.93 235.68 360.93 238.8C360.93 241.98 362.79 243.8 365.47 243.8ZM365.31 234.88C367.07 234.88 368.25 235.98 368.37 238.14H362.21C362.39 235.98 363.55 234.88 365.31 234.88ZM372.303 245.3C373.343 245.16 373.663 244.66 373.663 243.68V241.24H372.083V243.6H372.823V243.86C372.823 244.38 372.563 244.5 372.003 244.58L372.303 245.3ZM383.231 232.28V230.2H381.911V232.28H383.231ZM383.231 243.6V234H381.911V243.6H383.231ZM389.892 243.82C391.132 243.82 392.072 243.24 392.492 242.54L392.032 241.26C391.712 241.94 391.012 242.56 390.152 242.56C389.312 242.56 388.592 242.18 388.592 240.8V235.02H391.812V234H388.592V231.64L387.292 232.62V234H385.732V235.02H387.292V241.16C387.292 242.9 388.432 243.82 389.892 243.82ZM398.222 243.8C400.002 243.8 401.562 242.98 401.562 241.14C401.562 239.78 400.762 238.96 398.762 238.46L397.482 238.14C396.082 237.8 395.362 237.44 395.362 236.44C395.362 235.44 396.182 234.9 397.342 234.9C398.842 234.9 399.842 235.62 400.282 236.92L401.282 236.18C400.802 234.82 399.462 233.8 397.422 233.8C395.442 233.8 394.122 234.84 394.122 236.5C394.122 238.22 395.542 238.86 396.922 239.2L398.222 239.5C399.522 239.8 400.382 240.16 400.382 241.16C400.382 242.16 399.542 242.68 398.262 242.68C396.322 242.68 395.122 241.6 394.822 240.3L393.842 241.04C394.422 242.92 396.262 243.8 398.222 243.8ZM413.535 243.8C415.935 243.8 417.435 242.4 417.815 240.46L416.555 239.92C416.355 241.54 415.395 242.7 413.555 242.7C411.655 242.7 410.395 241.34 410.395 238.8C410.395 236.24 411.655 234.88 413.555 234.88C415.395 234.88 416.355 236.06 416.555 237.68L417.815 237.14C417.435 235.2 415.935 233.8 413.555 233.8C410.835 233.8 409.055 235.68 409.055 238.8C409.055 241.92 410.835 243.8 413.535 243.8ZM424.507 243.8C427.147 243.8 429.007 241.84 429.007 238.8C429.007 235.76 427.147 233.8 424.507 233.8C421.867 233.8 420.027 235.76 420.027 238.8C420.027 241.84 421.867 243.8 424.507 243.8ZM424.507 242.68C422.627 242.68 421.347 241.34 421.347 238.8C421.347 236.24 422.627 234.88 424.507 234.88C426.407 234.88 427.687 236.24 427.687 238.8C427.687 241.34 426.407 242.68 424.507 242.68ZM433.352 243.6V238.04C433.352 236.38 434.172 234.9 436.192 234.9C437.852 234.9 438.572 235.86 438.572 237.42V243.6H439.892V237.12C439.892 234.92 438.612 233.8 436.712 233.8C434.792 233.8 433.692 235.12 433.352 236.68V234H432.032V243.6H433.352ZM446.725 243.8C448.505 243.8 450.065 242.98 450.065 241.14C450.065 239.78 449.265 238.96 447.265 238.46L445.985 238.14C444.585 237.8 443.865 237.44 443.865 236.44C443.865 235.44 444.685 234.9 445.845 234.9C447.345 234.9 448.345 235.62 448.785 236.92L449.785 236.18C449.305 234.82 447.965 233.8 445.925 233.8C443.945 233.8 442.625 234.84 442.625 236.5C442.625 238.22 444.045 238.86 445.425 239.2L446.725 239.5C448.025 239.8 448.885 240.16 448.885 241.16C448.885 242.16 448.045 242.68 446.765 242.68C444.825 242.68 443.625 241.6 443.325 240.3L442.345 241.04C442.925 242.92 444.765 243.8 446.725 243.8ZM456.808 243.8C458.848 243.8 460.128 242.82 460.808 241.64L460.008 240.7C459.588 241.64 458.748 242.7 456.808 242.7C454.908 242.7 453.608 241.5 453.528 239.1H460.848C460.868 238.94 460.908 238.7 460.908 238.46C460.908 235.56 459.268 233.8 456.648 233.8C454.048 233.8 452.268 235.68 452.268 238.8C452.268 241.98 454.128 243.8 456.808 243.8ZM456.648 234.88C458.408 234.88 459.588 235.98 459.708 238.14H453.548C453.728 235.98 454.888 234.88 456.648 234.88ZM465.258 243.6V238.04C465.258 236.38 466.078 234.9 468.098 234.9C469.758 234.9 470.478 235.86 470.478 237.42V243.6H471.798V237.12C471.798 234.92 470.518 233.8 468.618 233.8C466.698 233.8 465.598 235.12 465.258 236.68V234H463.938V243.6H465.258ZM478.631 243.8C480.411 243.8 481.971 242.98 481.971 241.14C481.971 239.78 481.171 238.96 479.171 238.46L477.891 238.14C476.491 237.8 475.771 237.44 475.771 236.44C475.771 235.44 476.591 234.9 477.751 234.9C479.251 234.9 480.251 235.62 480.691 236.92L481.691 236.18C481.211 234.82 479.871 233.8 477.831 233.8C475.851 233.8 474.531 234.84 474.531 236.5C474.531 238.22 475.951 238.86 477.331 239.2L478.631 239.5C479.931 239.8 480.791 240.16 480.791 241.16C480.791 242.16 479.951 242.68 478.671 242.68C476.731 242.68 475.531 241.6 475.231 240.3L474.251 241.04C474.831 242.92 476.671 243.8 478.631 243.8ZM487.774 243.8C489.754 243.8 490.834 242.46 491.174 240.86V243.6H492.474V234H491.174V239.54C491.174 241.22 490.374 242.68 488.294 242.68C486.654 242.68 485.934 241.72 485.934 240.18V234H484.634V240.46C484.634 242.68 485.894 243.8 487.774 243.8ZM499.387 243.8C501.167 243.8 502.727 242.98 502.727 241.14C502.727 239.78 501.927 238.96 499.927 238.46L498.647 238.14C497.247 237.8 496.527 237.44 496.527 236.44C496.527 235.44 497.347 234.9 498.507 234.9C500.007 234.9 501.007 235.62 501.447 236.92L502.447 236.18C501.967 234.82 500.627 233.8 498.587 233.8C496.607 233.8 495.287 234.84 495.287 236.5C495.287 238.22 496.707 238.86 498.087 239.2L499.387 239.5C500.687 239.8 501.547 240.16 501.547 241.16C501.547 242.16 500.707 242.68 499.427 242.68C497.487 242.68 496.287 241.6 495.987 240.3L495.007 241.04C495.587 242.92 497.427 243.8 499.387 243.8ZM512.66 243.8C514.58 243.8 515.82 242.32 516.14 240.94V241.96C516.14 243.18 516.78 243.6 517.74 243.6H518.64V242.42H518.08C517.62 242.42 517.4 242.24 517.4 241.74V237.24C517.4 235.1 516.24 233.8 514 233.8C511.96 233.8 510.56 234.94 509.96 235.94L510.88 236.86C511.38 235.8 512.42 234.98 513.86 234.98C515.42 234.98 516.1 235.82 516.1 237.26V237.34L512.46 239C511.12 239.6 510.18 240.4 510.18 241.66C510.18 242.94 511.08 243.8 512.66 243.8ZM511.5 241.48C511.5 240.76 511.98 240.28 513.02 239.8L516.14 238.32V240.02C516.14 241.32 514.82 242.7 513.04 242.7C512.1 242.7 511.5 242.28 511.5 241.48ZM522.8 243.6V230.2H521.48V243.6H522.8ZM530.042 240.64C532.282 240.64 533.762 239.22 533.762 237.22C533.762 236.04 533.242 235.06 532.342 234.44L534.062 232.38L532.682 231.86L531.902 234.18C531.362 233.94 530.742 233.8 530.042 233.8C527.822 233.8 526.322 235.22 526.322 237.22C526.322 238.44 526.882 239.44 527.802 240.04C527.002 240.66 526.402 241.46 526.402 242.24C526.402 242.82 526.722 243.28 527.382 243.46C526.622 243.76 525.662 244.38 525.662 245.38C525.662 246.7 527.182 247.52 529.622 247.52C532.702 247.52 534.542 246.24 534.542 244.46C534.542 243.06 533.502 242.38 531.822 242.38H528.842C527.802 242.38 527.482 242.06 527.482 241.52C527.482 241.06 527.782 240.56 528.082 240.2C528.642 240.48 529.302 240.64 530.042 240.64ZM530.042 239.62C528.622 239.62 527.602 238.68 527.602 237.22C527.602 235.76 528.622 234.82 530.042 234.82C531.482 234.82 532.502 235.76 532.502 237.22C532.502 238.68 531.482 239.62 530.042 239.62ZM529.622 246.48C527.802 246.48 526.742 245.94 526.742 245C526.742 244.38 527.262 243.82 527.742 243.52H531.642C532.782 243.52 533.322 243.86 533.322 244.62C533.322 245.72 531.942 246.48 529.622 246.48ZM540.803 243.8C543.443 243.8 545.303 241.84 545.303 238.8C545.303 235.76 543.443 233.8 540.803 233.8C538.163 233.8 536.323 235.76 536.323 238.8C536.323 241.84 538.163 243.8 540.803 243.8ZM540.803 242.68C538.923 242.68 537.643 241.34 537.643 238.8C537.643 236.24 538.923 234.88 540.803 234.88C542.703 234.88 543.983 236.24 543.983 238.8C543.983 241.34 542.703 242.68 540.803 242.68ZM549.648 243.6V238.04C549.648 236.38 550.788 234.78 552.228 234.78C553.108 234.78 553.468 235.34 553.468 235.96C553.468 236.54 553.228 237.16 552.968 237.46H554.388C554.568 237.14 554.748 236.54 554.748 235.82C554.748 234.5 553.828 233.78 552.708 233.78C551.068 233.78 550.008 235.1 549.648 236.62V234H548.328V243.6H549.648ZM558.591 232.28V230.2H557.271V232.28H558.591ZM558.591 243.6V234H557.271V243.6H558.591ZM565.252 243.82C566.492 243.82 567.432 243.24 567.852 242.54L567.392 241.26C567.072 241.94 566.372 242.56 565.512 242.56C564.672 242.56 563.952 242.18 563.952 240.8V235.02H567.172V234H563.952V231.64L562.652 232.62V234H561.092V235.02H562.652V241.16C562.652 242.9 563.792 243.82 565.252 243.82ZM571.671 243.6V238.04C571.671 236.38 572.511 234.9 574.571 234.9C576.211 234.9 576.891 235.86 576.891 237.42V243.6H578.211V237.12C578.211 234.92 576.971 233.8 575.111 233.8C573.151 233.8 572.011 235.12 571.671 236.68V230.2H570.351V243.6H571.671ZM582.977 243.6V238.04C582.977 236.38 583.797 234.9 585.497 234.9C586.997 234.9 587.737 235.72 587.737 237.4V243.6H589.037V238.04C589.037 236.38 589.857 234.9 591.577 234.9C593.057 234.9 593.797 235.72 593.797 237.4V243.6H595.117V237.1C595.117 234.9 594.077 233.8 592.237 233.8C590.437 233.8 589.337 235.14 589.017 236.72C588.917 234.78 587.897 233.8 586.157 233.8C584.377 233.8 583.317 235.1 582.977 236.68V234H581.657V243.6H582.977ZM607.684 243.8C609.724 243.8 611.004 242.82 611.684 241.64L610.884 240.7C610.464 241.64 609.624 242.7 607.684 242.7C605.784 242.7 604.484 241.5 604.404 239.1H611.724C611.744 238.94 611.784 238.7 611.784 238.46C611.784 235.56 610.144 233.8 607.524 233.8C604.924 233.8 603.144 235.68 603.144 238.8C603.144 241.98 605.004 243.8 607.684 243.8ZM607.524 234.88C609.284 234.88 610.464 235.98 610.584 238.14H604.424C604.604 235.98 605.764 234.88 607.524 234.88ZM616.133 243.6V238.04C616.133 236.38 616.953 234.9 618.973 234.9C620.633 234.9 621.353 235.86 621.353 237.42V243.6H622.673V237.12C622.673 234.92 621.393 233.8 619.493 233.8C617.573 233.8 616.473 235.12 616.133 236.68V234H614.813V243.6H616.133ZM628.058 243.8C629.978 243.8 631.218 242.32 631.538 240.94V241.96C631.538 243.18 632.178 243.6 633.138 243.6H634.038V242.42H633.478C633.018 242.42 632.798 242.24 632.798 241.74V237.24C632.798 235.1 631.638 233.8 629.398 233.8C627.358 233.8 625.958 234.94 625.358 235.94L626.278 236.86C626.778 235.8 627.818 234.98 629.258 234.98C630.818 234.98 631.498 235.82 631.498 237.26V237.34L627.858 239C626.518 239.6 625.578 240.4 625.578 241.66C625.578 242.94 626.478 243.8 628.058 243.8ZM626.898 241.48C626.898 240.76 627.378 240.28 628.418 239.8L631.538 238.32V240.02C631.538 241.32 630.218 242.7 628.438 242.7C627.498 242.7 626.898 242.28 626.898 241.48ZM638.198 243.6V241.08C638.518 242.56 639.558 243.82 641.398 243.82C643.918 243.82 645.418 241.84 645.418 238.8C645.418 235.78 643.918 233.8 641.398 233.8C639.558 233.8 638.518 235.06 638.198 236.54V230.2H636.878V243.6H638.198ZM638.198 239.7V237.9C638.198 236.3 639.058 234.9 640.998 234.9C642.758 234.9 644.078 236.12 644.078 238.8C644.078 241.5 642.758 242.72 640.998 242.72C639.058 242.72 638.198 241.3 638.198 239.7ZM649.699 243.6V230.2H648.379V243.6H649.699ZM657.241 243.8C659.281 243.8 660.561 242.82 661.241 241.64L660.441 240.7C660.021 241.64 659.181 242.7 657.241 242.7C655.341 242.7 654.041 241.5 653.961 239.1H661.281C661.301 238.94 661.341 238.7 661.341 238.46C661.341 235.56 659.701 233.8 657.081 233.8C654.481 233.8 652.701 235.68 652.701 238.8C652.701 241.98 654.561 243.8 657.241 243.8ZM657.081 234.88C658.841 234.88 660.021 235.98 660.141 238.14H653.981C654.161 235.98 655.321 234.88 657.081 234.88ZM667.914 243.8C669.694 243.8 671.254 242.98 671.254 241.14C671.254 239.78 670.454 238.96 668.454 238.46L667.174 238.14C665.774 237.8 665.054 237.44 665.054 236.44C665.054 235.44 665.874 234.9 667.034 234.9C668.534 234.9 669.534 235.62 669.974 236.92L670.974 236.18C670.494 234.82 669.154 233.8 667.114 233.8C665.134 233.8 663.814 234.84 663.814 236.5C663.814 238.22 665.234 238.86 666.614 239.2L667.914 239.5C669.214 239.8 670.074 240.16 670.074 241.16C670.074 242.16 669.234 242.68 667.954 242.68C666.014 242.68 664.814 241.6 664.514 240.3L663.534 241.04C664.114 242.92 665.954 243.8 667.914 243.8ZM274.311 276.8C276.291 276.8 277.371 275.46 277.711 273.86V276.6H279.011V267H277.711V272.54C277.711 274.22 276.911 275.68 274.831 275.68C273.191 275.68 272.471 274.72 272.471 273.18V267H271.171V273.46C271.171 275.68 272.431 276.8 274.311 276.8ZM283.857 276.6V271.04C283.857 269.38 284.677 267.9 286.697 267.9C288.357 267.9 289.077 268.86 289.077 270.42V276.6H290.397V270.12C290.397 267.92 289.117 266.8 287.217 266.8C285.297 266.8 284.197 268.12 283.857 269.68V267H282.537V276.6H283.857ZM295.163 276.6V263.2H293.843V276.6H295.163ZM300.004 265.28V263.2H298.684V265.28H300.004ZM300.004 276.6V267H298.684V276.6H300.004ZM304.845 276.6V271.04C304.845 269.38 305.665 267.9 307.365 267.9C308.865 267.9 309.605 268.72 309.605 270.4V276.6H310.905V271.04C310.905 269.38 311.725 267.9 313.445 267.9C314.925 267.9 315.665 268.72 315.665 270.4V276.6H316.985V270.1C316.985 267.9 315.945 266.8 314.105 266.8C312.305 266.8 311.205 268.14 310.885 269.72C310.785 267.78 309.765 266.8 308.025 266.8C306.245 266.8 305.185 268.1 304.845 269.68V267H303.525V276.6H304.845ZM321.737 265.28V263.2H320.417V265.28H321.737ZM321.737 276.6V267H320.417V276.6H321.737ZM328.398 276.82C329.638 276.82 330.578 276.24 330.998 275.54L330.538 274.26C330.218 274.94 329.518 275.56 328.658 275.56C327.818 275.56 327.098 275.18 327.098 273.8V268.02H330.318V267H327.098V264.64L325.798 265.62V267H324.238V268.02H325.798V274.16C325.798 275.9 326.938 276.82 328.398 276.82ZM336.776 276.8C338.816 276.8 340.096 275.82 340.776 274.64L339.976 273.7C339.556 274.64 338.716 275.7 336.776 275.7C334.876 275.7 333.576 274.5 333.496 272.1H340.816C340.836 271.94 340.876 271.7 340.876 271.46C340.876 268.56 339.236 266.8 336.616 266.8C334.016 266.8 332.236 268.68 332.236 271.8C332.236 274.98 334.096 276.8 336.776 276.8ZM336.616 267.88C338.376 267.88 339.556 268.98 339.676 271.14H333.516C333.696 268.98 334.856 267.88 336.616 267.88ZM347.541 276.82C349.441 276.82 350.461 275.5 350.761 273.98V276.6H352.061V263.2H350.761V269.64C350.461 268.12 349.441 266.8 347.541 266.8C345.041 266.8 343.541 268.78 343.541 271.8C343.541 274.84 345.041 276.82 347.541 276.82ZM344.881 271.8C344.881 269.12 346.201 267.9 347.941 267.9C349.881 267.9 350.761 269.3 350.761 270.9V272.7C350.761 274.3 349.881 275.72 347.941 275.72C346.201 275.72 344.881 274.5 344.881 271.8ZM364.377 276.8C366.157 276.8 367.717 275.98 367.717 274.14C367.717 272.78 366.917 271.96 364.917 271.46L363.637 271.14C362.237 270.8 361.517 270.44 361.517 269.44C361.517 268.44 362.337 267.9 363.497 267.9C364.997 267.9 365.997 268.62 366.437 269.92L367.437 269.18C366.957 267.82 365.617 266.8 363.577 266.8C361.597 266.8 360.277 267.84 360.277 269.5C360.277 271.22 361.697 271.86 363.077 272.2L364.377 272.5C365.677 272.8 366.537 273.16 366.537 274.16C366.537 275.16 365.697 275.68 364.417 275.68C362.477 275.68 361.277 274.6 360.977 273.3L359.997 274.04C360.577 275.92 362.417 276.8 364.377 276.8ZM371.975 280.32V274.06C372.295 275.54 373.335 276.8 375.175 276.8C377.675 276.8 379.175 274.82 379.175 271.78C379.175 268.76 377.675 266.76 375.175 266.76C373.335 266.76 372.295 268.02 371.975 269.52V267H370.655V280.32H371.975ZM371.975 272.68V270.88C371.975 269.28 372.835 267.88 374.775 267.88C376.515 267.88 377.835 269.08 377.835 271.78C377.835 274.48 376.515 275.68 374.775 275.68C372.835 275.68 371.975 274.28 371.975 272.68ZM386.313 276.8C388.353 276.8 389.633 275.82 390.313 274.64L389.513 273.7C389.093 274.64 388.253 275.7 386.313 275.7C384.413 275.7 383.113 274.5 383.033 272.1H390.353C390.373 271.94 390.413 271.7 390.413 271.46C390.413 268.56 388.773 266.8 386.153 266.8C383.553 266.8 381.773 268.68 381.773 271.8C381.773 274.98 383.633 276.8 386.313 276.8ZM386.153 267.88C387.913 267.88 389.093 268.98 389.213 271.14H383.053C383.233 268.98 384.393 267.88 386.153 267.88ZM397.658 276.8C399.698 276.8 400.978 275.82 401.658 274.64L400.858 273.7C400.438 274.64 399.598 275.7 397.658 275.7C395.758 275.7 394.458 274.5 394.378 272.1H401.698C401.718 271.94 401.758 271.7 401.758 271.46C401.758 268.56 400.118 266.8 397.498 266.8C394.898 266.8 393.118 268.68 393.118 271.8C393.118 274.98 394.978 276.8 397.658 276.8ZM397.498 267.88C399.258 267.88 400.438 268.98 400.558 271.14H394.398C394.578 268.98 395.738 267.88 397.498 267.88ZM408.423 276.82C410.323 276.82 411.343 275.5 411.643 273.98V276.6H412.943V263.2H411.643V269.64C411.343 268.12 410.323 266.8 408.423 266.8C405.923 266.8 404.423 268.78 404.423 271.8C404.423 274.84 405.923 276.82 408.423 276.82ZM405.763 271.8C405.763 269.12 407.083 267.9 408.823 267.9C410.763 267.9 411.643 269.3 411.643 270.9V272.7C411.643 274.3 410.763 275.72 408.823 275.72C407.083 275.72 405.763 274.5 405.763 271.8ZM420.145 276.8C421.925 276.8 423.485 275.98 423.485 274.14C423.485 272.78 422.685 271.96 420.685 271.46L419.405 271.14C418.005 270.8 417.285 270.44 417.285 269.44C417.285 268.44 418.105 267.9 419.265 267.9C420.765 267.9 421.765 268.62 422.205 269.92L423.205 269.18C422.725 267.82 421.385 266.8 419.345 266.8C417.365 266.8 416.045 267.84 416.045 269.5C416.045 271.22 417.465 271.86 418.845 272.2L420.145 272.5C421.445 272.8 422.305 273.16 422.305 274.16C422.305 275.16 421.465 275.68 420.185 275.68C418.245 275.68 417.045 274.6 416.745 273.3L415.765 274.04C416.345 275.92 418.185 276.8 420.145 276.8ZM427.701 276.6V274.24H426.121V276.6H427.701Z" fill="white"/>
<rect x="164.773" y="319.6" width="176" height="70" rx="8" fill="url(#paint1_linear_0_1)"/>
<path d="M203.725 361.88C202.685 361.88 201.765 361.667 200.965 361.24C200.179 360.8 199.559 360.16 199.105 359.32C198.665 358.48 198.445 357.44 198.445 356.2V353C198.445 351.147 198.939 349.74 199.925 348.78C200.912 347.807 202.239 347.32 203.905 347.32C205.559 347.32 206.819 347.773 207.685 348.68C208.552 349.587 208.985 350.8 208.985 352.32V352.42H207.325V352.28C207.325 351.613 207.205 351.02 206.965 350.5C206.725 349.98 206.352 349.573 205.845 349.28C205.339 348.973 204.692 348.82 203.905 348.82C202.719 348.82 201.792 349.187 201.125 349.92C200.459 350.64 200.125 351.653 200.125 352.96V356.24C200.125 357.547 200.459 358.567 201.125 359.3C201.792 360.02 202.725 360.38 203.925 360.38C205.099 360.38 205.959 360.047 206.505 359.38C207.065 358.713 207.345 357.827 207.345 356.72V356.38H203.105V354.94H208.985V361.6H207.465V360.08H207.185C207.039 360.373 206.832 360.66 206.565 360.94C206.299 361.22 205.939 361.447 205.485 361.62C205.032 361.793 204.445 361.88 203.725 361.88ZM216.589 361.88C215.602 361.88 214.735 361.673 213.989 361.26C213.242 360.833 212.662 360.24 212.249 359.48C211.835 358.72 211.629 357.84 211.629 356.84V356.6C211.629 355.587 211.835 354.7 212.249 353.94C212.662 353.18 213.235 352.593 213.969 352.18C214.702 351.753 215.542 351.54 216.489 351.54C217.409 351.54 218.222 351.74 218.929 352.14C219.635 352.527 220.189 353.087 220.589 353.82C220.989 354.553 221.189 355.413 221.189 356.4V357.12H213.209C213.249 358.173 213.589 359 214.229 359.6C214.869 360.187 215.669 360.48 216.629 360.48C217.469 360.48 218.115 360.287 218.569 359.9C219.022 359.513 219.369 359.053 219.609 358.52L220.969 359.18C220.769 359.593 220.489 360.007 220.129 360.42C219.782 360.833 219.322 361.18 218.749 361.46C218.189 361.74 217.469 361.88 216.589 361.88ZM213.229 355.82H219.589C219.535 354.913 219.222 354.207 218.649 353.7C218.089 353.193 217.369 352.94 216.489 352.94C215.595 352.94 214.862 353.193 214.289 353.7C213.715 354.207 213.362 354.913 213.229 355.82ZM227.154 361.6C226.594 361.6 226.161 361.447 225.854 361.14C225.561 360.833 225.414 360.413 225.414 359.88V353.2H222.474V351.82H225.414V348.34H226.994V351.82H230.194V353.2H226.994V359.64C226.994 360.04 227.187 360.24 227.574 360.24H229.754V361.6H227.154ZM241.83 361.88C240.617 361.88 239.59 361.6 238.75 361.04C237.923 360.48 237.423 359.593 237.25 358.38L238.75 358.04C238.857 358.68 239.057 359.187 239.35 359.56C239.643 359.92 240.003 360.18 240.43 360.34C240.87 360.487 241.337 360.56 241.83 360.56C242.563 360.56 243.143 360.413 243.57 360.12C243.997 359.827 244.21 359.433 244.21 358.94C244.21 358.433 244.003 358.08 243.59 357.88C243.19 357.667 242.637 357.493 241.93 357.36L241.11 357.22C240.483 357.113 239.91 356.947 239.39 356.72C238.87 356.493 238.457 356.187 238.15 355.8C237.843 355.413 237.69 354.927 237.69 354.34C237.69 353.46 238.03 352.773 238.71 352.28C239.39 351.787 240.29 351.54 241.41 351.54C242.517 351.54 243.41 351.793 244.09 352.3C244.783 352.793 245.23 353.493 245.43 354.4L243.95 354.78C243.83 354.073 243.543 353.58 243.09 353.3C242.637 353.007 242.077 352.86 241.41 352.86C240.743 352.86 240.217 352.987 239.83 353.24C239.443 353.48 239.25 353.84 239.25 354.32C239.25 354.787 239.43 355.133 239.79 355.36C240.163 355.573 240.657 355.733 241.27 355.84L242.09 355.98C242.783 356.1 243.403 356.267 243.95 356.48C244.51 356.68 244.95 356.973 245.27 357.36C245.603 357.747 245.77 358.253 245.77 358.88C245.77 359.84 245.41 360.58 244.69 361.1C243.983 361.62 243.03 361.88 241.83 361.88ZM251.822 361.6C251.262 361.6 250.829 361.447 250.522 361.14C250.229 360.833 250.082 360.413 250.082 359.88V353.2H247.142V351.82H250.082V348.34H251.662V351.82H254.862V353.2H251.662V359.64C251.662 360.04 251.855 360.24 252.242 360.24H254.422V361.6H251.822ZM260.363 361.88C259.683 361.88 259.063 361.76 258.503 361.52C257.943 361.28 257.503 360.933 257.183 360.48C256.863 360.027 256.703 359.473 256.703 358.82C256.703 358.153 256.863 357.607 257.183 357.18C257.503 356.74 257.943 356.413 258.503 356.2C259.063 355.973 259.689 355.86 260.383 355.86H263.683V355.14C263.683 354.447 263.476 353.9 263.063 353.5C262.663 353.1 262.063 352.9 261.263 352.9C260.476 352.9 259.863 353.093 259.423 353.48C258.983 353.853 258.683 354.36 258.523 355L257.043 354.52C257.203 353.973 257.456 353.48 257.803 353.04C258.149 352.587 258.609 352.227 259.183 351.96C259.769 351.68 260.469 351.54 261.283 351.54C262.536 351.54 263.509 351.867 264.203 352.52C264.896 353.16 265.243 354.067 265.243 355.24V359.66C265.243 360.06 265.429 360.26 265.803 360.26H266.703V361.6H265.323C264.883 361.6 264.529 361.48 264.263 361.24C263.996 360.987 263.863 360.653 263.863 360.24V360.14H263.623C263.476 360.393 263.276 360.66 263.023 360.94C262.783 361.207 262.449 361.427 262.023 361.6C261.596 361.787 261.043 361.88 260.363 361.88ZM260.543 360.52C261.476 360.52 262.229 360.247 262.803 359.7C263.389 359.14 263.683 358.36 263.683 357.36V357.14H260.443C259.816 357.14 259.296 357.28 258.883 357.56C258.483 357.827 258.283 358.233 258.283 358.78C258.283 359.327 258.489 359.753 258.903 360.06C259.329 360.367 259.876 360.52 260.543 360.52ZM268.866 361.6V351.82H270.406V353.02H270.686C270.86 352.593 271.126 352.28 271.486 352.08C271.846 351.88 272.32 351.78 272.906 351.78H274.066V353.22H272.806C272.1 353.22 271.526 353.42 271.086 353.82C270.66 354.207 270.446 354.813 270.446 355.64V361.6H268.866ZM280.005 361.6C279.445 361.6 279.012 361.447 278.705 361.14C278.412 360.833 278.265 360.413 278.265 359.88V353.2H275.325V351.82H278.265V348.34H279.845V351.82H283.045V353.2H279.845V359.64C279.845 360.04 280.039 360.24 280.425 360.24H282.605V361.6H280.005ZM289.733 361.88C288.746 361.88 287.88 361.673 287.133 361.26C286.386 360.833 285.806 360.24 285.393 359.48C284.98 358.72 284.773 357.84 284.773 356.84V356.6C284.773 355.587 284.98 354.7 285.393 353.94C285.806 353.18 286.38 352.593 287.113 352.18C287.846 351.753 288.686 351.54 289.633 351.54C290.553 351.54 291.366 351.74 292.073 352.14C292.78 352.527 293.333 353.087 293.733 353.82C294.133 354.553 294.333 355.413 294.333 356.4V357.12H286.353C286.393 358.173 286.733 359 287.373 359.6C288.013 360.187 288.813 360.48 289.773 360.48C290.613 360.48 291.26 360.287 291.713 359.9C292.166 359.513 292.513 359.053 292.753 358.52L294.113 359.18C293.913 359.593 293.633 360.007 293.273 360.42C292.926 360.833 292.466 361.18 291.893 361.46C291.333 361.74 290.613 361.88 289.733 361.88ZM286.373 355.82H292.733C292.68 354.913 292.366 354.207 291.793 353.7C291.233 353.193 290.513 352.94 289.633 352.94C288.74 352.94 288.006 353.193 287.433 353.7C286.86 354.207 286.506 354.913 286.373 355.82ZM301.229 361.88C300.389 361.88 299.616 361.68 298.909 361.28C298.202 360.88 297.642 360.3 297.229 359.54C296.816 358.78 296.609 357.88 296.609 356.84V356.58C296.609 355.54 296.816 354.647 297.229 353.9C297.642 353.14 298.196 352.56 298.889 352.16C299.596 351.747 300.376 351.54 301.229 351.54C301.909 351.54 302.482 351.633 302.949 351.82C303.429 351.993 303.816 352.22 304.109 352.5C304.402 352.767 304.629 353.053 304.789 353.36H305.069V347.6H306.649V361.6H305.109V359.98H304.829C304.562 360.473 304.149 360.913 303.589 361.3C303.029 361.687 302.242 361.88 301.229 361.88ZM301.649 360.48C302.662 360.48 303.482 360.16 304.109 359.52C304.749 358.867 305.069 357.96 305.069 356.8V356.62C305.069 355.46 304.749 354.56 304.109 353.92C303.482 353.267 302.662 352.94 301.649 352.94C300.649 352.94 299.822 353.267 299.169 353.92C298.529 354.56 298.209 355.46 298.209 356.62V356.8C298.209 357.96 298.529 358.867 299.169 359.52C299.822 360.16 300.649 360.48 301.649 360.48Z" fill="white"/>
<rect x="352.773" y="319.6" width="182" height="70" rx="8" fill="url(#paint2_linear_0_1)"/>
<path d="M386.799 361.6V347.6H395.419V349.12H388.479V353.8H394.859V355.32H388.479V360.08H395.519V361.6H386.799ZM402.628 361.88C401.681 361.88 400.828 361.68 400.068 361.28C399.321 360.867 398.728 360.28 398.288 359.52C397.861 358.76 397.648 357.86 397.648 356.82V356.6C397.648 355.547 397.861 354.647 398.288 353.9C398.728 353.14 399.321 352.56 400.068 352.16C400.828 351.747 401.681 351.54 402.628 351.54C403.561 351.54 404.355 351.713 405.008 352.06C405.675 352.407 406.195 352.867 406.568 353.44C406.955 354.013 407.201 354.627 407.308 355.28L405.768 355.6C405.701 355.12 405.541 354.68 405.288 354.28C405.048 353.88 404.708 353.56 404.268 353.32C403.828 353.08 403.288 352.96 402.648 352.96C401.995 352.96 401.408 353.107 400.888 353.4C400.381 353.693 399.975 354.113 399.668 354.66C399.375 355.207 399.228 355.86 399.228 356.62V356.8C399.228 357.56 399.375 358.213 399.668 358.76C399.975 359.307 400.381 359.727 400.888 360.02C401.408 360.313 401.995 360.46 402.648 360.46C403.621 360.46 404.361 360.207 404.868 359.7C405.388 359.193 405.708 358.567 405.828 357.82L407.388 358.16C407.241 358.8 406.975 359.407 406.588 359.98C406.201 360.553 405.675 361.013 405.008 361.36C404.355 361.707 403.561 361.88 402.628 361.88ZM414.601 361.88C413.615 361.88 412.741 361.673 411.981 361.26C411.235 360.847 410.648 360.267 410.221 359.52C409.808 358.76 409.601 357.867 409.601 356.84V356.58C409.601 355.567 409.808 354.68 410.221 353.92C410.648 353.16 411.235 352.573 411.981 352.16C412.741 351.747 413.615 351.54 414.601 351.54C415.588 351.54 416.455 351.747 417.201 352.16C417.961 352.573 418.548 353.16 418.961 353.92C419.388 354.68 419.601 355.567 419.601 356.58V356.84C419.601 357.867 419.388 358.76 418.961 359.52C418.548 360.267 417.961 360.847 417.201 361.26C416.455 361.673 415.588 361.88 414.601 361.88ZM414.601 360.46C415.641 360.46 416.468 360.133 417.081 359.48C417.708 358.813 418.021 357.92 418.021 356.8V356.62C418.021 355.5 417.708 354.613 417.081 353.96C416.468 353.293 415.641 352.96 414.601 352.96C413.575 352.96 412.748 353.293 412.121 353.96C411.495 354.613 411.181 355.5 411.181 356.62V356.8C411.181 357.92 411.495 358.813 412.121 359.48C412.748 360.133 413.575 360.46 414.601 360.46ZM426.385 361.88C425.171 361.88 424.145 361.6 423.305 361.04C422.478 360.48 421.978 359.593 421.805 358.38L423.305 358.04C423.411 358.68 423.611 359.187 423.905 359.56C424.198 359.92 424.558 360.18 424.985 360.34C425.425 360.487 425.891 360.56 426.385 360.56C427.118 360.56 427.698 360.413 428.125 360.12C428.551 359.827 428.765 359.433 428.765 358.94C428.765 358.433 428.558 358.08 428.145 357.88C427.745 357.667 427.191 357.493 426.485 357.36L425.665 357.22C425.038 357.113 424.465 356.947 423.945 356.72C423.425 356.493 423.011 356.187 422.705 355.8C422.398 355.413 422.245 354.927 422.245 354.34C422.245 353.46 422.585 352.773 423.265 352.28C423.945 351.787 424.845 351.54 425.965 351.54C427.071 351.54 427.965 351.793 428.645 352.3C429.338 352.793 429.785 353.493 429.985 354.4L428.505 354.78C428.385 354.073 428.098 353.58 427.645 353.3C427.191 353.007 426.631 352.86 425.965 352.86C425.298 352.86 424.771 352.987 424.385 353.24C423.998 353.48 423.805 353.84 423.805 354.32C423.805 354.787 423.985 355.133 424.345 355.36C424.718 355.573 425.211 355.733 425.825 355.84L426.645 355.98C427.338 356.1 427.958 356.267 428.505 356.48C429.065 356.68 429.505 356.973 429.825 357.36C430.158 357.747 430.325 358.253 430.325 358.88C430.325 359.84 429.965 360.58 429.245 361.1C428.538 361.62 427.585 361.88 426.385 361.88ZM434.171 365.6V364.2H439.771C440.158 364.2 440.351 364 440.351 363.6V360.04H440.071C439.938 360.32 439.731 360.6 439.451 360.88C439.185 361.147 438.831 361.367 438.391 361.54C437.951 361.7 437.398 361.78 436.731 361.78C436.025 361.78 435.371 361.627 434.771 361.32C434.185 361.013 433.718 360.56 433.371 359.96C433.038 359.36 432.871 358.627 432.871 357.76V351.82H434.451V357.64C434.451 358.6 434.691 359.3 435.171 359.74C435.665 360.18 436.325 360.4 437.151 360.4C438.085 360.4 438.851 360.093 439.451 359.48C440.051 358.867 440.351 357.953 440.351 356.74V351.82H441.931V363.88C441.931 364.413 441.778 364.833 441.471 365.14C441.178 365.447 440.745 365.6 440.171 365.6H434.171ZM449.178 361.88C447.964 361.88 446.938 361.6 446.098 361.04C445.271 360.48 444.771 359.593 444.598 358.38L446.098 358.04C446.204 358.68 446.404 359.187 446.698 359.56C446.991 359.92 447.351 360.18 447.778 360.34C448.218 360.487 448.684 360.56 449.178 360.56C449.911 360.56 450.491 360.413 450.918 360.12C451.344 359.827 451.558 359.433 451.558 358.94C451.558 358.433 451.351 358.08 450.938 357.88C450.538 357.667 449.984 357.493 449.278 357.36L448.458 357.22C447.831 357.113 447.258 356.947 446.738 356.72C446.218 356.493 445.804 356.187 445.498 355.8C445.191 355.413 445.038 354.927 445.038 354.34C445.038 353.46 445.378 352.773 446.058 352.28C446.738 351.787 447.638 351.54 448.758 351.54C449.864 351.54 450.758 351.793 451.438 352.3C452.131 352.793 452.578 353.493 452.778 354.4L451.298 354.78C451.178 354.073 450.891 353.58 450.438 353.3C449.984 353.007 449.424 352.86 448.758 352.86C448.091 352.86 447.564 352.987 447.178 353.24C446.791 353.48 446.598 353.84 446.598 354.32C446.598 354.787 446.778 355.133 447.138 355.36C447.511 355.573 448.004 355.733 448.618 355.84L449.438 355.98C450.131 356.1 450.751 356.267 451.298 356.48C451.858 356.68 452.298 356.973 452.618 357.36C452.951 357.747 453.118 358.253 453.118 358.88C453.118 359.84 452.758 360.58 452.038 361.1C451.331 361.62 450.378 361.88 449.178 361.88ZM459.17 361.6C458.61 361.6 458.176 361.447 457.87 361.14C457.576 360.833 457.43 360.413 457.43 359.88V353.2H454.49V351.82H457.43V348.34H459.01V351.82H462.21V353.2H459.01V359.64C459.01 360.04 459.203 360.24 459.59 360.24H461.77V361.6H459.17ZM468.897 361.88C467.911 361.88 467.044 361.673 466.297 361.26C465.551 360.833 464.971 360.24 464.557 359.48C464.144 358.72 463.937 357.84 463.937 356.84V356.6C463.937 355.587 464.144 354.7 464.557 353.94C464.971 353.18 465.544 352.593 466.277 352.18C467.011 351.753 467.851 351.54 468.797 351.54C469.717 351.54 470.531 351.74 471.237 352.14C471.944 352.527 472.497 353.087 472.897 353.82C473.297 354.553 473.497 355.413 473.497 356.4V357.12H465.517C465.557 358.173 465.897 359 466.537 359.6C467.177 360.187 467.977 360.48 468.937 360.48C469.777 360.48 470.424 360.287 470.877 359.9C471.331 359.513 471.677 359.053 471.917 358.52L473.277 359.18C473.077 359.593 472.797 360.007 472.437 360.42C472.091 360.833 471.631 361.18 471.057 361.46C470.497 361.74 469.777 361.88 468.897 361.88ZM465.537 355.82H471.897C471.844 354.913 471.531 354.207 470.957 353.7C470.397 353.193 469.677 352.94 468.797 352.94C467.904 352.94 467.171 353.193 466.597 353.7C466.024 354.207 465.671 354.913 465.537 355.82ZM476.253 361.6V351.82H477.793V353.04H478.073C478.26 352.693 478.566 352.373 478.993 352.08C479.42 351.787 480.02 351.64 480.793 351.64C481.553 351.64 482.166 351.807 482.633 352.14C483.113 352.473 483.46 352.88 483.673 353.36H483.953C484.18 352.88 484.52 352.473 484.973 352.14C485.44 351.807 486.086 351.64 486.913 351.64C487.566 351.64 488.14 351.773 488.633 352.04C489.126 352.307 489.513 352.693 489.793 353.2C490.086 353.693 490.233 354.287 490.233 354.98V361.6H488.653V355.12C488.653 354.467 488.46 353.953 488.073 353.58C487.7 353.193 487.173 353 486.493 353C485.773 353 485.18 353.233 484.713 353.7C484.26 354.167 484.033 354.84 484.033 355.72V361.6H482.453V355.12C482.453 354.467 482.26 353.953 481.873 353.58C481.5 353.193 480.973 353 480.293 353C479.573 353 478.98 353.233 478.513 353.7C478.06 354.167 477.833 354.84 477.833 355.72V361.6H476.253ZM497.4 361.88C496.187 361.88 495.16 361.6 494.32 361.04C493.494 360.48 492.994 359.593 492.82 358.38L494.32 358.04C494.427 358.68 494.627 359.187 494.92 359.56C495.214 359.92 495.574 360.18 496 360.34C496.44 360.487 496.907 360.56 497.4 360.56C498.134 360.56 498.714 360.413 499.14 360.12C499.567 359.827 499.78 359.433 499.78 358.94C499.78 358.433 499.574 358.08 499.16 357.88C498.76 357.667 498.207 357.493 497.5 357.36L496.68 357.22C496.054 357.113 495.48 356.947 494.96 356.72C494.44 356.493 494.027 356.187 493.72 355.8C493.414 355.413 493.26 354.927 493.26 354.34C493.26 353.46 493.6 352.773 494.28 352.28C494.96 351.787 495.86 351.54 496.98 351.54C498.087 351.54 498.98 351.793 499.66 352.3C500.354 352.793 500.8 353.493 501 354.4L499.52 354.78C499.4 354.073 499.114 353.58 498.66 353.3C498.207 353.007 497.647 352.86 496.98 352.86C496.314 352.86 495.787 352.987 495.4 353.24C495.014 353.48 494.82 353.84 494.82 354.32C494.82 354.787 495 355.133 495.36 355.36C495.734 355.573 496.227 355.733 496.84 355.84L497.66 355.98C498.354 356.1 498.974 356.267 499.52 356.48C500.08 356.68 500.52 356.973 500.84 357.36C501.174 357.747 501.34 358.253 501.34 358.88C501.34 359.84 500.98 360.58 500.26 361.1C499.554 361.62 498.6 361.88 497.4 361.88Z" fill="black"/>
<defs>
<linearGradient id="paint0_linear_0_1" x1="28.2728" y1="-6.39998" x2="683.773" y2="76.6001" gradientUnits="userSpaceOnUse">
<stop stop-color="#FF1CF7"/>
<stop offset="1" stop-color="#00F0FF"/>
</linearGradient>
<linearGradient id="paint1_linear_0_1" x1="252.773" y1="319.6" x2="252.773" y2="389.6" gradientUnits="userSpaceOnUse">
<stop stop-color="#497CFF"/>
<stop offset="1" stop-color="#001664"/>
</linearGradient>
<linearGradient id="paint2_linear_0_1" x1="443.773" y1="319.6" x2="443.773" y2="389.6" gradientUnits="userSpaceOnUse">
<stop stop-color="#D1D3E2"/>
<stop offset="1" stop-color="#75629D"/>
</linearGradient>
</defs>
</svg>
