<svg width="964" height="22" viewBox="0 0 964 22" fill="none" xmlns="http://www.w3.org/2000/svg">
<path d="M5.95203 19.264C9.19203 19.264 11.712 17.296 11.712 14.464C11.712 11.056 8.78403 10.264 6.38403 9.784C4.44003 9.4 2.73603 9.016 2.73603 7.288C2.73603 5.92 4.05603 4.96 5.68803 4.96C7.46403 4.96 8.68803 5.776 9.33603 7.096L11.376 6.04C10.416 3.832 8.23203 2.68 5.78403 2.68C2.73603 2.68 0.312027 4.696 0.312027 7.36C0.312027 10.768 3.31203 11.56 5.73603 12.04C7.63203 12.4 9.26403 12.712 9.26403 14.488C9.26403 16.072 7.82403 16.96 5.95203 16.96C4.05603 16.96 2.68803 16.216 2.06403 14.824L2.74181e-05 15.832C0.960027 18.04 3.24003 19.264 5.95203 19.264ZM20.2015 19.264C22.5055 19.264 24.4015 18.184 25.4335 16.168L23.6095 15.232C22.9135 16.528 21.6175 17.152 20.1775 17.152C18.0655 17.152 16.5295 15.736 16.2655 13.72H25.6735V12.76C25.6735 9.472 23.4655 6.904 19.9135 6.904C16.3855 6.904 13.9615 9.664 13.9615 13.048C13.9615 16.672 16.6255 19.264 20.2015 19.264ZM16.3615 12.184C16.6015 10.432 17.8975 9.04 19.8895 9.04C21.8335 9.04 23.2015 10.312 23.2975 12.184H16.3615ZM30.8862 19V12.088C30.8862 10.36 31.8462 9.28 33.4302 9.28C34.0782 9.28 34.7502 9.448 35.3262 9.784V7.432C34.7262 7.144 33.9582 7 33.2142 7C30.1422 7 28.5102 9.136 28.5102 11.992V19H30.8862ZM42.5608 19.264C44.8648 19.264 46.7608 18.184 47.7928 16.168L45.9688 15.232C45.2728 16.528 43.9768 17.152 42.5368 17.152C40.4248 17.152 38.8888 15.736 38.6248 13.72H48.0328V12.76C48.0328 9.472 45.8248 6.904 42.2728 6.904C38.7448 6.904 36.3208 9.664 36.3208 13.048C36.3208 16.672 38.9848 19.264 42.5608 19.264ZM38.7208 12.184C38.9608 10.432 40.2568 9.04 42.2488 9.04C44.1928 9.04 45.5608 10.312 45.6568 12.184H38.7208ZM56.7015 9.232C59.0535 9.232 60.2535 11.128 60.2535 13.336V19H62.6295V13.048C62.6295 9.64 60.5415 6.952 56.7015 6.952C52.9095 6.952 50.8695 9.64 50.8695 13.072V19H53.2455V13.312C53.2455 11.128 54.3975 9.232 56.7015 9.232ZM71.5536 19.288C75.1056 19.288 77.8176 16.624 77.8176 13.144V1.84H75.4416L75.4176 8.704C74.4576 7.648 73.0176 6.952 71.4336 6.952C67.8816 6.952 65.2896 9.568 65.2896 13.144C65.2896 16.528 67.9776 19.288 71.5536 19.288ZM71.5536 17.056C69.3696 17.056 67.6656 15.28 67.6656 13.12C67.6656 10.984 69.3696 9.208 71.5536 9.208C73.7616 9.208 75.4416 10.984 75.4416 13.12C75.4416 15.28 73.7616 17.056 71.5536 17.056ZM86.3811 19.288C88.3011 19.288 89.8611 18.376 90.7491 16.936V19H93.0051V13.096C93.0051 9.592 90.2931 6.952 86.7411 6.952C83.1651 6.952 80.4771 9.736 80.4771 13.096C80.4771 16.504 82.9731 19.288 86.3811 19.288ZM86.7411 17.032C84.5571 17.032 82.8531 15.256 82.8531 13.12C82.8531 10.96 84.5571 9.184 86.7411 9.184C88.9491 9.184 90.6291 10.96 90.6291 13.12C90.6291 15.256 88.9491 17.032 86.7411 17.032ZM96.8886 1.84V19H99.2646V1.84H96.8886ZM108.631 19.264C110.935 19.264 112.831 18.184 113.863 16.168L112.039 15.232C111.343 16.528 110.047 17.152 108.607 17.152C106.495 17.152 104.959 15.736 104.695 13.72H114.103V12.76C114.103 9.472 111.895 6.904 108.343 6.904C104.815 6.904 102.391 9.664 102.391 13.048C102.391 16.672 105.055 19.264 108.631 19.264ZM104.791 12.184C105.031 10.432 106.327 9.04 108.319 9.04C110.263 9.04 111.631 10.312 111.727 12.184H104.791Z" fill="white"/>
<path d="M545.398 17.18C548.242 17.18 549.664 15.704 549.664 13.868C549.664 11.978 548.476 11.042 546.478 10.592L544.39 10.106C542.626 9.692 541.96 9.296 541.96 7.928C541.96 6.614 542.95 5.948 544.948 5.948C547.324 5.948 548.188 7.01 548.188 8.666V8.864H549.466V8.63C549.466 6.668 548.098 4.76 544.966 4.76C542.104 4.76 540.664 6.272 540.664 8.018C540.664 9.962 541.96 10.826 543.85 11.222L545.938 11.69C547.756 12.086 548.368 12.59 548.368 13.94C548.368 15.326 547.432 15.992 545.434 15.992C542.752 15.992 541.87 14.948 541.87 13.274V13.076H540.592V13.346C540.592 15.416 542.05 17.18 545.398 17.18ZM555.011 17.18C557.279 17.18 558.827 15.866 558.827 14.156V14.03H557.549V14.138C557.549 15.218 556.829 16.028 555.029 16.028C552.905 16.028 552.131 14.876 552.077 12.914H558.809C558.863 12.662 558.899 12.266 558.899 11.852C558.899 9.224 557.135 7.928 554.993 7.928C552.455 7.928 550.853 9.854 550.853 12.554C550.853 15.254 552.275 17.18 555.011 17.18ZM554.957 9.044C556.703 9.044 557.747 9.872 557.675 11.978H552.077C552.185 10.178 552.977 9.044 554.957 9.044ZM561.86 17V11.114C561.86 9.674 562.436 9.044 563.822 9.044C565.1 9.044 565.532 9.584 565.532 10.97V11.276H566.828V10.772C566.828 9.242 566.126 7.928 564.29 7.928C562.976 7.928 562.112 8.666 561.824 9.494H561.734V8H560.564V17H561.86ZM572.549 17L576.185 8.108H574.799L571.811 15.74H571.721L568.715 8.108H567.311L570.947 17H572.549ZM578.382 6.92V4.94H577.104V6.92H578.382ZM578.382 17V8H577.104V17H578.382ZM584.104 17.198C586.372 17.198 587.902 15.74 587.902 13.652V13.526H586.624V13.634C586.624 15.182 585.796 16.028 584.05 16.028C582.016 16.028 581.17 14.75 581.17 12.572C581.17 10.376 582.016 9.098 584.05 9.098C585.796 9.098 586.624 9.944 586.624 11.492V11.6H587.902V11.474C587.902 9.386 586.372 7.928 584.104 7.928C581.476 7.928 579.892 9.854 579.892 12.572C579.892 15.272 581.476 17.198 584.104 17.198ZM593.366 17.18C595.634 17.18 597.182 15.866 597.182 14.156V14.03H595.904V14.138C595.904 15.218 595.184 16.028 593.384 16.028C591.26 16.028 590.486 14.876 590.432 12.914H597.164C597.218 12.662 597.254 12.266 597.254 11.852C597.254 9.224 595.49 7.928 593.348 7.928C590.81 7.928 589.208 9.854 589.208 12.554C589.208 15.254 590.63 17.18 593.366 17.18ZM593.312 9.044C595.058 9.044 596.102 9.872 596.03 11.978H590.432C590.54 10.178 591.332 9.044 593.312 9.044ZM602.608 17.18C604.66 17.18 605.956 16.244 605.956 14.66C605.956 13.184 604.93 12.5 603.382 12.212L601.87 11.924C600.538 11.672 600.088 11.366 600.088 10.466C600.088 9.566 600.592 9.044 602.212 9.044C604.12 9.044 604.534 9.854 604.534 10.916V11.06H605.776V10.97C605.776 8.972 604.282 7.928 602.248 7.928C600.142 7.928 598.846 8.954 598.846 10.484C598.846 12.05 599.89 12.716 601.33 12.986L602.806 13.238C604.156 13.49 604.714 13.814 604.714 14.714C604.714 15.614 604.282 16.082 602.626 16.082C600.61 16.082 600.106 15.488 600.106 14.264V14.048H598.846V14.084C598.846 16.154 600.178 17.18 602.608 17.18Z" fill="white"/>
<path d="M375.398 17.18C378.242 17.18 379.664 15.704 379.664 13.868C379.664 11.978 378.476 11.042 376.478 10.592L374.39 10.106C372.626 9.692 371.96 9.296 371.96 7.928C371.96 6.614 372.95 5.948 374.948 5.948C377.324 5.948 378.188 7.01 378.188 8.666V8.864H379.466V8.63C379.466 6.668 378.098 4.76 374.966 4.76C372.104 4.76 370.664 6.272 370.664 8.018C370.664 9.962 371.96 10.826 373.85 11.222L375.938 11.69C377.756 12.086 378.368 12.59 378.368 13.94C378.368 15.326 377.432 15.992 375.434 15.992C372.752 15.992 371.87 14.948 371.87 13.274V13.076H370.592V13.346C370.592 15.416 372.05 17.18 375.398 17.18ZM382.632 17V11.87C382.632 9.89 383.496 9.062 385.188 9.062C386.988 9.062 387.618 9.908 387.618 11.834V17H388.896V11.87C388.896 9.89 389.742 9.062 391.434 9.062C393.234 9.062 393.882 9.908 393.882 11.834V17H395.16V11.528C395.16 9.404 394.116 7.928 391.83 7.928C389.994 7.928 389.076 9.008 388.716 9.962H388.662C388.266 8.702 387.294 7.928 385.674 7.928C383.838 7.928 382.902 9.008 382.56 9.944H382.506V8.108H381.336V17H382.632ZM399.533 17.18C401.225 17.18 402.359 16.37 402.881 15.344L402.971 15.362V17H404.141V11.438C404.141 9.458 403.061 7.928 400.685 7.928C398.381 7.928 396.959 9.404 396.959 11.258V11.402H398.201V11.132C398.201 9.71 398.957 9.08 400.577 9.08C402.251 9.08 402.917 9.71 402.917 11.276V11.924L399.785 12.356C397.841 12.626 396.689 13.31 396.689 14.858C396.689 16.352 397.913 17.18 399.533 17.18ZM397.949 14.768C397.949 13.814 398.471 13.526 399.893 13.328L402.917 12.896V13.202C402.917 15.308 401.423 16.1 399.893 16.1C398.525 16.1 397.949 15.686 397.949 14.768ZM407.417 17V11.114C407.417 9.674 407.993 9.044 409.379 9.044C410.657 9.044 411.089 9.584 411.089 10.97V11.276H412.385V10.772C412.385 9.242 411.683 7.928 409.847 7.928C408.533 7.928 407.669 8.666 407.381 9.494H407.291V8H406.121V17H407.417ZM417.168 17.018C417.816 17.018 418.374 16.928 418.68 16.874V15.83H417.51C416.358 15.83 415.872 15.596 415.872 14.552V9.224H418.68V8.108H415.872V5.84H414.9L414.594 8.108H413.082V9.224H414.576V14.48C414.576 16.37 415.53 17.018 417.168 17.018ZM428.461 17.18C431.413 17.18 433.411 15.434 433.411 12.698V12.554H432.043V12.698C432.043 14.822 430.909 15.938 428.389 15.938C425.563 15.938 424.321 14.318 424.321 10.97C424.321 7.622 425.563 6.002 428.389 6.002C430.909 6.002 432.043 7.118 432.043 9.242V9.386H433.411V9.242C433.411 6.506 431.413 4.76 428.461 4.76C425.041 4.76 422.971 7.208 422.971 10.97C422.971 14.732 425.041 17.18 428.461 17.18ZM439.067 17.18C441.659 17.18 443.315 15.254 443.315 12.554C443.315 9.854 441.659 7.928 439.067 7.928C436.457 7.928 434.747 9.854 434.747 12.554C434.747 15.254 436.457 17.18 439.067 17.18ZM439.067 16.028C436.889 16.028 436.025 14.768 436.025 12.554C436.025 10.34 436.889 9.098 439.067 9.098C441.209 9.098 442.055 10.34 442.055 12.554C442.055 14.768 441.209 16.028 439.067 16.028ZM446.177 17V11.87C446.177 9.89 447.131 9.062 448.895 9.062C450.713 9.062 451.343 9.908 451.343 11.834V17H452.621V11.546C452.621 9.404 451.577 7.928 449.291 7.928C447.455 7.928 446.447 9.008 446.105 9.944H446.051V8.108H444.881V17H446.177ZM457.773 17.018C458.421 17.018 458.979 16.928 459.285 16.874V15.83H458.115C456.963 15.83 456.477 15.596 456.477 14.552V9.224H459.285V8.108H456.477V5.84H455.505L455.199 8.108H453.687V9.224H455.181V14.48C455.181 16.37 456.135 17.018 457.773 17.018ZM461.874 17V11.114C461.874 9.674 462.45 9.044 463.836 9.044C465.114 9.044 465.546 9.584 465.546 10.97V11.276H466.842V10.772C466.842 9.242 466.14 7.928 464.304 7.928C462.99 7.928 462.126 8.666 461.838 9.494H461.748V8H460.578V17H461.874ZM470.355 17.18C472.047 17.18 473.181 16.37 473.703 15.344L473.793 15.362V17H474.963V11.438C474.963 9.458 473.883 7.928 471.507 7.928C469.203 7.928 467.781 9.404 467.781 11.258V11.402H469.023V11.132C469.023 9.71 469.779 9.08 471.399 9.08C473.073 9.08 473.739 9.71 473.739 11.276V11.924L470.607 12.356C468.663 12.626 467.511 13.31 467.511 14.858C467.511 16.352 468.735 17.18 470.355 17.18ZM468.771 14.768C468.771 13.814 469.293 13.526 470.715 13.328L473.739 12.896V13.202C473.739 15.308 472.245 16.1 470.715 16.1C469.347 16.1 468.771 15.686 468.771 14.768ZM480.76 17.198C483.028 17.198 484.558 15.74 484.558 13.652V13.526H483.28V13.634C483.28 15.182 482.452 16.028 480.706 16.028C478.672 16.028 477.826 14.75 477.826 12.572C477.826 10.376 478.672 9.098 480.706 9.098C482.452 9.098 483.28 9.944 483.28 11.492V11.6H484.558V11.474C484.558 9.386 483.028 7.928 480.76 7.928C478.132 7.928 476.548 9.854 476.548 12.572C476.548 15.272 478.132 17.198 480.76 17.198ZM489.379 17.018C490.027 17.018 490.585 16.928 490.891 16.874V15.83H489.721C488.569 15.83 488.083 15.596 488.083 14.552V9.224H490.891V8.108H488.083V5.84H487.111L486.805 8.108H485.293V9.224H486.787V14.48C486.787 16.37 487.741 17.018 489.379 17.018ZM495.555 17.18C497.607 17.18 498.903 16.244 498.903 14.66C498.903 13.184 497.877 12.5 496.329 12.212L494.817 11.924C493.485 11.672 493.035 11.366 493.035 10.466C493.035 9.566 493.539 9.044 495.159 9.044C497.067 9.044 497.481 9.854 497.481 10.916V11.06H498.723V10.97C498.723 8.972 497.229 7.928 495.195 7.928C493.089 7.928 491.793 8.954 491.793 10.484C491.793 12.05 492.837 12.716 494.277 12.986L495.753 13.238C497.103 13.49 497.661 13.814 497.661 14.714C497.661 15.614 497.229 16.082 495.573 16.082C493.557 16.082 493.053 15.488 493.053 14.264V14.048H491.793V14.084C491.793 16.154 493.125 17.18 495.555 17.18Z" fill="white"/>
<path d="M652.398 17.18C655.242 17.18 656.664 15.704 656.664 13.868C656.664 11.978 655.476 11.042 653.478 10.592L651.39 10.106C649.626 9.692 648.96 9.296 648.96 7.928C648.96 6.614 649.95 5.948 651.948 5.948C654.324 5.948 655.188 7.01 655.188 8.666V8.864H656.466V8.63C656.466 6.668 655.098 4.76 651.966 4.76C649.104 4.76 647.664 6.272 647.664 8.018C647.664 9.962 648.96 10.826 650.85 11.222L652.938 11.69C654.756 12.086 655.368 12.59 655.368 13.94C655.368 15.326 654.432 15.992 652.434 15.992C649.752 15.992 648.87 14.948 648.87 13.274V13.076H647.592V13.346C647.592 15.416 649.05 17.18 652.398 17.18ZM662.173 17.18C664.765 17.18 666.421 15.254 666.421 12.554C666.421 9.854 664.765 7.928 662.173 7.928C659.563 7.928 657.853 9.854 657.853 12.554C657.853 15.254 659.563 17.18 662.173 17.18ZM662.173 16.028C659.995 16.028 659.131 14.768 659.131 12.554C659.131 10.34 659.995 9.098 662.173 9.098C664.315 9.098 665.161 10.34 665.161 12.554C665.161 14.768 664.315 16.028 662.173 16.028ZM669.3 17V4.94H668.004V17H669.3ZM674.656 17.18C676.51 17.18 677.518 16.064 677.878 15.038H677.932V17H679.102V8.108H677.824V13.094C677.824 15.182 676.708 16.046 675.07 16.046C673.324 16.046 672.55 15.2 672.55 13.274V8.108H671.254V13.454C671.254 15.578 672.334 17.18 674.656 17.18ZM684.324 17.018C684.972 17.018 685.53 16.928 685.836 16.874V15.83H684.666C683.514 15.83 683.028 15.596 683.028 14.552V9.224H685.836V8.108H683.028V5.84H682.056L681.75 8.108H680.238V9.224H681.732V14.48C681.732 16.37 682.686 17.018 684.324 17.018ZM688.247 6.92V4.94H686.969V6.92H688.247ZM688.247 17V8H686.969V17H688.247ZM694.077 17.18C696.669 17.18 698.325 15.254 698.325 12.554C698.325 9.854 696.669 7.928 694.077 7.928C691.467 7.928 689.757 9.854 689.757 12.554C689.757 15.254 691.467 17.18 694.077 17.18ZM694.077 16.028C691.899 16.028 691.035 14.768 691.035 12.554C691.035 10.34 691.899 9.098 694.077 9.098C696.219 9.098 697.065 10.34 697.065 12.554C697.065 14.768 696.219 16.028 694.077 16.028ZM701.186 17V11.87C701.186 9.89 702.14 9.062 703.904 9.062C705.722 9.062 706.352 9.908 706.352 11.834V17H707.63V11.546C707.63 9.404 706.586 7.928 704.3 7.928C702.464 7.928 701.456 9.008 701.114 9.944H701.06V8.108H699.89V17H701.186ZM713.141 17.18C715.193 17.18 716.489 16.244 716.489 14.66C716.489 13.184 715.463 12.5 713.915 12.212L712.403 11.924C711.071 11.672 710.621 11.366 710.621 10.466C710.621 9.566 711.125 9.044 712.745 9.044C714.653 9.044 715.067 9.854 715.067 10.916V11.06H716.309V10.97C716.309 8.972 714.815 7.928 712.781 7.928C710.675 7.928 709.379 8.954 709.379 10.484C709.379 12.05 710.423 12.716 711.863 12.986L713.339 13.238C714.689 13.49 715.247 13.814 715.247 14.714C715.247 15.614 714.815 16.082 713.159 16.082C711.143 16.082 710.639 15.488 710.639 14.264V14.048H709.379V14.084C709.379 16.154 710.711 17.18 713.141 17.18Z" fill="white"/>
<path d="M760.14 17V12.086H761.886C763.452 12.086 764.082 12.572 764.676 13.616L766.62 17H768.114L766.044 13.382C765.63 12.644 765.126 12.14 764.37 11.906V11.798C766.53 11.744 767.952 10.502 767.952 8.45C767.952 6.218 766.26 4.94 763.776 4.94H758.862V17H760.14ZM760.14 6.11H763.974C765.828 6.11 766.656 6.884 766.656 8.54C766.656 10.25 765.828 10.988 763.974 10.988H760.14V6.11ZM773.137 17.18C775.729 17.18 777.385 15.254 777.385 12.554C777.385 9.854 775.729 7.928 773.137 7.928C770.527 7.928 768.817 9.854 768.817 12.554C768.817 15.254 770.527 17.18 773.137 17.18ZM773.137 16.028C770.959 16.028 770.095 14.768 770.095 12.554C770.095 10.34 770.959 9.098 773.137 9.098C775.279 9.098 776.125 10.34 776.125 12.554C776.125 14.768 775.279 16.028 773.137 16.028ZM781.486 17.18C783.178 17.18 784.312 16.37 784.834 15.344L784.924 15.362V17H786.094V11.438C786.094 9.458 785.014 7.928 782.638 7.928C780.334 7.928 778.912 9.404 778.912 11.258V11.402H780.154V11.132C780.154 9.71 780.91 9.08 782.53 9.08C784.204 9.08 784.87 9.71 784.87 11.276V11.924L781.738 12.356C779.794 12.626 778.642 13.31 778.642 14.858C778.642 16.352 779.866 17.18 781.486 17.18ZM779.902 14.768C779.902 13.814 780.424 13.526 781.846 13.328L784.87 12.896V13.202C784.87 15.308 783.376 16.1 781.846 16.1C780.478 16.1 779.902 15.686 779.902 14.768ZM791.585 17.18C793.259 17.18 794.303 16.406 794.699 15.29H794.771V17H795.923V4.94H794.627V9.8C794.249 8.828 793.151 7.928 791.441 7.928C789.011 7.928 787.679 9.746 787.679 12.554C787.679 15.362 789.083 17.18 791.585 17.18ZM788.975 12.554C788.975 9.836 790.055 9.044 791.801 9.044C793.565 9.044 794.627 9.962 794.627 11.798V13.328C794.627 15.146 793.565 16.064 791.801 16.064C790.037 16.064 788.975 15.272 788.975 12.554ZM799.231 17V11.87C799.231 9.89 800.095 9.062 801.787 9.062C803.587 9.062 804.217 9.908 804.217 11.834V17H805.495V11.87C805.495 9.89 806.341 9.062 808.033 9.062C809.833 9.062 810.481 9.908 810.481 11.834V17H811.759V11.528C811.759 9.404 810.715 7.928 808.429 7.928C806.593 7.928 805.675 9.008 805.315 9.962H805.261C804.865 8.702 803.893 7.928 802.273 7.928C800.437 7.928 799.501 9.008 799.159 9.944H799.105V8.108H797.935V17H799.231ZM816.133 17.18C817.825 17.18 818.959 16.37 819.481 15.344L819.571 15.362V17H820.741V11.438C820.741 9.458 819.661 7.928 817.285 7.928C814.981 7.928 813.559 9.404 813.559 11.258V11.402H814.801V11.132C814.801 9.71 815.557 9.08 817.177 9.08C818.851 9.08 819.517 9.71 819.517 11.276V11.924L816.385 12.356C814.441 12.626 813.289 13.31 813.289 14.858C813.289 16.352 814.513 17.18 816.133 17.18ZM814.549 14.768C814.549 13.814 815.071 13.526 816.493 13.328L819.517 12.896V13.202C819.517 15.308 818.023 16.1 816.493 16.1C815.125 16.1 814.549 15.686 814.549 14.768ZM824.016 20.132V15.308C824.412 16.28 825.51 17.18 827.22 17.18C829.65 17.18 830.964 15.362 830.964 12.572C830.964 9.746 829.578 7.928 827.076 7.928C825.402 7.928 824.34 8.702 823.944 9.836H823.89V8.108H822.72V20.132H824.016ZM824.016 13.328V11.798C824.016 9.962 825.096 9.044 826.86 9.044C828.606 9.044 829.668 9.836 829.668 12.572C829.668 15.272 828.588 16.064 826.86 16.064C825.096 16.064 824.016 15.146 824.016 13.328Z" fill="white"/>
<path d="M877.326 17L879.468 10.25L880.602 6.506H880.728L881.844 10.25L884.004 17H885.858L888.972 4.94H887.55L885.516 12.842L884.922 15.704H884.832L884.04 12.842L881.556 4.94H879.792L877.29 12.842L876.516 15.704H876.408L875.832 12.842L873.798 4.94H872.358L875.454 17H877.326ZM891.68 17V11.888C891.68 9.89 892.616 9.062 894.398 9.062C896.198 9.062 896.846 9.908 896.846 11.834V17H898.124V11.51C898.124 9.476 897.134 7.928 894.812 7.928C893.012 7.928 892.094 8.918 891.752 9.764H891.68V4.94H890.384V17H891.68ZM901.435 6.92V4.94H900.157V6.92H901.435ZM901.435 17V8H900.157V17H901.435ZM906.617 17.018C907.265 17.018 907.823 16.928 908.129 16.874V15.83H906.959C905.807 15.83 905.321 15.596 905.321 14.552V9.224H908.129V8.108H905.321V5.84H904.349L904.043 8.108H902.531V9.224H904.025V14.48C904.025 16.37 904.979 17.018 906.617 17.018ZM912.815 17.18C915.083 17.18 916.631 15.866 916.631 14.156V14.03H915.353V14.138C915.353 15.218 914.633 16.028 912.833 16.028C910.709 16.028 909.935 14.876 909.881 12.914H916.613C916.667 12.662 916.703 12.266 916.703 11.852C916.703 9.224 914.939 7.928 912.797 7.928C910.259 7.928 908.657 9.854 908.657 12.554C908.657 15.254 910.079 17.18 912.815 17.18ZM912.761 9.044C914.507 9.044 915.551 9.872 915.479 11.978H909.881C909.989 10.178 910.781 9.044 912.761 9.044ZM919.665 20.132V15.308C920.061 16.28 921.159 17.18 922.869 17.18C925.299 17.18 926.613 15.362 926.613 12.572C926.613 9.746 925.227 7.928 922.725 7.928C921.051 7.928 919.989 8.702 919.593 9.836H919.539V8.108H918.369V20.132H919.665ZM919.665 13.328V11.798C919.665 9.962 920.745 9.044 922.509 9.044C924.255 9.044 925.317 9.836 925.317 12.572C925.317 15.272 924.237 16.064 922.509 16.064C920.745 16.064 919.665 15.146 919.665 13.328ZM930.713 17.18C932.405 17.18 933.539 16.37 934.061 15.344L934.151 15.362V17H935.321V11.438C935.321 9.458 934.241 7.928 931.865 7.928C929.561 7.928 928.139 9.404 928.139 11.258V11.402H929.381V11.132C929.381 9.71 930.137 9.08 931.757 9.08C933.431 9.08 934.097 9.71 934.097 11.276V11.924L930.965 12.356C929.021 12.626 927.869 13.31 927.869 14.858C927.869 16.352 929.093 17.18 930.713 17.18ZM929.129 14.768C929.129 13.814 929.651 13.526 931.073 13.328L934.097 12.896V13.202C934.097 15.308 932.603 16.1 931.073 16.1C929.705 16.1 929.129 15.686 929.129 14.768ZM938.596 20.132V15.308C938.992 16.28 940.09 17.18 941.8 17.18C944.23 17.18 945.544 15.362 945.544 12.572C945.544 9.746 944.158 7.928 941.656 7.928C939.982 7.928 938.92 8.702 938.524 9.836H938.47V8.108H937.3V20.132H938.596ZM938.596 13.328V11.798C938.596 9.962 939.676 9.044 941.44 9.044C943.186 9.044 944.248 9.836 944.248 12.572C944.248 15.272 943.168 16.064 941.44 16.064C939.676 16.064 938.596 15.146 938.596 13.328ZM950.995 17.18C953.263 17.18 954.811 15.866 954.811 14.156V14.03H953.533V14.138C953.533 15.218 952.813 16.028 951.013 16.028C948.889 16.028 948.115 14.876 948.061 12.914H954.793C954.847 12.662 954.883 12.266 954.883 11.852C954.883 9.224 953.119 7.928 950.977 7.928C948.439 7.928 946.837 9.854 946.837 12.554C946.837 15.254 948.259 17.18 950.995 17.18ZM950.941 9.044C952.687 9.044 953.731 9.872 953.659 11.978H948.061C948.169 10.178 948.961 9.044 950.941 9.044ZM957.845 17V11.114C957.845 9.674 958.421 9.044 959.807 9.044C961.085 9.044 961.517 9.584 961.517 10.97V11.276H962.813V10.772C962.813 9.242 962.111 7.928 960.275 7.928C958.961 7.928 958.097 8.666 957.809 9.494H957.719V8H956.549V17H957.845Z" fill="white"/>
</svg>
